<?xml version="1.0" encoding="UTF-8"?>
<svg version="1.1" xmlns="http://www.w3.org/2000/svg" width="144" height="144">
<path d="M0 0 C1.64574566 -0.02688151 3.29161413 -0.04634123 4.9375 -0.0625 C5.85402344 -0.07410156 6.77054688 -0.08570312 7.71484375 -0.09765625 C10 0 10 0 11 1 C11 2.65 11 4.3 11 6 C26.51 6 42.02 6 58 6 C58.99 8.475 58.99 8.475 60 11 C60 9.35 60 7.7 60 6 C61.62463842 5.94604522 63.24978541 5.90722805 64.875 5.875 C66.23238281 5.84019531 66.23238281 5.84019531 67.6171875 5.8046875 C70 6 70 6 72 8 C72.30078125 10.96875 72.30078125 10.96875 72.3125 14.5 C72.32925781 15.6653125 72.34601563 16.830625 72.36328125 18.03125 C72.24339844 19.0109375 72.12351562 19.990625 72 21 C71.01 21.66 70.02 22.32 69 23 C67.68 22.34 66.36 21.68 65 21 C65 21.66 65 22.32 65 23 C64.22269531 22.67128906 63.44539063 22.34257813 62.64453125 22.00390625 C57.90727486 20.69900283 53.57049937 20.82198819 48.6875 20.9375 C46.87898292 20.97176664 45.0703821 21.00194493 43.26171875 21.02734375 C42.46725342 21.04531006 41.67278809 21.06327637 40.85424805 21.08178711 C39 21 39 21 38 20 C37.85884839 17.32941149 37.95752893 14.67567762 38 12 C37.34 11.67 36.68 11.34 36 11 C36 14.3 36 17.6 36 21 C29.33179232 22.56899004 24.29668452 23.31693463 17.5 21.9375 C12.0086581 20.97516925 7.11525451 21.07269908 1.59375 21.7109375 C-4.27093596 22.36453202 -4.27093596 22.36453202 -7 21 C-7.02685412 18.68756208 -7.04632841 16.3750373 -7.0625 14.0625 C-7.07410156 12.77472656 -7.08570313 11.48695312 -7.09765625 10.16015625 C-7 7 -7 7 -6 6 C-4.00041636 5.95919217 -1.99954746 5.95745644 0 6 C0 4.02 0 2.04 0 0 Z M18 10 C18 10.66 18 11.32 18 12 C19.32 11.67 20.64 11.34 22 11 C20.68 10.67 19.36 10.34 18 10 Z M-2 11 C-1.67 12.65 -1.34 14.3 -1 16 C-0.67 16 -0.34 16 0 16 C0 14.35 0 12.7 0 11 C-0.66 11 -1.32 11 -2 11 Z " fill="#373535" transform="translate(7,65)"/>
<path d="M0 0 C0 0.66 0 1.32 0 2 C0.99 2 1.98 2 3 2 C3 1.34 3 0.68 3 0 C4.65 0 6.3 0 8 0 C8 0.66 8 1.32 8 2 C9.65 1.34 11.3 0.68 13 0 C14 1 14 1 14.0625 3.5625 C14.041875 4.366875 14.02125 5.17125 14 6 C15.65 6 17.3 6 19 6 C19.33 6.99 19.66 7.98 20 9 C19.34 9 18.68 9 18 9 C18 9.99 18 10.98 18 12 C18.66 12 19.32 12 20 12 C19.47731534 14.76276177 18.89130413 17.3260876 18 20 C18.66 20 19.32 20 20 20 C19.67 21.32 19.34 22.64 19 24 C17.35 24 15.7 24 14 24 C14 25.32 14 26.64 14 28 C11 29 11 29 8 29 C7.34 29.20625 6.68 29.4125 6 29.625 C4 30 4 30 1 28 C-1.15274948 28.30840599 -1.15274948 28.30840599 -3 29 C-3.33 27.35 -3.66 25.7 -4 24 C-4.639375 23.87625 -5.27875 23.7525 -5.9375 23.625 C-6.9584375 23.315625 -6.9584375 23.315625 -8 23 C-8.33 22.34 -8.66 21.68 -9 21 C-8.67 20.01 -8.34 19.02 -8 18 C-8.66 17.67 -9.32 17.34 -10 17 C-10 15.35 -10 13.7 -10 12 C-9.34 11.67 -8.68 11.34 -8 11 C-8.33 9.35 -8.66 7.7 -9 6 C-7.35 6 -5.7 6 -4 6 C-4 4.35 -4 2.7 -4 1 C-2 0 -2 0 0 0 Z M4 14 C4.66 14.66 5.32 15.32 6 16 C6 15.34 6 14.68 6 14 C5.34 14 4.68 14 4 14 Z " fill="#ED5933" transform="translate(124,47)"/>
<path d="M0 0 C8.3984375 -0.1953125 8.3984375 -0.1953125 11 0 C11.66 0.66 12.32 1.32 13 2 C13.66 1.34 14.32 0.68 15 0 C18.625 -0.125 18.625 -0.125 22 0 C22 1.98 22 3.96 22 6 C22.61488281 5.95359375 23.22976562 5.9071875 23.86328125 5.859375 C30.4676525 5.56444295 30.4676525 5.56444295 33.0625 7.6875 C34.14717075 10.36302119 34.37634655 12.13976624 34 15 C33.34 15.66 32.68 16.32 32 17 C32 18.32 32 19.64 32 21 C29 23 29 23 27.125 22.75 C24.71930124 21.90092985 22.35484786 20.98118661 20 20 C19.67 20.33 19.34 20.66 19 21 C17.58429877 21.08651611 16.164405 21.10704904 14.74609375 21.09765625 C13.9770874 21.09515869 13.20808105 21.09266113 12.41577148 21.09008789 C11.43294189 21.08098389 10.4501123 21.07187988 9.4375 21.0625 C4.7659375 21.0315625 4.7659375 21.0315625 0 21 C0 14.07 0 7.14 0 0 Z " fill="#383535" transform="translate(83,65)"/>
<path d="M0 0 C0 0.66 0 1.32 0 2 C0.99 2 1.98 2 3 2 C3 1.34 3 0.68 3 0 C4.65 0 6.3 0 8 0 C8 0.66 8 1.32 8 2 C9.65 1.34 11.3 0.68 13 0 C13.33 1.32 13.66 2.64 14 4 C12.89591797 3.98259766 12.89591797 3.98259766 11.76953125 3.96484375 C10.30580078 3.95130859 10.30580078 3.95130859 8.8125 3.9375 C7.84957031 3.92589844 6.88664062 3.91429687 5.89453125 3.90234375 C3.14423487 3.99513378 0.67520409 4.37888315 -2 5 C-3.53726353 10.38042235 -3.02230091 14.79979766 -1 20 C2.30480334 22.05433721 5.16485872 22.21915093 9 22 C9 22.99 9 23.98 9 25 C11.62901288 23.47793991 13.84365964 22.15634036 16 20 C16.24360073 16.87185486 16.24360073 16.87185486 16.125 13.375 C16.10695312 12.18648437 16.08890625 10.99796875 16.0703125 9.7734375 C16.04710937 8.85820313 16.02390625 7.94296875 16 7 C15.34 6.67 14.68 6.34 14 6 C15.65 6 17.3 6 19 6 C19.33 6.99 19.66 7.98 20 9 C19.34 9 18.68 9 18 9 C18 9.99 18 10.98 18 12 C18.66 12 19.32 12 20 12 C19.47731534 14.76276177 18.89130413 17.3260876 18 20 C18.66 20 19.32 20 20 20 C19.67 21.32 19.34 22.64 19 24 C17.35 24 15.7 24 14 24 C14 25.32 14 26.64 14 28 C11 29 11 29 8 29 C7.34 29.20625 6.68 29.4125 6 29.625 C4 30 4 30 1 28 C-1.15274948 28.30840599 -1.15274948 28.30840599 -3 29 C-3.33 27.35 -3.66 25.7 -4 24 C-4.639375 23.87625 -5.27875 23.7525 -5.9375 23.625 C-6.9584375 23.315625 -6.9584375 23.315625 -8 23 C-8.33 22.34 -8.66 21.68 -9 21 C-8.67 20.01 -8.34 19.02 -8 18 C-8.66 17.67 -9.32 17.34 -10 17 C-10 15.35 -10 13.7 -10 12 C-9.34 11.67 -8.68 11.34 -8 11 C-8.33 9.35 -8.66 7.7 -9 6 C-7.35 6 -5.7 6 -4 6 C-4 4.35 -4 2.7 -4 1 C-2 0 -2 0 0 0 Z " fill="#DF3D3E" transform="translate(124,47)"/>
<path d="M0 0 C0.721875 0.391875 1.44375 0.78375 2.1875 1.1875 C2.1875 1.8475 2.1875 2.5075 2.1875 3.1875 C3.1775 3.1875 4.1675 3.1875 5.1875 3.1875 C6.09032145 6.71671112 6.43783181 8.59460887 5 12 C3.1875 14.1875 3.1875 14.1875 1.375 15.1875 C-1.90677865 15.1875 -4.03978389 13.85112966 -6.8125 12.1875 C-8.41366344 8.98517312 -8.44055596 5.65239299 -7.8125 2.1875 C-4.97707746 -0.56691046 -3.82910965 -1.10618723 0 0 Z M-3.8125 7.1875 C-3.1525 7.8475 -2.4925 8.5075 -1.8125 9.1875 C-1.8125 8.5275 -1.8125 7.8675 -1.8125 7.1875 C-2.4725 7.1875 -3.1325 7.1875 -3.8125 7.1875 Z " fill="#F38724" transform="translate(131.8125,53.8125)"/>
<path d="M0 0 C2.47923801 -0.02685095 4.9581884 -0.04676547 7.4375 -0.0625 C8.14455078 -0.07087891 8.85160156 -0.07925781 9.58007812 -0.08789062 C11.38693559 -0.09653588 13.19387603 -0.05220011 15 0 C16 1 16 1 16.0625 4.5625 C16.041875 5.696875 16.02125 6.83125 16 8 C13.36 8 10.72 8 8 8 C7.67 6.68 7.34 5.36 7 4 C6.34 4 5.68 4 5 4 C5 5.32 5 6.64 5 8 C3.68 8 2.36 8 1 8 C0.67 5.36 0.34 2.72 0 0 Z " fill="#7B7778" transform="translate(83,89)"/>
<path d="M0 0 C0.99 0.103125 1.98 0.20625 3 0.3125 C5 3.3125 5 3.3125 4.75 5.875 C4 8.3125 4 8.3125 2 10.3125 C-0.625 10.4375 -0.625 10.4375 -3 10.3125 C-3.33 9.6525 -3.66 8.9925 -4 8.3125 C-3.01 7.3225 -2.02 6.3325 -1 5.3125 C-1.99 5.3125 -2.98 5.3125 -4 5.3125 C-4.33 5.9725 -4.66 6.6325 -5 7.3125 C-5.125 4.9375 -5.125 4.9375 -5 2.3125 C-3 0.3125 -3 0.3125 0 0 Z " fill="#F49720" transform="translate(131,55.6875)"/>
<path d="M0 0 C1.65 0 3.3 0 5 0 C2.94766315 2.2477975 1.99332739 3.0022242 -1 4 C-1.50398407 9.26327456 -1.50398407 9.26327456 0.3125 13.9375 C2.13070391 15.17571726 2.13070391 15.17571726 5 16 C5 16.66 5 17.32 5 18 C-1.42791762 17.51487414 -1.42791762 17.51487414 -3.875 15.3125 C-5.21787191 12.55215218 -5.65475314 10.03817241 -6 7 C-5.34 7 -4.68 7 -4 7 C-4.33 6.01 -4.66 5.02 -5 4 C-3.35 3.34 -1.7 2.68 0 2 C0 1.34 0 0.68 0 0 Z " fill="#F16F2C" transform="translate(126,52)"/>
<path d="M0 0 C1.134375 0.020625 2.26875 0.04125 3.4375 0.0625 C3.4375 2.7025 3.4375 5.3425 3.4375 8.0625 C0.7975 8.0625 -1.8425 8.0625 -4.5625 8.0625 C-4.60491723 5.72955225 -4.60342937 3.39547433 -4.5625 1.0625 C-3.5625 0.0625 -3.5625 0.0625 0 0 Z " fill="#7E7C7D" transform="translate(30.5625,88.9375)"/>
<path d="M0 0 C0 2.31 0 4.62 0 7 C-2.64 7 -5.28 7 -8 7 C-8 4.69 -8 2.38 -8 0 C-4.71023192 -1.09658936 -3.28696233 -0.79953138 0 0 Z " fill="#7E7D7E" transform="translate(74,90)"/>
<path d="M0 0 C0 2.31 0 4.62 0 7 C-2.64 7 -5.28 7 -8 7 C-8 4.69 -8 2.38 -8 0 C-4.71023192 -1.09658936 -3.28696233 -0.79953138 0 0 Z " fill="#7F7F80" transform="translate(65,90)"/>
<path d="M0 0 C0 2.64 0 5.28 0 8 C-2.33294775 8.04241723 -4.66702567 8.04092937 -7 8 C-8 7 -8 7 -8.25 4.5625 C-8.1675 3.716875 -8.085 2.87125 -8 2 C-4.77208445 -0.1519437 -3.71599191 -0.20086443 0 0 Z " fill="#7D7C7C" transform="translate(43,89)"/>
<path d="M0 0 C2.5 0.125 2.5 0.125 3.5 1.125 C3.54092937 3.45797433 3.54241723 5.79205225 3.5 8.125 C1.19 8.125 -1.12 8.125 -3.5 8.125 C-3.54241723 5.79205225 -3.54092937 3.45797433 -3.5 1.125 C-2.5 0.125 -2.5 0.125 0 0 Z " fill="#7D7B7C" transform="translate(78.5,88.875)"/>
<path d="M0 0 C0 2.31 0 4.62 0 7 C-2.31 7 -4.62 7 -7 7 C-7 4.69 -7 2.38 -7 0 C-4.3333581 -1.33332095 -2.83319697 -0.67102033 0 0 Z " fill="#7D7B7C" transform="translate(20,90)"/>
<path d="M0 0 C2.00720923 0.28674418 4.0085944 0.61866701 6 1 C6 3.31 6 5.62 6 8 C3.69 8 1.38 8 -1 8 C-1.04241723 5.66705225 -1.04092937 3.33297433 -1 1 C-0.67 0.67 -0.34 0.34 0 0 Z " fill="#7C7979" transform="translate(109,89)"/>
<path d="M0 0 C1.98 0 3.96 0 6 0 C6 2.64 6 5.28 6 8 C4.02 8 2.04 8 0 8 C0 5.36 0 2.72 0 0 Z " fill="#7D7A7B" transform="translate(101,89)"/>
<path d="M0 0 C2.97 0.495 2.97 0.495 6 1 C6 3.31 6 5.62 6 8 C4.02 8 2.04 8 0 8 C0 5.36 0 2.72 0 0 Z " fill="#7F7E7E" transform="translate(0,89)"/>
<path d="M0 0 C2.31 0 4.62 0 7 0 C6.67 2.64 6.34 5.28 6 8 C4.68 8 3.36 8 2 8 C2 6.68 2 5.36 2 4 C1.34 4 0.68 4 0 4 C0 2.68 0 1.36 0 0 Z " fill="#7C797A" transform="translate(49,89)"/>
<path d="M0 0 C1.32 0.33 2.64 0.66 4 1 C4.66 4.3 5.32 7.6 6 11 C5.01 11.33 4.02 11.66 3 12 C2.34 11.01 1.68 10.02 1 9 C1.33 8.01 1.66 7.02 2 6 C1.34 5.67 0.68 5.34 0 5 C0 3.35 0 1.7 0 0 Z " fill="#D33744" transform="translate(114,59)"/>
<path d="M0 0 C0 0.66 0 1.32 0 2 C-0.74765625 1.96519531 -1.4953125 1.93039063 -2.265625 1.89453125 C-3.25046875 1.86746094 -4.2353125 1.84039062 -5.25 1.8125 C-6.22453125 1.77769531 -7.1990625 1.74289063 -8.203125 1.70703125 C-11.41428996 2.04339629 -12.51338627 3.06065382 -15 5 C-15.99 4.67 -16.98 4.34 -18 4 C-13.91643794 -2.12534309 -6.6086847 -2.2028949 0 0 Z " fill="#EB4F36" transform="translate(138,51)"/>
<path d="M0 0 C2.31 0 4.62 0 7 0 C8.34956003 4.0486801 8.33485934 7.78077237 8 12 C6 14 6 14 4 15 C3.67 14.34 3.34 13.68 3 13 C3.495 12.62875 3.99 12.2575 4.5 11.875 C6.59755514 9.25305607 6.21743835 7.26157528 6 4 C5.01 4 4.02 4 3 4 C1.3125 2 1.3125 2 0 0 Z " fill="#EF692E" transform="translate(131,53)"/>
<path d="M0 0 C0.99 0 1.98 0 3 0 C3 2.64 3 5.28 3 8 C1.68 8 0.36 8 -1 8 C-1.04241723 5.66705225 -1.04092937 3.33297433 -1 1 C-0.67 0.67 -0.34 0.34 0 0 Z " fill="#7E7C7D" transform="translate(22,89)"/>
<path d="M0 0 C3.63 0.66 7.26 1.32 11 2 C7.39338934 3.80330533 4.91606575 4.46599103 1 5 C0.67 3.35 0.34 1.7 0 0 Z " fill="#D33843" transform="translate(120,71)"/>
<path d="M0 0 C0.66 0 1.32 0 2 0 C2 2.64 2 5.28 2 8 C0.68 8 -0.64 8 -2 8 C-2.125 5.125 -2.125 5.125 -2 2 C-1.34 1.34 -0.68 0.68 0 0 Z " fill="#7C7375" transform="translate(9,89)"/>
</svg>
