<?xml version="1.0" encoding="UTF-8"?>
<!DOCTYPE svg PUBLIC "-//W3C//DTD SVG 1.1//EN" "http://www.w3.org/Graphics/SVG/1.1/DTD/svg11.dtd">
<svg xmlns="http://www.w3.org/2000/svg" version="1.1" width="128px" height="128px" style="shape-rendering:geometricPrecision; text-rendering:geometricPrecision; image-rendering:optimizeQuality; fill-rule:evenodd; clip-rule:evenodd" xmlns:xlink="http://www.w3.org/1999/xlink">
<g><path style="opacity:0.91" fill="#944b32" d="M 25.5,30.5 C 24.8333,30.5 24.1667,30.5 23.5,30.5C 21.8333,30.5 20.1667,30.5 18.5,30.5C 18.5,30.1667 18.5,29.8333 18.5,29.5C 21.6399,28.3592 24.9733,28.1925 28.5,29C 28.8333,29.3333 29.1667,29.6667 29.5,30C 28.2068,30.49 26.8734,30.6567 25.5,30.5 Z"/></g>
<g><path style="opacity:0.639" fill="#ae705b" d="M 60.5,29.5 C 60.1583,30.3382 59.4916,30.6716 58.5,30.5C 57.8333,30.5 57.1667,30.5 56.5,30.5C 54.1667,30.5 51.8333,30.5 49.5,30.5C 49.5,30.1667 49.5,29.8333 49.5,29.5C 52.9208,28.4528 56.5874,28.4528 60.5,29.5 Z"/></g>
<g><path style="opacity:0.969" fill="#444244" d="M 66.5,29.5 C 65.5,30.8333 64.5,30.8333 63.5,29.5C 64.5,28.1667 65.5,28.1667 66.5,29.5 Z"/></g>
<g><path style="opacity:0.518" fill="#baa593" d="M 92.5,34.5 C 91.0048,34.9887 89.6715,35.6554 88.5,36.5C 87.6618,36.1583 87.3284,35.4916 87.5,34.5C 89.1344,33.7934 90.4677,32.6268 91.5,31C 90.4232,30.5304 89.4232,30.6971 88.5,31.5C 90.0965,28.2546 92.4298,27.7546 95.5,30C 94.7775,31.7505 93.7775,33.2505 92.5,34.5 Z"/></g>
<g><path style="opacity:0.286" fill="#636a69" d="M 105.5,29.5 C 106.675,29.281 107.675,29.6143 108.5,30.5C 106.948,31.7979 105.948,31.4646 105.5,29.5 Z"/></g>
<g><path style="opacity:0.341" fill="#817a74" d="M 3.5,31.5 C 3.83333,32.1667 4.16667,32.8333 4.5,33.5C 3.88258,33.6107 3.38258,33.944 3,34.5C 2.58138,33.3279 1.91471,32.3279 1,31.5C 1.23256,28.9727 2.06589,28.9727 3.5,31.5 Z"/></g>
<g><path style="opacity:0.533" fill="#c1b3ad" d="M 6.5,29.5 C 6.55688,30.609 6.89022,31.609 7.5,32.5C 6.60895,33.1098 5.60895,33.4431 4.5,33.5C 4.16667,32.8333 3.83333,32.1667 3.5,31.5C 4.22235,30.4489 5.22235,29.7822 6.5,29.5 Z"/></g>
<g><path style="opacity:0.592" fill="#836762" d="M 12.5,29.5 C 12.5,30.1667 12.5,30.8333 12.5,31.5C 12.1667,31.5 11.8333,31.5 11.5,31.5C 10.209,31.2627 9.20895,31.596 8.5,32.5C 8.16667,32.5 7.83333,32.5 7.5,32.5C 6.89022,31.609 6.55688,30.609 6.5,29.5C 8.61186,28.7249 10.6119,28.7249 12.5,29.5 Z"/></g>
<g><path style="opacity:0.992" fill="#a8543c" d="M 12.5,29.5 C 14.5,29.5 16.5,29.5 18.5,29.5C 18.5,29.8333 18.5,30.1667 18.5,30.5C 18.1667,31.1667 17.8333,31.8333 17.5,32.5C 16.2921,31.7659 14.9587,31.4326 13.5,31.5C 13.1667,31.5 12.8333,31.5 12.5,31.5C 12.5,30.8333 12.5,30.1667 12.5,29.5 Z"/></g>
<g><path style="opacity:0.996" fill="#9c5d48" d="M 18.5,30.5 C 20.1667,30.5 21.8333,30.5 23.5,30.5C 23.5,31.1667 23.5,31.8333 23.5,32.5C 21.8333,32.5 20.1667,32.5 18.5,32.5C 18.1667,32.5 17.8333,32.5 17.5,32.5C 17.8333,31.8333 18.1667,31.1667 18.5,30.5 Z"/></g>
<g><path style="opacity:0.82" fill="#e1a47f" d="M 49.5,29.5 C 49.5,29.8333 49.5,30.1667 49.5,30.5C 48.2921,31.2341 46.9587,31.5674 45.5,31.5C 44.391,31.5569 43.391,31.8902 42.5,32.5C 42.1667,32.5 41.8333,32.5 41.5,32.5C 43.6174,30.3455 46.284,29.3455 49.5,29.5 Z"/></g>
<g><path style="opacity:0.996" fill="#c46531" d="M 49.5,30.5 C 51.8333,30.5 54.1667,30.5 56.5,30.5C 54.7185,32.357 52.3852,33.357 49.5,33.5C 48.1667,32.8333 46.8333,32.1667 45.5,31.5C 46.9587,31.5674 48.2921,31.2341 49.5,30.5 Z"/></g>
<g><path style="opacity:0.976" fill="#c48a66" d="M 61.5,29.5 C 62.1667,29.5 62.8333,29.5 63.5,29.5C 64.5,30.8333 65.5,30.8333 66.5,29.5C 67.1667,29.8333 67.8333,30.1667 68.5,30.5C 68.5,31.1667 68.5,31.8333 68.5,32.5C 65.6879,32.2331 63.3545,31.2331 61.5,29.5 Z"/></g>
<g><path style="opacity:0.369" fill="#ac8973" d="M 72.5,31.5 C 71.2502,31.5774 70.4169,32.244 70,33.5C 69.6174,32.944 69.1174,32.6107 68.5,32.5C 68.5,31.8333 68.5,31.1667 68.5,30.5C 70.456,28.8249 71.7893,29.1582 72.5,31.5 Z"/></g>
<g><path style="opacity:0.051" fill="#6b6a6a" d="M 121.5,29.5 C 123.288,29.2148 124.955,29.5481 126.5,30.5C 123.714,30.2795 121.714,30.9462 120.5,32.5C 121.11,31.609 121.443,30.609 121.5,29.5 Z"/></g>
<g><path style="opacity:0.996" fill="#bf694d" d="M 13.5,31.5 C 14.9587,31.4326 16.2921,31.7659 17.5,32.5C 17.1667,33.5 16.5,34.1667 15.5,34.5C 14.8333,34.8333 14.1667,35.1667 13.5,35.5C 13.1583,34.6618 12.4916,34.3284 11.5,34.5C 12.6085,33.71 13.9419,33.21 15.5,33C 14.5842,32.7216 13.9175,32.2216 13.5,31.5 Z"/></g>
<g><path style="opacity:0.992" fill="#b06236" d="M 60.5,29.5 C 60.8333,29.5 61.1667,29.5 61.5,29.5C 63.3545,31.2331 65.6879,32.2331 68.5,32.5C 69.1174,32.6107 69.6174,32.944 70,33.5C 70.4169,32.244 71.2502,31.5774 72.5,31.5C 72.5,32.1667 72.8333,32.5 73.5,32.5C 73.7373,33.791 73.404,34.791 72.5,35.5C 72.1583,34.6618 71.4916,34.3284 70.5,34.5C 67.9213,34.1348 65.588,34.1348 63.5,34.5C 63.1667,34.5 62.8333,34.5 62.5,34.5C 61.791,33.596 60.791,33.2627 59.5,33.5C 59.1667,33.5 58.8333,33.5 58.5,33.5C 57.8843,32.7978 57.8843,31.7978 58.5,30.5C 59.4916,30.6716 60.1583,30.3382 60.5,29.5 Z"/></g>
<g><path style="opacity:0.38" fill="#533724" d="M 32.5,29.5 C 32.7678,31.099 32.4345,32.4324 31.5,33.5C 31.1667,33.5 30.8333,33.5 30.5,33.5C 29.9394,31.9345 30.6061,30.6011 32.5,29.5 Z"/></g>
<g><path style="opacity:0.761" fill="#c47555" d="M 56.5,30.5 C 57.1667,30.5 57.8333,30.5 58.5,30.5C 57.8843,31.7978 57.8843,32.7978 58.5,33.5C 57.5946,34.7024 57.5946,36.0357 58.5,37.5C 57.8333,37.5 57.1667,37.5 56.5,37.5C 56.0744,35.7151 54.9078,34.7151 53,34.5C 50.8066,35.0693 48.64,35.4027 46.5,35.5C 46.8212,33.9519 47.8212,33.2852 49.5,33.5C 52.3852,33.357 54.7185,32.357 56.5,30.5 Z"/></g>
<g><path style="opacity:0.016" fill="#373837" d="M 79.5,32.5 C 80.8333,33.1667 80.8333,33.1667 79.5,32.5 Z"/></g>
<g><path style="opacity:0.769" fill="#bc7c58" d="M 87.5,34.5 C 86.2223,34.7822 85.2223,35.4489 84.5,36.5C 84.5,36.1667 84.5,35.8333 84.5,35.5C 83.8333,34.8333 83.1667,34.1667 82.5,33.5C 84.3146,32.3702 86.3146,31.7036 88.5,31.5C 89.4232,30.6971 90.4232,30.5304 91.5,31C 90.4677,32.6268 89.1344,33.7934 87.5,34.5 Z"/></g>
<g><path style="opacity:0.043" fill="#2a2929" d="M 97.5,32.5 C 100.001,32.5109 100.168,33.1776 98,34.5C 97.5357,33.9056 97.369,33.2389 97.5,32.5 Z"/></g>
<g><path style="opacity:0.996" fill="#9d3e20" d="M 11.5,31.5 C 11.8333,31.5 12.1667,31.5 12.5,31.5C 12.8333,31.5 13.1667,31.5 13.5,31.5C 13.9175,32.2216 14.5842,32.7216 15.5,33C 13.9419,33.21 12.6085,33.71 11.5,34.5C 10.6236,34.6309 9.95689,34.2975 9.5,33.5C 10.2427,32.8182 10.9094,32.1515 11.5,31.5 Z"/></g>
<g><path style="opacity:0.141" fill="#c1a7a0" d="M 23.5,30.5 C 24.1667,30.5 24.8333,30.5 25.5,30.5C 26.1667,31.5 26.8333,32.5 27.5,33.5C 25.3023,33.4088 24.9689,34.0755 26.5,35.5C 26.8333,36.1667 27.1667,36.8333 27.5,37.5C 27.5,37.8333 27.5,38.1667 27.5,38.5C 26.8333,38.5 26.1667,38.5 25.5,38.5C 25.6716,37.5084 25.3382,36.8417 24.5,36.5C 24.1667,35.1667 23.8333,33.8333 23.5,32.5C 23.5,31.8333 23.5,31.1667 23.5,30.5 Z"/></g>
<g><path style="opacity:0.996" fill="#ac5636" d="M 32.5,29.5 C 33.5,29.5 34.5,29.5 35.5,29.5C 34.7093,31.6907 34.7093,33.6907 35.5,35.5C 35.5,36.1667 35.1667,36.5 34.5,36.5C 33.5,36.5 32.5,36.5 31.5,36.5C 31.5,35.5 31.5,34.5 31.5,33.5C 32.4345,32.4324 32.7678,31.099 32.5,29.5 Z"/></g>
<g><path style="opacity:0.557" fill="#8b5b4c" d="M 37.5,33.5 C 37.5,33.8333 37.5,34.1667 37.5,34.5C 36.8333,34.5 36.5,34.8333 36.5,35.5C 36.1667,35.5 35.8333,35.5 35.5,35.5C 34.7093,33.6907 34.7093,31.6907 35.5,29.5C 34.5,29.5 33.5,29.5 32.5,29.5C 33.0024,27.9153 34.0024,27.4153 35.5,28C 36.1094,29.9483 36.776,31.7816 37.5,33.5 Z"/></g>
<g><path style="opacity:0.031" fill="#aa7a6b" d="M 41.5,32.5 C 39.4707,34.8585 37.4707,37.1918 35.5,39.5C 35.8333,38.1667 36.1667,36.8333 36.5,35.5C 37.1667,35.5 37.5,35.1667 37.5,34.5C 37.5,34.1667 37.5,33.8333 37.5,33.5C 38.8333,33.1667 40.1667,32.8333 41.5,32.5 Z"/></g>
<g><path style="opacity:0.996" fill="#b1582d" d="M 45.5,31.5 C 46.8333,32.1667 48.1667,32.8333 49.5,33.5C 47.8212,33.2852 46.8212,33.9519 46.5,35.5C 45.1667,35.8333 43.8333,36.1667 42.5,36.5C 41.6457,35.3684 41.6457,34.035 42.5,32.5C 43.391,31.8902 44.391,31.5569 45.5,31.5 Z"/></g>
<g><path style="opacity:0.584" fill="#a7847c" d="M 121.5,29.5 C 121.443,30.609 121.11,31.609 120.5,32.5C 119.399,34.3939 118.066,35.0606 116.5,34.5C 116.5,33.8333 116.5,33.1667 116.5,32.5C 117.486,30.5923 119.152,29.5923 121.5,29.5 Z"/></g>
<g><path style="opacity:0.357" fill="#a19091" d="M 7.5,34.5 C 8.83333,35.1667 8.83333,35.8333 7.5,36.5C 4.83333,35.8333 4.83333,35.1667 7.5,34.5 Z"/></g>
<g><path style="opacity:0.463" fill="#d0a695" d="M 27.5,33.5 C 28.5,33.5 29.5,33.5 30.5,33.5C 30.7373,34.791 30.404,35.791 29.5,36.5C 28.791,35.596 27.791,35.2627 26.5,35.5C 24.9689,34.0755 25.3023,33.4088 27.5,33.5 Z"/></g>
<g><path style="opacity:1" fill="#ce7f50" d="M 63.5,34.5 C 65.588,34.1348 67.9213,34.1348 70.5,34.5C 70.4431,35.609 70.1098,36.609 69.5,37.5C 67.5,36.5 65.5,35.5 63.5,34.5 Z"/></g>
<g><path style="opacity:1" fill="#b35736" d="M 11.5,31.5 C 10.9094,32.1515 10.2427,32.8182 9.5,33.5C 9.95689,34.2975 10.6236,34.6309 11.5,34.5C 12.4916,34.3284 13.1583,34.6618 13.5,35.5C 13.5,36.8333 13.5,38.1667 13.5,39.5C 13.5,39.8333 13.5,40.1667 13.5,40.5C 13.6716,41.4916 13.3382,42.1583 12.5,42.5C 12.5,41.8333 12.5,41.1667 12.5,40.5C 12.5,39.5 12.5,38.5 12.5,37.5C 10.8333,37.5 9.16667,37.5 7.5,37.5C 7.5,37.1667 7.5,36.8333 7.5,36.5C 8.83333,35.8333 8.83333,35.1667 7.5,34.5C 7.83333,33.8333 8.16667,33.1667 8.5,32.5C 9.20895,31.596 10.209,31.2627 11.5,31.5 Z"/></g>
<g><path style="opacity:0.255" fill="#c5b5a7" d="M 15.5,34.5 C 15.8333,35.8333 16.1667,37.1667 16.5,38.5C 15.8333,38.5 15.5,38.8333 15.5,39.5C 14.8333,39.5 14.1667,39.5 13.5,39.5C 13.5,38.1667 13.5,36.8333 13.5,35.5C 14.1667,35.1667 14.8333,34.8333 15.5,34.5 Z"/></g>
<g><path style="opacity:0.039" fill="#6a6060" d="M 18.5,32.5 C 20.1667,32.5 21.8333,32.5 23.5,32.5C 23.8333,33.8333 24.1667,35.1667 24.5,36.5C 22.8008,36.3398 21.1341,36.5065 19.5,37C 20.0442,37.7172 20.7109,38.2172 21.5,38.5C 21.5,38.8333 21.5,39.1667 21.5,39.5C 20.8333,39.5 20.1667,39.5 19.5,39.5C 18.0882,37.7697 18.4215,36.2697 20.5,35C 19.244,34.5831 18.5774,33.7498 18.5,32.5 Z"/></g>
<g><path style="opacity:0.996" fill="#c46839" d="M 41.5,32.5 C 41.8333,32.5 42.1667,32.5 42.5,32.5C 41.6457,34.035 41.6457,35.3684 42.5,36.5C 42.5,36.8333 42.5,37.1667 42.5,37.5C 41.8333,37.8333 41.1667,38.1667 40.5,38.5C 40.5654,38.0618 40.3988,37.7284 40,37.5C 39.3632,39.3031 38.1965,40.6364 36.5,41.5C 35.7025,41.0431 35.3691,40.3764 35.5,39.5C 37.4707,37.1918 39.4707,34.8585 41.5,32.5 Z"/></g>
<g><path style="opacity:0.996" fill="#bd693b" d="M 70.5,34.5 C 71.4916,34.3284 72.1583,34.6618 72.5,35.5C 72.8212,37.0481 73.8212,37.7148 75.5,37.5C 75.8333,38.8333 76.1667,40.1667 76.5,41.5C 76.1667,41.5 75.8333,41.5 75.5,41.5C 74.656,39.2407 72.9893,38.2407 70.5,38.5C 69.8333,38.5 69.5,38.1667 69.5,37.5C 70.1098,36.609 70.4431,35.609 70.5,34.5 Z"/></g>
<g><path style="opacity:0.031" fill="#3e342f" d="M 74.5,34.5 C 76.2161,34.6287 77.8828,34.962 79.5,35.5C 79.5,36.5 79.5,37.5 79.5,38.5C 78.391,38.4431 77.391,38.1098 76.5,37.5C 75.8333,36.5 75.1667,35.5 74.5,34.5 Z"/></g>
<g><path style="opacity:0.2" fill="#424344" d="M 92.5,34.5 C 93.675,34.281 94.675,34.6143 95.5,35.5C 93.9483,36.7979 92.9483,36.4646 92.5,34.5 Z"/></g>
<g><path style="opacity:0.325" fill="#b68574" d="M 116.5,32.5 C 116.5,33.1667 116.5,33.8333 116.5,34.5C 116.068,35.7095 115.401,36.7095 114.5,37.5C 114.196,35.2043 113.196,34.871 111.5,36.5C 111.238,35.0222 111.571,33.6888 112.5,32.5C 113.865,33.8069 115.198,33.8069 116.5,32.5 Z"/></g>
<g><path style="opacity:0.086" fill="#7b7675" d="M 120.5,34.5 C 122.337,34.6395 122.67,35.3061 121.5,36.5C 120.702,36.0431 120.369,35.3764 120.5,34.5 Z"/></g>
<g><path style="opacity:0.992" fill="#c57b5c" d="M 30.5,33.5 C 30.8333,33.5 31.1667,33.5 31.5,33.5C 31.5,34.5 31.5,35.5 31.5,36.5C 32.5,36.5 33.5,36.5 34.5,36.5C 34.6716,37.4916 34.3382,38.1583 33.5,38.5C 31.5,37.1667 29.5,37.1667 27.5,38.5C 27.5,38.1667 27.5,37.8333 27.5,37.5C 28.1667,37.1667 28.8333,36.8333 29.5,36.5C 30.404,35.791 30.7373,34.791 30.5,33.5 Z"/></g>
<g><path style="opacity:0.996" fill="#b16e42" d="M 73.5,32.5 C 74.3382,32.8417 74.6716,33.5084 74.5,34.5C 75.1667,35.5 75.8333,36.5 76.5,37.5C 76.1667,37.5 75.8333,37.5 75.5,37.5C 73.8212,37.7148 72.8212,37.0481 72.5,35.5C 73.404,34.791 73.7373,33.791 73.5,32.5 Z"/></g>
<g><path style="opacity:0.043" fill="#8d7669" d="M 82.5,33.5 C 83.1667,34.1667 83.8333,34.8333 84.5,35.5C 83.8333,35.5 83.5,35.8333 83.5,36.5C 83.5,37.1667 83.5,37.8333 83.5,38.5C 82.2921,39.2341 80.9587,39.5674 79.5,39.5C 79.5,39.1667 79.5,38.8333 79.5,38.5C 79.5,37.5 79.5,36.5 79.5,35.5C 80.1174,35.6107 80.6174,35.944 81,36.5C 81.2321,35.2625 81.7321,34.2625 82.5,33.5 Z"/></g>
<g><path style="opacity:0.937" fill="#b76c5a" d="M 111.5,36.5 C 113.196,34.871 114.196,35.2043 114.5,37.5C 113.662,37.8417 113.328,38.5084 113.5,39.5C 111.638,37.5252 109.638,37.1919 107.5,38.5C 106.5,38.1667 105.833,37.5 105.5,36.5C 107.359,36.1121 109.359,36.1121 111.5,36.5 Z"/></g>
<g><path style="opacity:0.039" fill="#59544c" d="M 0.5,35.5 C 1.99525,35.4148 2.99525,36.0815 3.5,37.5C 1.60435,38.6394 0.604346,37.9728 0.5,35.5 Z"/></g>
<g><path style="opacity:0.992" fill="#914927" d="M 33.5,38.5 C 33.0825,39.2216 32.4158,39.7216 31.5,40C 32.056,40.3826 32.3893,40.8826 32.5,41.5C 31.5,41.5 30.5,41.5 29.5,41.5C 27.8479,40.114 26.5146,39.114 25.5,38.5C 26.1667,38.5 26.8333,38.5 27.5,38.5C 29.5,37.1667 31.5,37.1667 33.5,38.5 Z"/></g>
<g><path style="opacity:0.325" fill="#ae9e95" d="M 58.5,33.5 C 58.8333,33.5 59.1667,33.5 59.5,33.5C 59.369,34.2389 59.5357,34.9056 60,35.5C 60.6708,34.7476 61.5041,34.4142 62.5,34.5C 62.5,35.8333 62.5,37.1667 62.5,38.5C 61.0413,38.5674 59.7079,38.2341 58.5,37.5C 57.5946,36.0357 57.5946,34.7024 58.5,33.5 Z"/></g>
<g><path style="opacity:0.996" fill="#c26d3f" d="M 87.5,34.5 C 87.3284,35.4916 87.6618,36.1583 88.5,36.5C 88.0825,37.2216 87.4158,37.7216 86.5,38C 86.7284,38.3988 87.0618,38.5654 87.5,38.5C 87.5,38.8333 87.5,39.1667 87.5,39.5C 86.8333,39.5 86.5,39.8333 86.5,40.5C 86.1667,40.5 85.8333,40.5 85.5,40.5C 85.5,39.1667 84.8333,38.5 83.5,38.5C 83.5,37.8333 83.5,37.1667 83.5,36.5C 83.8333,36.5 84.1667,36.5 84.5,36.5C 85.2223,35.4489 86.2223,34.7822 87.5,34.5 Z"/></g>
<g><path style="opacity:0.075" fill="#b5b6b4" d="M 56.5,37.5 C 57.1667,37.5 57.8333,37.5 58.5,37.5C 56.5586,41.5085 55.8919,41.5085 56.5,37.5 Z"/></g>
<g><path style="opacity:0.996" fill="#b37d63" d="M 70.5,38.5 C 72.9893,38.2407 74.656,39.2407 75.5,41.5C 73.9826,41.4894 72.8159,40.8228 72,39.5C 71.3292,40.2524 70.4959,40.5858 69.5,40.5C 69.8333,39.8333 70.1667,39.1667 70.5,38.5 Z"/></g>
<g><path style="opacity:0.953" fill="#b25929" d="M 75.5,37.5 C 75.8333,37.5 76.1667,37.5 76.5,37.5C 77.391,38.1098 78.391,38.4431 79.5,38.5C 79.5,38.8333 79.5,39.1667 79.5,39.5C 78.6618,39.8417 78.3284,40.5084 78.5,41.5C 77.8333,41.5 77.1667,41.5 76.5,41.5C 76.1667,40.1667 75.8333,38.8333 75.5,37.5 Z"/></g>
<g><path style="opacity:0.975" fill="#b87252" d="M 113.5,39.5 C 112.207,39.8746 110.874,40.2079 109.5,40.5C 109.158,39.6618 108.492,39.3284 107.5,39.5C 107.5,39.1667 107.5,38.8333 107.5,38.5C 109.638,37.1919 111.638,37.5252 113.5,39.5 Z"/></g>
<g><path style="opacity:0.996" fill="#ae461e" d="M 7.5,37.5 C 9.16667,37.5 10.8333,37.5 12.5,37.5C 12.5,38.5 12.5,39.5 12.5,40.5C 11.1667,40.5 9.83333,40.5 8.5,40.5C 8.5,41.5 8.5,42.5 8.5,43.5C 8.5,44.1667 8.16667,44.5 7.5,44.5C 7.15013,42.3742 7.15013,40.0408 7.5,37.5 Z"/></g>
<g><path style="opacity:0.996" fill="#a35b34" d="M 24.5,36.5 C 25.3382,36.8417 25.6716,37.5084 25.5,38.5C 26.5146,39.114 27.8479,40.114 29.5,41.5C 29.1667,41.5 28.8333,41.5 28.5,41.5C 28.1667,41.5 27.8333,41.5 27.5,41.5C 27.1667,41.5 26.8333,41.5 26.5,41.5C 26.1667,41.5 25.8333,41.5 25.5,41.5C 24.1667,40.8333 22.8333,40.1667 21.5,39.5C 21.5,39.1667 21.5,38.8333 21.5,38.5C 23.0269,38.573 24.0269,37.9063 24.5,36.5 Z"/></g>
<g><path style="opacity:0.996" fill="#bf5e2c" d="M 83.5,38.5 C 84.8333,38.5 85.5,39.1667 85.5,40.5C 85.5,40.8333 85.5,41.1667 85.5,41.5C 85.5,41.8333 85.5,42.1667 85.5,42.5C 83.0504,42.702 80.717,42.3686 78.5,41.5C 78.3284,40.5084 78.6618,39.8417 79.5,39.5C 80.9587,39.5674 82.2921,39.2341 83.5,38.5 Z"/></g>
<g><path style="opacity:0.173" fill="#bc8764" d="M 88.5,36.5 C 89.8333,37.5 91.1667,38.5 92.5,39.5C 90.7354,40.4614 88.7354,40.7947 86.5,40.5C 86.5,39.8333 86.8333,39.5 87.5,39.5C 88.8333,39.1667 88.8333,38.8333 87.5,38.5C 87.0618,38.5654 86.7284,38.3988 86.5,38C 87.4158,37.7216 88.0825,37.2216 88.5,36.5 Z"/></g>
<g><path style="opacity:0.675" fill="#946c5a" d="M 105.5,36.5 C 105.833,37.5 106.5,38.1667 107.5,38.5C 107.5,38.8333 107.5,39.1667 107.5,39.5C 106.167,39.8333 104.833,40.1667 103.5,40.5C 103.167,40.5 102.833,40.5 102.5,40.5C 102.5,40.1667 102.5,39.8333 102.5,39.5C 104.648,39.6106 104.981,38.944 103.5,37.5C 104.036,35.8551 104.703,35.5218 105.5,36.5 Z"/></g>
<g><path style="opacity:0.024" fill="#494443" d="M 121.5,38.5 C 122.525,38.8966 122.692,39.5632 122,40.5C 121.536,39.9056 121.369,39.2389 121.5,38.5 Z"/></g>
<g><path style="opacity:0.996" fill="#d07d46" d="M 19.5,40.5 C 19.5,40.1667 19.5,39.8333 19.5,39.5C 20.1667,39.5 20.8333,39.5 21.5,39.5C 22.8333,40.1667 24.1667,40.8333 25.5,41.5C 24.791,42.404 23.791,42.7373 22.5,42.5C 21.7095,41.5987 20.7095,40.9321 19.5,40.5 Z"/></g>
<g><path style="opacity:0.984" fill="#a44621" d="M 40.5,38.5 C 40.2671,40.0618 39.6005,41.3951 38.5,42.5C 38.1667,42.5 37.8333,42.5 37.5,42.5C 36.209,42.7373 35.209,42.404 34.5,41.5C 34.3284,40.5084 34.6618,39.8417 35.5,39.5C 35.3691,40.3764 35.7025,41.0431 36.5,41.5C 38.1965,40.6364 39.3632,39.3031 40,37.5C 40.3988,37.7284 40.5654,38.0618 40.5,38.5 Z"/></g>
<g><path style="opacity:0.239" fill="#bc9182" d="M 42.5,37.5 C 42.2072,38.6434 42.2072,39.9767 42.5,41.5C 41.3984,42.1757 40.3984,42.8423 39.5,43.5C 38.8333,43.5 38.5,43.1667 38.5,42.5C 39.6005,41.3951 40.2671,40.0618 40.5,38.5C 41.1667,38.1667 41.8333,37.8333 42.5,37.5 Z"/></g>
<g><path style="opacity:0.071" fill="#381d19" d="M 44.5,39.5 C 45.2891,39.7828 45.9558,40.2828 46.5,41C 45.184,41.5281 44.5173,41.0281 44.5,39.5 Z"/></g>
<g><path style="opacity:0.031" fill="#201a19" d="M 65.5,40.5 C 65.5,41.1667 65.1667,41.5 64.5,41.5C 63.9569,41.44 63.6236,41.1067 63.5,40.5C 64.2565,39.2267 64.9232,39.2267 65.5,40.5 Z"/></g>
<g><path style="opacity:0.729" fill="#936041" d="M 102.5,39.5 C 102.5,39.8333 102.5,40.1667 102.5,40.5C 99.9039,41.2653 97.2372,41.5987 94.5,41.5C 94.5,40.5 94.5,39.5 94.5,38.5C 95.1499,38.1961 95.8165,37.8627 96.5,37.5C 98.5622,39.1099 100.562,39.7766 102.5,39.5 Z"/></g>
<g><path style="opacity:0.992" fill="#b96542" d="M 107.5,39.5 C 108.492,39.3284 109.158,39.6618 109.5,40.5C 107.152,40.5923 105.486,41.5923 104.5,43.5C 104.167,43.5 103.833,43.5 103.5,43.5C 103.5,43.1667 103.5,42.8333 103.5,42.5C 103.5,41.8333 103.5,41.1667 103.5,40.5C 104.833,40.1667 106.167,39.8333 107.5,39.5 Z"/></g>
<g><path style="opacity:0.02" fill="#2e2e2e" d="M 2.5,42.5 C 2.89657,41.475 3.56323,41.3083 4.5,42C 3.90558,42.4643 3.23891,42.631 2.5,42.5 Z"/></g>
<g><path style="opacity:0.694" fill="#684a40" d="M 16.5,38.5 C 17.2223,39.5511 18.2223,40.2178 19.5,40.5C 19.0113,41.9952 18.3446,43.3285 17.5,44.5C 17.6716,43.5084 17.3382,42.8417 16.5,42.5C 16.4431,41.391 16.1098,40.391 15.5,39.5C 15.5,38.8333 15.8333,38.5 16.5,38.5 Z"/></g>
<g><path style="opacity:0.996" fill="#aa441a" d="M 19.5,40.5 C 20.7095,40.9321 21.7095,41.5987 22.5,42.5C 21.6618,42.8417 21.3284,43.5084 21.5,44.5C 20.6618,44.8417 20.3284,45.5084 20.5,46.5C 18.8333,45.1667 17.1667,45.1667 15.5,46.5C 15.5,46.1667 15.5,45.8333 15.5,45.5C 16.1667,45.5 16.5,45.1667 16.5,44.5C 16.8333,44.5 17.1667,44.5 17.5,44.5C 18.3446,43.3285 19.0113,41.9952 19.5,40.5 Z"/></g>
<g><path style="opacity:0.11" fill="#af907f" d="M 50.5,43.5 C 50.1667,43.5 49.8333,43.5 49.5,43.5C 49.3433,42.1266 49.51,40.7932 50,39.5C 50.3542,41.8075 51.3542,42.1408 53,40.5C 54.2798,40.6135 55.1131,41.2801 55.5,42.5C 53.7855,42.5951 52.1188,42.9284 50.5,43.5 Z"/></g>
<g><path style="opacity:0.875" fill="#c4876e" d="M 75.5,41.5 C 75.8333,41.5 76.1667,41.5 76.5,41.5C 77.1667,41.5 77.8333,41.5 78.5,41.5C 80.717,42.3686 83.0504,42.702 85.5,42.5C 85.6716,43.4916 85.3382,44.1583 84.5,44.5C 81.4083,43.816 78.4083,42.816 75.5,41.5 Z"/></g>
<g><path style="opacity:0.961" fill="#b97353" d="M 85.5,41.5 C 87.7638,42.2186 90.0971,42.552 92.5,42.5C 92.5,42.8333 92.5,43.1667 92.5,43.5C 90.712,43.2148 89.0453,43.5481 87.5,44.5C 87.8627,45.1835 88.1961,45.8501 88.5,46.5C 87.0413,46.5674 85.7079,46.2341 84.5,45.5C 84.5,45.1667 84.5,44.8333 84.5,44.5C 85.3382,44.1583 85.6716,43.4916 85.5,42.5C 85.5,42.1667 85.5,41.8333 85.5,41.5 Z"/></g>
<g><path style="opacity:0.984" fill="#be6131" d="M 94.5,38.5 C 94.5,39.5 94.5,40.5 94.5,41.5C 97.2372,41.5987 99.9039,41.2653 102.5,40.5C 102.833,40.5 103.167,40.5 103.5,40.5C 103.5,41.1667 103.5,41.8333 103.5,42.5C 99.8333,42.5 96.1667,42.5 92.5,42.5C 90.0971,42.552 87.7638,42.2186 85.5,41.5C 85.5,41.1667 85.5,40.8333 85.5,40.5C 85.8333,40.5 86.1667,40.5 86.5,40.5C 88.7354,40.7947 90.7354,40.4614 92.5,39.5C 93.1667,39.1667 93.8333,38.8333 94.5,38.5 Z"/></g>
<g><path style="opacity:0.039" fill="#b06e58" d="M 109.5,40.5 C 109.5,41.5 109.5,42.5 109.5,43.5C 107.833,43.5 106.167,43.5 104.5,43.5C 105.486,41.5923 107.152,40.5923 109.5,40.5 Z"/></g>
<g><path style="opacity:0.998" fill="#c04b0d" d="M 12.5,40.5 C 12.5,41.1667 12.5,41.8333 12.5,42.5C 11.2921,43.2341 9.95875,43.5674 8.5,43.5C 8.5,42.5 8.5,41.5 8.5,40.5C 9.83333,40.5 11.1667,40.5 12.5,40.5 Z"/></g>
<g><path style="opacity:0.996" fill="#b35a30" d="M 32.5,41.5 C 33.1667,41.5 33.8333,41.5 34.5,41.5C 35.209,42.404 36.209,42.7373 37.5,42.5C 37.1667,43.1667 36.8333,43.8333 36.5,44.5C 35.1667,44.8333 33.8333,45.1667 32.5,45.5C 31.791,44.596 30.791,44.2627 29.5,44.5C 29.5,44.1667 29.5,43.8333 29.5,43.5C 29.5,43.1667 29.5,42.8333 29.5,42.5C 30.791,42.7373 31.791,42.404 32.5,41.5 Z"/></g>
<g><path style="opacity:0.482" fill="#94502d" d="M 92.5,42.5 C 96.1667,42.5 99.8333,42.5 103.5,42.5C 103.5,42.8333 103.5,43.1667 103.5,43.5C 99.6634,43.9659 95.9968,43.9659 92.5,43.5C 92.5,43.1667 92.5,42.8333 92.5,42.5 Z"/></g>
<g><path style="opacity:0.004" fill="#79776f" d="M 65.5,40.5 C 66.7024,41.4054 68.0357,41.4054 69.5,40.5C 68.0304,44.7689 66.3637,45.1022 64.5,41.5C 65.1667,41.5 65.5,41.1667 65.5,40.5 Z"/></g>
<g><path style="opacity:0.086" fill="#798280" d="M 109.5,43.5 C 111.225,43.8425 111.725,44.8425 111,46.5C 109.961,45.7562 109.461,44.7562 109.5,43.5 Z"/></g>
<g><path style="opacity:0.098" fill="#b8784a" d="M 13.5,40.5 C 14.2223,41.5511 15.2223,42.2178 16.5,42.5C 16.5,43.1667 16.5,43.8333 16.5,44.5C 15.8333,44.5 15.5,44.8333 15.5,45.5C 13.8564,45.1898 12.8564,44.1898 12.5,42.5C 13.3382,42.1583 13.6716,41.4916 13.5,40.5 Z"/></g>
<g><path style="opacity:0.529" fill="#724632" d="M 25.5,41.5 C 25.8333,41.5 26.1667,41.5 26.5,41.5C 26.8333,42.8333 27.1667,42.8333 27.5,41.5C 27.8333,41.5 28.1667,41.5 28.5,41.5C 28.5,42.1667 28.8333,42.5 29.5,42.5C 29.5,42.8333 29.5,43.1667 29.5,43.5C 28.8333,43.5 28.1667,43.5 27.5,43.5C 26.1266,43.3433 24.7932,43.51 23.5,44C 24.2524,44.6708 24.5858,45.5041 24.5,46.5C 23.8333,46.5 23.5,46.8333 23.5,47.5C 22.8333,47.5 22.5,47.1667 22.5,46.5C 22.5,45.8333 22.1667,45.5 21.5,45.5C 21.5,45.1667 21.5,44.8333 21.5,44.5C 21.3284,43.5084 21.6618,42.8417 22.5,42.5C 23.791,42.7373 24.791,42.404 25.5,41.5 Z"/></g>
<g><path style="opacity:0.729" fill="#a8715b" d="M 36.5,44.5 C 36.5,44.8333 36.5,45.1667 36.5,45.5C 35.7375,46.2679 34.7375,46.7679 33.5,47C 34.0442,47.7172 34.7109,48.2172 35.5,48.5C 35.5,48.8333 35.5,49.1667 35.5,49.5C 34.8333,49.5 34.1667,49.5 33.5,49.5C 32.6043,48.4937 31.9377,48.4937 31.5,49.5C 31.1667,49.5 30.8333,49.5 30.5,49.5C 30.5,48.8333 30.5,48.1667 30.5,47.5C 31.5,47.1667 32.1667,46.5 32.5,45.5C 33.8333,45.1667 35.1667,44.8333 36.5,44.5 Z"/></g>
<g><path style="opacity:0.6" fill="#ba6e4d" d="M 37.5,42.5 C 37.8333,42.5 38.1667,42.5 38.5,42.5C 38.5,43.1667 38.8333,43.5 39.5,43.5C 40.4054,44.9643 40.4054,46.2976 39.5,47.5C 38.8333,47.5 38.1667,47.5 37.5,47.5C 39.0311,46.0755 38.6977,45.4088 36.5,45.5C 36.5,45.1667 36.5,44.8333 36.5,44.5C 36.8333,43.8333 37.1667,43.1667 37.5,42.5 Z"/></g>
<g><path style="opacity:0.925" fill="#8f4727" d="M 49.5,43.5 C 49.8333,43.5 50.1667,43.5 50.5,43.5C 50.5,43.8333 50.5,44.1667 50.5,44.5C 49.791,45.404 48.791,45.7373 47.5,45.5C 47.1667,45.5 46.8333,45.5 46.5,45.5C 45.5084,45.6716 44.8417,45.3382 44.5,44.5C 45.9187,43.5489 47.5853,43.2155 49.5,43.5 Z"/></g>
<g><path style="opacity:0.137" fill="#2e2e2d" d="M 56.5,43.5 C 58.337,43.6395 58.6704,44.3061 57.5,45.5C 56.7025,45.0431 56.3691,44.3764 56.5,43.5 Z"/></g>
<g><path style="opacity:0.482" fill="#a58a79" d="M 74.5,44.5 C 74.5,45.1667 74.5,45.8333 74.5,46.5C 73.8333,46.5 73.1667,46.5 72.5,46.5C 70.5,46.5 69.5,47.5 69.5,49.5C 69.5,49.8333 69.5,50.1667 69.5,50.5C 68.8333,50.5 68.1667,50.5 67.5,50.5C 66.5,50.5 65.5,50.5 64.5,50.5C 64.5,49.8333 64.5,49.1667 64.5,48.5C 66.9433,47.8913 68.61,46.3913 69.5,44C 71.1966,43.6155 72.8632,43.7822 74.5,44.5 Z"/></g>
<g><path style="opacity:0.996" fill="#b9440e" d="M 12.5,42.5 C 12.8564,44.1898 13.8564,45.1898 15.5,45.5C 15.5,45.8333 15.5,46.1667 15.5,46.5C 14.8333,46.5 14.5,46.8333 14.5,47.5C 12.6208,46.6586 10.6208,46.3253 8.5,46.5C 8.16667,45.8333 7.83333,45.1667 7.5,44.5C 8.16667,44.5 8.5,44.1667 8.5,43.5C 9.95875,43.5674 11.2921,43.2341 12.5,42.5 Z"/></g>
<g><path style="opacity:0.733" fill="#a95b32" d="M 27.5,43.5 C 28.1667,43.5 28.8333,43.5 29.5,43.5C 29.5,43.8333 29.5,44.1667 29.5,44.5C 28.5,44.8333 27.8333,45.5 27.5,46.5C 25.8583,48.0808 23.8583,48.7475 21.5,48.5C 20.6618,48.1583 20.3284,47.4916 20.5,46.5C 20.3284,45.5084 20.6618,44.8417 21.5,44.5C 21.5,44.8333 21.5,45.1667 21.5,45.5C 22.1667,45.5 22.5,45.8333 22.5,46.5C 22.5,47.1667 22.8333,47.5 23.5,47.5C 24.1667,47.5 24.5,47.1667 24.5,46.5C 25.8333,45.8333 26.8333,44.8333 27.5,43.5 Z"/></g>
<g><path style="opacity:0.996" fill="#ad4b1c" d="M 29.5,44.5 C 30.791,44.2627 31.791,44.596 32.5,45.5C 32.1667,46.5 31.5,47.1667 30.5,47.5C 29.791,46.596 28.791,46.2627 27.5,46.5C 27.8333,45.5 28.5,44.8333 29.5,44.5 Z"/></g>
<g><path style="opacity:0.855" fill="#d07d51" d="M 39.5,43.5 C 40.7079,44.2341 42.0413,44.5674 43.5,44.5C 42.9653,46.4456 41.632,47.4456 39.5,47.5C 40.4054,46.2976 40.4054,44.9643 39.5,43.5 Z"/></g>
<g><path style="opacity:0.99" fill="#b2612b" d="M 79.5,45.5 C 81.1667,45.5 82.8333,45.5 84.5,45.5C 85.7079,46.2341 87.0413,46.5674 88.5,46.5C 89.4916,46.3284 90.1583,46.6618 90.5,47.5C 90.4431,48.609 90.1098,49.609 89.5,50.5C 89.5654,50.9382 89.3988,51.2716 89,51.5C 88.5831,50.244 87.7498,49.5774 86.5,49.5C 86.38,48.4138 85.7133,47.7472 84.5,47.5C 83.5836,47.5427 82.9169,47.8761 82.5,48.5C 80.8102,48.1436 79.8102,47.1436 79.5,45.5 Z"/></g>
<g><path style="opacity:0.031" fill="#474948" d="M 100.5,45.5 C 102.58,46.0444 104.58,46.8777 106.5,48C 103.531,49.9115 101.531,49.0782 100.5,45.5 Z"/></g>
<g><path style="opacity:0.663" fill="#c6857f" d="M 113.5,46.5 C 114.167,46.5 114.5,46.8333 114.5,47.5C 114.328,48.4916 114.662,49.1583 115.5,49.5C 115.5,49.8333 115.5,50.1667 115.5,50.5C 114.833,51.1667 114.167,51.8333 113.5,52.5C 113.167,52.5 112.833,52.5 112.5,52.5C 112.539,51.4168 112.873,50.4168 113.5,49.5C 110.875,48.4657 110.875,47.4657 113.5,46.5 Z"/></g>
<g><path style="opacity:0.996" fill="#c55821" d="M 8.5,46.5 C 10.6208,46.3253 12.6208,46.6586 14.5,47.5C 14.5,47.8333 14.5,48.1667 14.5,48.5C 13.2976,49.4054 11.9643,49.4054 10.5,48.5C 9.5,48.1667 8.83333,47.5 8.5,46.5 Z"/></g>
<g><path style="opacity:0.998" fill="#ba5728" d="M 43.5,44.5 C 43.8333,44.5 44.1667,44.5 44.5,44.5C 44.8417,45.3382 45.5084,45.6716 46.5,45.5C 46.5,46.5 46.5,47.5 46.5,48.5C 44.5,48.5 42.5,48.5 40.5,48.5C 39.0413,48.4326 37.7079,48.7659 36.5,49.5C 36.1667,49.5 35.8333,49.5 35.5,49.5C 35.5,49.1667 35.5,48.8333 35.5,48.5C 35.8417,47.6618 36.5084,47.3284 37.5,47.5C 38.1667,47.5 38.8333,47.5 39.5,47.5C 41.632,47.4456 42.9653,46.4456 43.5,44.5 Z"/></g>
<g><path style="opacity:0.751" fill="#4d323e" d="M 72.5,46.5 C 72.8333,47.1667 73.1667,47.8333 73.5,48.5C 72.0413,48.4326 70.7079,48.7659 69.5,49.5C 69.5,47.5 70.5,46.5 72.5,46.5 Z"/></g>
<g><path style="opacity:0.992" fill="#aa6442" d="M 74.5,44.5 C 75.935,46.4011 77.6017,46.7345 79.5,45.5C 79.8102,47.1436 80.8102,48.1436 82.5,48.5C 82.5,48.8333 82.5,49.1667 82.5,49.5C 80.9582,50.3007 79.2915,50.634 77.5,50.5C 77.1667,50.5 76.8333,50.5 76.5,50.5C 77.2625,49.7321 78.2625,49.2321 79.5,49C 77.8659,48.5065 76.1992,48.3398 74.5,48.5C 74.5,47.8333 74.5,47.1667 74.5,46.5C 74.5,45.8333 74.5,45.1667 74.5,44.5 Z"/></g>
<g><path style="opacity:0.759" fill="#a37748" d="M 86.5,49.5 C 85.2502,49.5774 84.4169,50.244 84,51.5C 83.2828,50.9558 82.7828,50.2891 82.5,49.5C 82.5,49.1667 82.5,48.8333 82.5,48.5C 82.9169,47.8761 83.5836,47.5427 84.5,47.5C 85.7133,47.7472 86.38,48.4138 86.5,49.5 Z"/></g>
<g><path style="opacity:0.996" fill="#aa5f36" d="M 10.5,48.5 C 11.9643,49.4054 13.2976,49.4054 14.5,48.5C 14.5,50.1667 14.5,51.8333 14.5,53.5C 12.5154,53.1414 11.8487,52.308 12.5,51C 11.6195,50.2917 10.9528,49.4584 10.5,48.5 Z"/></g>
<g><path style="opacity:1" fill="#b23b06" d="M 20.5,46.5 C 20.3284,47.4916 20.6618,48.1583 21.5,48.5C 21.5,48.8333 21.5,49.1667 21.5,49.5C 20.6236,49.3691 19.9569,49.7025 19.5,50.5C 20.5498,51.4288 20.5498,52.0954 19.5,52.5C 17.8333,51.1667 16.1667,49.8333 14.5,48.5C 14.5,48.1667 14.5,47.8333 14.5,47.5C 14.5,46.8333 14.8333,46.5 15.5,46.5C 17.1667,45.1667 18.8333,45.1667 20.5,46.5 Z"/></g>
<g><path style="opacity:1" fill="#bb4f13" d="M 27.5,46.5 C 28.791,46.2627 29.791,46.596 30.5,47.5C 30.5,48.1667 30.5,48.8333 30.5,49.5C 29.8902,50.391 29.5569,51.391 29.5,52.5C 28.8333,52.1667 28.1667,51.8333 27.5,51.5C 26.5084,51.6716 25.8417,51.3382 25.5,50.5C 24.4324,49.5655 23.099,49.2322 21.5,49.5C 21.5,49.1667 21.5,48.8333 21.5,48.5C 23.8583,48.7475 25.8583,48.0808 27.5,46.5 Z"/></g>
<g><path style="opacity:0.992" fill="#b24515" d="M 46.5,45.5 C 46.8333,45.5 47.1667,45.5 47.5,45.5C 48.925,46.922 49.925,48.5887 50.5,50.5C 50.1667,50.5 49.8333,50.5 49.5,50.5C 49.1667,50.5 48.8333,50.5 48.5,50.5C 45.8333,49.8333 43.1667,49.1667 40.5,48.5C 42.5,48.5 44.5,48.5 46.5,48.5C 46.5,47.5 46.5,46.5 46.5,45.5 Z"/></g>
<g><path style="opacity:0.996" fill="#a64615" d="M 51.5,44.5 C 52.6879,45.6843 53.8545,45.6843 55,44.5C 55.4224,46.4257 56.5891,47.4257 58.5,47.5C 58.8333,48.1667 59.1667,48.8333 59.5,49.5C 58.5,49.5 57.5,49.5 56.5,49.5C 52.218,49.8929 50.5513,48.2262 51.5,44.5 Z"/></g>
<g><path style="opacity:0.914" fill="#d19167" d="M 90.5,47.5 C 92.9538,48.2271 95.2872,49.2271 97.5,50.5C 97.5,51.1667 97.8333,51.5 98.5,51.5C 98.5,51.8333 98.5,52.1667 98.5,52.5C 96.1175,50.9539 93.4509,50.2872 90.5,50.5C 90.1667,50.5 89.8333,50.5 89.5,50.5C 90.1098,49.609 90.4431,48.609 90.5,47.5 Z"/></g>
<g><path style="opacity:0.79" fill="#a76b5d" d="M 116.5,52.5 C 116.672,51.5084 116.338,50.8417 115.5,50.5C 115.5,50.1667 115.5,49.8333 115.5,49.5C 115.672,48.5084 115.338,47.8417 114.5,47.5C 114.5,46.8333 114.167,46.5 113.5,46.5C 113.964,43.304 115.464,43.304 118,46.5C 118.346,48.2182 118.846,49.8849 119.5,51.5C 118.675,52.3857 117.675,52.719 116.5,52.5 Z"/></g>
<g><path style="opacity:1" fill="#bf531a" d="M 50.5,44.5 C 50.8333,44.5 51.1667,44.5 51.5,44.5C 50.5513,48.2262 52.218,49.8929 56.5,49.5C 55.791,50.404 54.791,50.7373 53.5,50.5C 52.5,50.5 51.5,50.5 50.5,50.5C 49.925,48.5887 48.925,46.922 47.5,45.5C 48.791,45.7373 49.791,45.404 50.5,44.5 Z"/></g>
<g><path style="opacity:1" fill="#ba4c17" d="M 56.5,49.5 C 57.5,49.5 58.5,49.5 59.5,49.5C 59.8333,49.5 60.1667,49.5 60.5,49.5C 58.2771,50.1815 56.9437,51.1815 56.5,52.5C 55.5,51.8333 54.5,51.1667 53.5,50.5C 54.791,50.7373 55.791,50.404 56.5,49.5 Z"/></g>
<g><path style="opacity:0.694" fill="#bd7963" d="M 58.5,47.5 C 60.7206,48.2922 62.7206,48.6256 64.5,48.5C 64.5,49.1667 64.5,49.8333 64.5,50.5C 63.8333,50.5 63.1667,50.5 62.5,50.5C 61.8333,50.1667 61.1667,49.8333 60.5,49.5C 60.1667,49.5 59.8333,49.5 59.5,49.5C 59.1667,48.8333 58.8333,48.1667 58.5,47.5 Z"/></g>
<g><path style="opacity:0.992" fill="#bd623a" d="M 73.5,48.5 C 73.8333,48.5 74.1667,48.5 74.5,48.5C 76.1992,48.3398 77.8659,48.5065 79.5,49C 78.2625,49.2321 77.2625,49.7321 76.5,50.5C 75.609,51.1098 74.609,51.4431 73.5,51.5C 72.4324,50.5655 71.099,50.2322 69.5,50.5C 69.5,50.1667 69.5,49.8333 69.5,49.5C 70.7079,48.7659 72.0413,48.4326 73.5,48.5 Z"/></g>
<g><path style="opacity:1" fill="#b94306" d="M 21.5,49.5 C 23.099,49.2322 24.4324,49.5655 25.5,50.5C 22.2152,51.0892 21.8819,52.2559 24.5,54C 23.0267,54.7096 22.3601,55.8762 22.5,57.5C 22.1667,57.5 21.8333,57.5 21.5,57.5C 21.7373,56.209 21.404,55.209 20.5,54.5C 20.1667,53.8333 19.8333,53.1667 19.5,52.5C 20.5498,52.0954 20.5498,51.4288 19.5,50.5C 19.9569,49.7025 20.6236,49.3691 21.5,49.5 Z"/></g>
<g><path style="opacity:0.998" fill="#b55023" d="M 40.5,48.5 C 43.1667,49.1667 45.8333,49.8333 48.5,50.5C 48.1667,50.5 47.8333,50.5 47.5,50.5C 43.8453,49.925 40.8453,50.925 38.5,53.5C 38.5,53.8333 38.5,54.1667 38.5,54.5C 37.8333,54.5 37.5,54.1667 37.5,53.5C 36.7659,52.2921 36.4326,50.9587 36.5,49.5C 37.7079,48.7659 39.0413,48.4326 40.5,48.5 Z"/></g>
<g><path style="opacity:0.961" fill="#b0562c" d="M 49.5,50.5 C 49.8333,50.5 50.1667,50.5 50.5,50.5C 51.5,50.5 52.5,50.5 53.5,50.5C 54.5,51.1667 55.5,51.8333 56.5,52.5C 56.5,53.1667 56.5,53.8333 56.5,54.5C 55.8333,54.1667 55.1667,53.8333 54.5,53.5C 52.8869,52.3077 51.2202,51.3077 49.5,50.5 Z"/></g>
<g><path style="opacity:0.4" fill="#56543c" d="M 107.5,49.5 C 109.337,49.6395 109.67,50.3061 108.5,51.5C 107.702,51.0431 107.369,50.3764 107.5,49.5 Z"/></g>
<g><path style="opacity:0.999" fill="#b54c14" d="M 14.5,48.5 C 16.1667,49.8333 17.8333,51.1667 19.5,52.5C 19.8333,53.1667 20.1667,53.8333 20.5,54.5C 19.8333,55.1667 19.1667,55.8333 18.5,56.5C 17.5,55.8333 16.5,55.1667 15.5,54.5C 15.5,53.8333 15.1667,53.5 14.5,53.5C 14.5,51.8333 14.5,50.1667 14.5,48.5 Z"/></g>
<g><path style="opacity:1" fill="#be4a08" d="M 27.5,51.5 C 28.1667,51.8333 28.8333,52.1667 29.5,52.5C 30.1667,52.8333 30.8333,53.1667 31.5,53.5C 31.5,54.1667 31.1667,54.5 30.5,54.5C 29.0413,54.4326 27.7079,54.7659 26.5,55.5C 26.4326,54.0413 26.7659,52.7079 27.5,51.5 Z"/></g>
<g><path style="opacity:0.998" fill="#b44e19" d="M 30.5,49.5 C 30.8333,49.5 31.1667,49.5 31.5,49.5C 31.5,50.1667 31.8333,50.5 32.5,50.5C 32.9321,51.7095 33.5987,52.7095 34.5,53.5C 34.5,53.8333 34.5,54.1667 34.5,54.5C 33.391,54.4431 32.391,54.1098 31.5,53.5C 30.8333,53.1667 30.1667,52.8333 29.5,52.5C 29.5569,51.391 29.8902,50.391 30.5,49.5 Z"/></g>
<g><path style="opacity:1" fill="#ab481c" d="M 33.5,49.5 C 34.1667,49.5 34.8333,49.5 35.5,49.5C 35.8333,49.5 36.1667,49.5 36.5,49.5C 36.4326,50.9587 36.7659,52.2921 37.5,53.5C 36.6618,53.8417 36.3284,54.5084 36.5,55.5C 36.1667,55.5 35.8333,55.5 35.5,55.5C 35.7535,53.5992 35.4202,52.9326 34.5,53.5C 33.5987,52.7095 32.9321,51.7095 32.5,50.5C 33.1667,50.5 33.5,50.1667 33.5,49.5 Z"/></g>
<g><path style="opacity:0.999" fill="#be4f1c" d="M 60.5,49.5 C 61.1667,49.8333 61.8333,50.1667 62.5,50.5C 63.5521,52.256 65.2188,52.9227 67.5,52.5C 68.1667,52.5 68.5,52.8333 68.5,53.5C 64.6286,53.185 60.9619,53.5184 57.5,54.5C 57.1667,54.5 56.8333,54.5 56.5,54.5C 56.5,53.8333 56.5,53.1667 56.5,52.5C 56.9437,51.1815 58.2771,50.1815 60.5,49.5 Z"/></g>
<g><path style="opacity:1" fill="#b54a19" d="M 62.5,50.5 C 63.1667,50.5 63.8333,50.5 64.5,50.5C 65.5,50.5 66.5,50.5 67.5,50.5C 67.5,51.1667 67.5,51.8333 67.5,52.5C 65.2188,52.9227 63.5521,52.256 62.5,50.5 Z"/></g>
<g><path style="opacity:0.996" fill="#b44e22" d="M 67.5,50.5 C 68.1667,50.5 68.8333,50.5 69.5,50.5C 71.099,50.2322 72.4324,50.5655 73.5,51.5C 72.5,52.1667 71.5,52.8333 70.5,53.5C 69.8333,53.5 69.1667,53.5 68.5,53.5C 68.5,52.8333 68.1667,52.5 67.5,52.5C 67.5,51.8333 67.5,51.1667 67.5,50.5 Z"/></g>
<g><path style="opacity:0.992" fill="#9c532e" d="M 90.5,50.5 C 93.4509,50.2872 96.1175,50.9539 98.5,52.5C 98.9321,53.7095 99.5987,54.7095 100.5,55.5C 100.5,56.1667 100.5,56.8333 100.5,57.5C 98.9699,56.7888 97.6366,55.7888 96.5,54.5C 95.8333,53.1667 94.8333,52.1667 93.5,51.5C 92.8333,51.5 92.5,51.8333 92.5,52.5C 91.5,52.1667 90.8333,51.5 90.5,50.5 Z"/></g>
<g><path style="opacity:0.988" fill="#a55747" d="M 115.5,50.5 C 116.338,50.8417 116.672,51.5084 116.5,52.5C 116.414,53.4959 116.748,54.3292 117.5,55C 115.593,55.2385 113.593,56.0718 111.5,57.5C 111.167,57.5 110.833,57.5 110.5,57.5C 111.11,56.609 111.443,55.609 111.5,54.5C 112.5,54.1667 113.167,53.5 113.5,52.5C 114.167,51.8333 114.833,51.1667 115.5,50.5 Z"/></g>
<g><path style="opacity:0.012" fill="#6a6a68" d="M 1.5,51.5 C 2.52502,51.8966 2.69169,52.5632 2,53.5C 1.53566,52.9056 1.36899,52.2389 1.5,51.5 Z"/></g>
<g><path style="opacity:0.004" fill="#4c3b32" d="M 47.5,50.5 C 47.5,50.8333 47.5,51.1667 47.5,51.5C 46.209,51.2627 45.209,51.596 44.5,52.5C 43.5,53.1667 42.5,53.8333 41.5,54.5C 41.1667,54.5 40.8333,54.5 40.5,54.5C 40.1583,53.6618 39.4916,53.3284 38.5,53.5C 40.8453,50.925 43.8453,49.925 47.5,50.5 Z"/></g>
<g><path style="opacity:0.157" fill="#5d4132" d="M 76.5,50.5 C 76.8333,50.5 77.1667,50.5 77.5,50.5C 77.8039,51.1499 78.1373,51.8165 78.5,52.5C 76.5973,52.0651 74.9307,52.7318 73.5,54.5C 72.609,53.8902 71.609,53.5569 70.5,53.5C 71.5,52.8333 72.5,52.1667 73.5,51.5C 74.609,51.4431 75.609,51.1098 76.5,50.5 Z"/></g>
<g><path style="opacity:0.027" fill="#161616" d="M 87.5,53.5 C 88.0768,52.2267 88.7435,52.2267 89.5,53.5C 89.0302,54.463 88.3635,54.463 87.5,53.5 Z"/></g>
<g><path style="opacity:0.686" fill="#231c1a" d="M 106.5,53.5 C 106.5,53.8333 106.5,54.1667 106.5,54.5C 105.5,54.5 104.5,54.5 103.5,54.5C 103.5,53.8333 103.167,53.5 102.5,53.5C 103.594,51.1638 104.927,51.1638 106.5,53.5 Z"/></g>
<g><path style="opacity:0.027" fill="#1a1715" d="M 3.5,54.5 C 3.89657,53.475 4.56323,53.3083 5.5,54C 4.90558,54.4643 4.23891,54.631 3.5,54.5 Z"/></g>
<g><path style="opacity:1" fill="#c34d07" d="M 25.5,50.5 C 25.8417,51.3382 26.5084,51.6716 27.5,51.5C 26.7659,52.7079 26.4326,54.0413 26.5,55.5C 26.5,56.1667 26.5,56.8333 26.5,57.5C 24.7973,56.3398 24.1307,57.0065 24.5,59.5C 23.8333,58.8333 23.1667,58.1667 22.5,57.5C 22.3601,55.8762 23.0267,54.7096 24.5,54C 21.8819,52.2559 22.2152,51.0892 25.5,50.5 Z"/></g>
<g><path style="opacity:0.341" fill="#b1a8a2" d="M 44.5,52.5 C 45.8333,52.5 46.5,53.1667 46.5,54.5C 44.8333,54.5 43.1667,54.5 41.5,54.5C 42.5,53.8333 43.5,53.1667 44.5,52.5 Z"/></g>
<g><path style="opacity:0.475" fill="#503f36" d="M 48.5,50.5 C 48.8333,50.5 49.1667,50.5 49.5,50.5C 51.2202,51.3077 52.8869,52.3077 54.5,53.5C 54.1667,54.5 53.5,55.1667 52.5,55.5C 52.5,54.8333 52.1667,54.5 51.5,54.5C 51.5594,52.2355 50.7261,51.9022 49,53.5C 47.9701,53.1639 47.4701,52.4972 47.5,51.5C 48.1667,51.5 48.5,51.1667 48.5,50.5 Z"/></g>
<g><path style="opacity:0.996" fill="#bb6133" d="M 57.5,54.5 C 60.9619,53.5184 64.6286,53.185 68.5,53.5C 68.1583,54.3382 67.4916,54.6716 66.5,54.5C 65.5084,54.3284 64.8417,54.6618 64.5,55.5C 64.1667,55.5 63.8333,55.5 63.5,55.5C 62.8333,55.5 62.1667,55.5 61.5,55.5C 60.0413,55.5674 58.7079,55.2341 57.5,54.5 Z"/></g>
<g><path style="opacity:0.031" fill="#4f342e" d="M 11.5,55.5 C 11.8966,54.475 12.5632,54.3083 13.5,55C 12.9056,55.4643 12.2389,55.631 11.5,55.5 Z"/></g>
<g><path style="opacity:0.996" fill="#c58369" d="M 97.5,50.5 C 97.8966,49.475 98.5632,49.3083 99.5,50C 99.9743,51.7286 100.974,52.8953 102.5,53.5C 102.5,53.8333 102.5,54.1667 102.5,54.5C 101.508,54.3284 100.842,54.6618 100.5,55.5C 99.5987,54.7095 98.9321,53.7095 98.5,52.5C 99.8333,52.1667 99.8333,51.8333 98.5,51.5C 97.8333,51.5 97.5,51.1667 97.5,50.5 Z"/></g>
<g><path style="opacity:0.384" fill="#c99981" d="M 112.5,52.5 C 112.833,52.5 113.167,52.5 113.5,52.5C 113.167,53.5 112.5,54.1667 111.5,54.5C 110.609,55.1098 109.609,55.4431 108.5,55.5C 107.508,55.6716 106.842,55.3382 106.5,54.5C 106.5,54.1667 106.5,53.8333 106.5,53.5C 108.5,53.1667 110.5,52.8333 112.5,52.5 Z"/></g>
<g><path style="opacity:0.592" fill="#346856" d="M 7.5,54.5 C 9.76023,55.2376 9.9269,56.2376 8,57.5C 6.27165,56.6477 6.10498,55.6477 7.5,54.5 Z"/></g>
<g><path style="opacity:0.027" fill="#5a4937" d="M 15.5,54.5 C 15.631,55.2389 15.4643,55.9056 15,56.5C 14.3083,55.5632 14.475,54.8966 15.5,54.5 Z"/></g>
<g><path style="opacity:0.998" fill="#b4551f" d="M 35.5,55.5 C 35.0679,56.7095 34.4013,57.7095 33.5,58.5C 33.1667,58.5 32.8333,58.5 32.5,58.5C 32.1667,58.5 31.8333,58.5 31.5,58.5C 31.5,58.1667 31.5,57.8333 31.5,57.5C 32.0998,56.1001 33.0998,55.1001 34.5,54.5C 34.5,54.1667 34.5,53.8333 34.5,53.5C 35.4202,52.9326 35.7535,53.5992 35.5,55.5 Z"/></g>
<g><path style="opacity:0.996" fill="#4d5c39" d="M 46.5,54.5 C 48.1667,54.5 49.8333,54.5 51.5,54.5C 52.1667,54.5 52.5,54.8333 52.5,55.5C 49.1048,54.9435 46.9381,56.2768 46,59.5C 45.5357,58.9056 45.369,58.2389 45.5,57.5C 45.5569,56.391 45.8902,55.391 46.5,54.5 Z"/></g>
<g><path style="opacity:0.396" fill="#787059" d="M 68.5,53.5 C 69.1667,53.5 69.8333,53.5 70.5,53.5C 70.5,54.5 70.5,55.5 70.5,56.5C 69.8333,56.5 69.5,56.8333 69.5,57.5C 68.5,57.5 67.5,57.5 66.5,57.5C 66.5,56.5 66.5,55.5 66.5,54.5C 67.4916,54.6716 68.1583,54.3382 68.5,53.5 Z"/></g>
<g><path style="opacity:0.961" fill="#3f3e19" d="M 93.5,51.5 C 94.8333,52.1667 95.8333,53.1667 96.5,54.5C 96.7373,55.791 96.404,56.791 95.5,57.5C 95.1583,56.6618 94.4916,56.3284 93.5,56.5C 93.5,55.1667 93.5,53.8333 93.5,52.5C 93.5,52.1667 93.5,51.8333 93.5,51.5 Z"/></g>
<g><path style="opacity:0.988" fill="#bf633f" d="M 102.5,54.5 C 102.833,54.5 103.167,54.5 103.5,54.5C 104.5,54.5 105.5,54.5 106.5,54.5C 106.842,55.3382 107.508,55.6716 108.5,55.5C 107.167,56.1667 105.833,56.8333 104.5,57.5C 102.821,57.2852 101.821,57.9519 101.5,59.5C 100.662,59.1583 100.328,58.4916 100.5,57.5C 100.5,56.8333 100.5,56.1667 100.5,55.5C 100.842,54.6618 101.508,54.3284 102.5,54.5 Z"/></g>
<g><path style="opacity:0.996" fill="#bb4a0d" d="M 20.5,54.5 C 21.404,55.209 21.7373,56.209 21.5,57.5C 20.596,58.209 20.2627,59.209 20.5,60.5C 20.1667,60.5 19.8333,60.5 19.5,60.5C 19.1667,59.1667 18.8333,57.8333 18.5,56.5C 19.1667,55.8333 19.8333,55.1667 20.5,54.5 Z"/></g>
<g><path style="opacity:1" fill="#ae3a08" d="M 31.5,53.5 C 32.391,54.1098 33.391,54.4431 34.5,54.5C 33.0998,55.1001 32.0998,56.1001 31.5,57.5C 27.9952,57.3059 27.6618,56.3059 30.5,54.5C 31.1667,54.5 31.5,54.1667 31.5,53.5 Z"/></g>
<g><path style="opacity:0.067" fill="#756350" d="M 37.5,53.5 C 37.5,54.1667 37.8333,54.5 38.5,54.5C 39.1667,54.5 39.8333,54.5 40.5,54.5C 39.7375,55.2679 38.7375,55.7679 37.5,56C 38.6537,56.9138 38.487,57.7471 37,58.5C 36.5172,57.552 36.3505,56.552 36.5,55.5C 36.3284,54.5084 36.6618,53.8417 37.5,53.5 Z"/></g>
<g><path style="opacity:0.992" fill="#9d4026" d="M 111.5,54.5 C 111.443,55.609 111.11,56.609 110.5,57.5C 109.167,57.5 107.833,57.5 106.5,57.5C 105.833,57.5 105.167,57.5 104.5,57.5C 105.833,56.8333 107.167,56.1667 108.5,55.5C 109.609,55.4431 110.609,55.1098 111.5,54.5 Z"/></g>
<g><path style="opacity:0.655" fill="#617b3b" d="M 66.5,57.5 C 67.5,57.5 68.5,57.5 69.5,57.5C 69.5,58.5 69.5,59.5 69.5,60.5C 67.4658,61.5907 66.1324,63.2574 65.5,65.5C 65.5,63.1667 65.5,60.8333 65.5,58.5C 65.5,57.8333 65.8333,57.5 66.5,57.5 Z"/></g>
<g><path style="opacity:0.671" fill="#6a6e46" d="M 73.5,55.5 C 73.3284,56.4916 73.6618,57.1583 74.5,57.5C 74.6107,58.1174 74.944,58.6174 75.5,59C 74.1772,59.8159 73.5106,60.9826 73.5,62.5C 73.5,62.8333 73.5,63.1667 73.5,63.5C 72.8333,62.8333 72.1667,62.1667 71.5,61.5C 71.8751,59.3024 72.5418,57.3024 73.5,55.5 Z"/></g>
<g><path style="opacity:0.396" fill="#81332a" d="M 104.5,57.5 C 105.167,57.5 105.833,57.5 106.5,57.5C 106.5,57.8333 106.5,58.1667 106.5,58.5C 105.081,59.4511 103.415,59.7845 101.5,59.5C 101.821,57.9519 102.821,57.2852 104.5,57.5 Z"/></g>
<g><path style="opacity:0.925" fill="#9d6b5c" d="M 106.5,58.5 C 106.5,58.1667 106.5,57.8333 106.5,57.5C 107.833,57.5 109.167,57.5 110.5,57.5C 110.833,57.5 111.167,57.5 111.5,57.5C 111.539,58.7562 111.039,59.7562 110,60.5C 108.887,59.695 107.721,59.0283 106.5,58.5 Z"/></g>
<g><path style="opacity:0.004" fill="#7f806c" d="M 5.5,58.5 C 6.83333,59.1667 6.83333,59.1667 5.5,58.5 Z"/></g>
<g><path style="opacity:0.012" fill="#141811" d="M 10.5,56.5 C 12.9732,56.9473 13.1399,57.9473 11,59.5C 10.5172,58.552 10.3505,57.552 10.5,56.5 Z"/></g>
<g><path style="opacity:1" fill="#d45e0b" d="M 26.5,57.5 C 26.5,57.8333 26.5,58.1667 26.5,58.5C 26.7947,60.7354 26.4614,62.7354 25.5,64.5C 25.7845,62.5853 25.4511,60.9187 24.5,59.5C 24.1307,57.0065 24.7973,56.3398 26.5,57.5 Z"/></g>
<g><path style="opacity:0.027" fill="#7f655b" d="M 40.5,58.5 C 42.1765,59.1834 42.8432,60.5168 42.5,62.5C 41.325,62.719 40.325,62.3857 39.5,61.5C 40.1272,60.5832 40.4606,59.5832 40.5,58.5 Z"/></g>
<g><path style="opacity:0.987" fill="#5c734b" d="M 52.5,55.5 C 52.2178,56.7777 51.5511,57.7777 50.5,58.5C 49.8333,58.5 49.5,58.8333 49.5,59.5C 48.943,61.2352 48.6097,62.9018 48.5,64.5C 48.1667,64.5 47.8333,64.5 47.5,64.5C 47.1667,64.5 46.8333,64.5 46.5,64.5C 44.6612,62.2102 44.3279,59.8769 45.5,57.5C 45.369,58.2389 45.5357,58.9056 46,59.5C 46.9381,56.2768 49.1048,54.9435 52.5,55.5 Z"/></g>
<g><path style="opacity:0.525" fill="#484c41" d="M 66.5,54.5 C 66.5,55.5 66.5,56.5 66.5,57.5C 65.8333,57.5 65.5,57.8333 65.5,58.5C 64.9987,60.246 64.3321,61.246 63.5,61.5C 63.5,60.5 63.5,59.5 63.5,58.5C 63.5,58.1667 63.5,57.8333 63.5,57.5C 64.3382,57.1583 64.6716,56.4916 64.5,55.5C 64.8417,54.6618 65.5084,54.3284 66.5,54.5 Z"/></g>
<g><path style="opacity:0.388" fill="#494824" d="M 79.5,57.5 C 80.0102,60.3878 79.3435,62.7211 77.5,64.5C 76.8897,62.1497 76.5563,62.483 76.5,65.5C 76.1667,65.5 75.8333,65.5 75.5,65.5C 74.8333,64.5 74.1667,63.5 73.5,62.5C 73.5106,60.9826 74.1772,59.8159 75.5,59C 74.944,58.6174 74.6107,58.1174 74.5,57.5C 76.1667,58.8333 77.8333,58.8333 79.5,57.5 Z"/></g>
<g><path style="opacity:0.392" fill="#393c1e" d="M 86.5,58.5 C 86.5,58.8333 86.5,59.1667 86.5,59.5C 85.5084,59.3284 84.8417,59.6618 84.5,60.5C 83.7281,61.6935 82.7281,62.6935 81.5,63.5C 81.5,62.1667 81.5,60.8333 81.5,59.5C 81.4614,58.2438 81.9614,57.2438 83,56.5C 83.8159,57.8228 84.9826,58.4894 86.5,58.5 Z"/></g>
<g><path style="opacity:0.918" fill="#4d541e" d="M 92.5,57.5 C 92.1667,58.1667 91.8333,58.8333 91.5,59.5C 89.8333,59.5 88.1667,59.5 86.5,59.5C 86.5,59.1667 86.5,58.8333 86.5,58.5C 88.3792,57.6586 90.3792,57.3253 92.5,57.5 Z"/></g>
<g><path style="opacity:1" fill="#ba4106" d="M 30.5,54.5 C 27.6618,56.3059 27.9952,57.3059 31.5,57.5C 31.5,57.8333 31.5,58.1667 31.5,58.5C 29.7868,59.6354 29.1201,61.302 29.5,63.5C 27.9724,62.1979 26.9724,60.5313 26.5,58.5C 26.5,58.1667 26.5,57.8333 26.5,57.5C 26.5,56.8333 26.5,56.1667 26.5,55.5C 27.7079,54.7659 29.0413,54.4326 30.5,54.5 Z"/></g>
<g><path style="opacity:0.951" fill="#303c1e" d="M 55.5,59.5 C 56.8333,59.5 58.1667,59.5 59.5,59.5C 59.5,60.5 59.5,61.5 59.5,62.5C 58.0357,61.5946 56.7024,61.5946 55.5,62.5C 55.5,61.5 55.5,60.5 55.5,59.5 Z"/></g>
<g><path style="opacity:0.996" fill="#4c582c" d="M 61.5,55.5 C 62.1667,55.5 62.8333,55.5 63.5,55.5C 63.5,56.1667 63.5,56.8333 63.5,57.5C 62.1667,57.8333 62.1667,58.1667 63.5,58.5C 63.5,59.5 63.5,60.5 63.5,61.5C 62.6618,61.8417 62.3284,62.5084 62.5,63.5C 62.5,64.1667 62.5,64.8333 62.5,65.5C 61.5,65.5 60.5,65.5 59.5,65.5C 59.5,64.5 59.5,63.5 59.5,62.5C 59.5,61.5 59.5,60.5 59.5,59.5C 58.1667,59.5 56.8333,59.5 55.5,59.5C 57.5,58.1667 59.5,56.8333 61.5,55.5 Z"/></g>
<g><path style="opacity:0.875" fill="#4d4f2e" d="M 70.5,53.5 C 71.609,53.5569 72.609,53.8902 73.5,54.5C 73.5,54.8333 73.5,55.1667 73.5,55.5C 72.5418,57.3024 71.8751,59.3024 71.5,61.5C 71.1583,62.3382 70.4916,62.6716 69.5,62.5C 69.5,61.8333 69.5,61.1667 69.5,60.5C 69.5,59.5 69.5,58.5 69.5,57.5C 70.1667,57.5 70.5,57.1667 70.5,56.5C 70.5,55.5 70.5,54.5 70.5,53.5 Z"/></g>
<g><path style="opacity:0.953" fill="#3d4317" d="M 86.5,59.5 C 88.1667,59.5 89.8333,59.5 91.5,59.5C 92.8333,60.1667 92.8333,60.8333 91.5,61.5C 89.9731,61.427 88.9731,62.0937 88.5,63.5C 86.8235,62.8166 86.1568,61.4832 86.5,59.5 Z"/></g>
<g><path style="opacity:0.992" fill="#596a31" d="M 93.5,56.5 C 94.4916,56.3284 95.1583,56.6618 95.5,57.5C 96.8333,58.5 96.8333,59.5 95.5,60.5C 94.5655,61.5676 94.2322,62.901 94.5,64.5C 93.5269,62.0521 93.1936,59.3854 93.5,56.5 Z"/></g>
<g><path style="opacity:1" fill="#b43509" d="M 21.5,57.5 C 21.8333,57.5 22.1667,57.5 22.5,57.5C 23.1667,58.1667 23.8333,58.8333 24.5,59.5C 24.634,61.2915 24.3007,62.9582 23.5,64.5C 22.8571,62.9236 21.8571,61.5903 20.5,60.5C 20.2627,59.209 20.596,58.209 21.5,57.5 Z"/></g>
<g><path style="opacity:0.522" fill="#4e4c48" d="M 2.5,60.5 C 4.33702,60.6395 4.67036,61.3061 3.5,62.5C 2.70245,62.0431 2.36912,61.3764 2.5,60.5 Z"/></g>
<g><path style="opacity:0.02" fill="#202020" d="M 9.5,60.5 C 11.337,60.6395 11.6704,61.3061 10.5,62.5C 9.70245,62.0431 9.36912,61.3764 9.5,60.5 Z"/></g>
<g><path style="opacity:1" fill="#c96520" d="M 31.5,58.5 C 31.8333,58.5 32.1667,58.5 32.5,58.5C 32.5,59.8333 32.5,61.1667 32.5,62.5C 31.8333,62.5 31.5,62.8333 31.5,63.5C 30.8333,63.5 30.1667,63.5 29.5,63.5C 29.1201,61.302 29.7868,59.6354 31.5,58.5 Z"/></g>
<g><path style="opacity:0.718" fill="#3b3e2f" d="M 79.5,57.5 C 80.1667,58.1667 80.8333,58.8333 81.5,59.5C 81.5,60.8333 81.5,62.1667 81.5,63.5C 81.5,64.1667 81.5,64.8333 81.5,65.5C 80.5,65.5 79.5,65.5 78.5,65.5C 78.5,66.8333 78.5,68.1667 78.5,69.5C 78.1667,69.5 77.8333,69.5 77.5,69.5C 77.5,68.1667 77.5,66.8333 77.5,65.5C 77.5,65.1667 77.5,64.8333 77.5,64.5C 79.3435,62.7211 80.0102,60.3878 79.5,57.5 Z"/></g>
<g><path style="opacity:0.725" fill="#656935" d="M 86.5,59.5 C 86.1568,61.4832 86.8235,62.8166 88.5,63.5C 89.5063,63.9377 89.5063,64.6043 88.5,65.5C 86.857,65.5198 85.5237,64.8532 84.5,63.5C 83.7348,64.6119 82.7348,65.2786 81.5,65.5C 81.5,64.8333 81.5,64.1667 81.5,63.5C 82.7281,62.6935 83.7281,61.6935 84.5,60.5C 84.8417,59.6618 85.5084,59.3284 86.5,59.5 Z"/></g>
<g><path style="opacity:0.361" fill="#49512f" d="M 92.5,52.5 C 92.8333,52.5 93.1667,52.5 93.5,52.5C 93.5,53.8333 93.5,55.1667 93.5,56.5C 93.1936,59.3854 93.5269,62.0521 94.5,64.5C 94.5,65.1667 94.5,65.8333 94.5,66.5C 93.2719,65.6935 92.2719,64.6935 91.5,63.5C 91.5,62.8333 91.5,62.1667 91.5,61.5C 92.8333,60.8333 92.8333,60.1667 91.5,59.5C 91.8333,58.8333 92.1667,58.1667 92.5,57.5C 92.5,55.8333 92.5,54.1667 92.5,52.5 Z"/></g>
<g><path style="opacity:0.686" fill="#c39c7b" d="M 32.5,58.5 C 32.8333,58.5 33.1667,58.5 33.5,58.5C 33.8222,60.4752 33.8222,62.1418 33.5,63.5C 32.8333,63.5 32.5,63.1667 32.5,62.5C 32.5,61.1667 32.5,59.8333 32.5,58.5 Z"/></g>
<g><path style="opacity:0.075" fill="#a0735f" d="M 16.5,62.5 C 18.9732,62.9473 19.1399,63.9473 17,65.5C 16.5172,64.552 16.3505,63.552 16.5,62.5 Z"/></g>
<g><path style="opacity:1" fill="#c44608" d="M 24.5,59.5 C 25.4511,60.9187 25.7845,62.5853 25.5,64.5C 26.1894,65.7736 27.0228,65.7736 28,64.5C 28.4643,65.0944 28.631,65.7611 28.5,66.5C 27.596,67.209 27.2627,68.209 27.5,69.5C 27.1667,69.5 26.8333,69.5 26.5,69.5C 26.5393,67.7761 26.206,67.4427 25.5,68.5C 24.596,67.791 24.2627,66.791 24.5,65.5C 24.5,64.8333 24.1667,64.5 23.5,64.5C 24.3007,62.9582 24.634,61.2915 24.5,59.5 Z"/></g>
<g><path style="opacity:0.992" fill="#ac5423" d="M 32.5,62.5 C 32.5,63.1667 32.8333,63.5 33.5,63.5C 33.233,65.9653 32.5664,68.2986 31.5,70.5C 30.6618,70.8417 30.3284,71.5084 30.5,72.5C 29.1826,70.7131 29.516,69.0464 31.5,67.5C 31.0431,66.7025 30.3764,66.3691 29.5,66.5C 29.7822,65.2223 30.4489,64.2223 31.5,63.5C 31.5,62.8333 31.8333,62.5 32.5,62.5 Z"/></g>
<g><path style="opacity:0.039" fill="#766a69" d="M 43.5,63.5 C 44.8333,64.1667 44.8333,64.1667 43.5,63.5 Z"/></g>
<g><path style="opacity:0.945" fill="#42582e" d="M 50.5,58.5 C 52.0269,58.427 53.0269,59.0937 53.5,60.5C 52.5655,61.5676 52.2322,62.901 52.5,64.5C 51.1667,64.5 49.8333,64.5 48.5,64.5C 48.6097,62.9018 48.943,61.2352 49.5,59.5C 50.1667,59.5 50.5,59.1667 50.5,58.5 Z"/></g>
<g><path style="opacity:0.91" fill="#34451a" d="M 59.5,62.5 C 59.5,63.5 59.5,64.5 59.5,65.5C 57.0274,65.9118 55.6941,64.9118 55.5,62.5C 56.7024,61.5946 58.0357,61.5946 59.5,62.5 Z"/></g>
<g><path style="opacity:0.424" fill="#2c331e" d="M 65.5,58.5 C 65.5,60.8333 65.5,63.1667 65.5,65.5C 64.8333,65.5 64.1667,65.5 63.5,65.5C 63.6716,64.5084 63.3382,63.8417 62.5,63.5C 62.3284,62.5084 62.6618,61.8417 63.5,61.5C 64.3321,61.246 64.9987,60.246 65.5,58.5 Z"/></g>
<g><path style="opacity:0.992" fill="#637039" d="M 71.5,61.5 C 72.1667,62.1667 72.8333,62.8333 73.5,63.5C 72.8166,65.1765 71.4832,65.8432 69.5,65.5C 69.5,64.5 69.5,63.5 69.5,62.5C 70.4916,62.6716 71.1583,62.3382 71.5,61.5 Z"/></g>
<g><path style="opacity:0.745" fill="#5f7130" d="M 91.5,61.5 C 91.5,62.1667 91.5,62.8333 91.5,63.5C 91.1788,65.0481 90.1788,65.7148 88.5,65.5C 89.5063,64.6043 89.5063,63.9377 88.5,63.5C 88.9731,62.0937 89.9731,61.427 91.5,61.5 Z"/></g>
<g><path style="opacity:0.998" fill="#ac320b" d="M 19.5,61.5 C 19.5,61.1667 19.5,60.8333 19.5,60.5C 19.8333,60.5 20.1667,60.5 20.5,60.5C 21.8571,61.5903 22.8571,62.9236 23.5,64.5C 24.1667,64.5 24.5,64.8333 24.5,65.5C 23.1667,65.5 22.5,66.1667 22.5,67.5C 21.2028,65.6287 20.2028,63.6287 19.5,61.5 Z"/></g>
<g><path style="opacity:0.02" fill="#2e341a" d="M 53.5,60.5 C 53.8222,61.8582 53.8222,63.5248 53.5,65.5C 51.5853,65.7845 49.9187,65.4511 48.5,64.5C 49.8333,64.5 51.1667,64.5 52.5,64.5C 52.2322,62.901 52.5655,61.5676 53.5,60.5 Z"/></g>
<g><path style="opacity:0.965" fill="#7d925d" d="M 95.5,60.5 C 99.5872,63.033 99.2539,65.033 94.5,66.5C 94.5,65.8333 94.5,65.1667 94.5,64.5C 94.2322,62.901 94.5655,61.5676 95.5,60.5 Z"/></g>
<g><path style="opacity:1" fill="#c74d08" d="M 26.5,58.5 C 26.9724,60.5313 27.9724,62.1979 29.5,63.5C 30.1667,63.5 30.8333,63.5 31.5,63.5C 30.4489,64.2223 29.7822,65.2223 29.5,66.5C 29.1667,67.8333 28.8333,67.8333 28.5,66.5C 28.631,65.7611 28.4643,65.0944 28,64.5C 27.0228,65.7736 26.1894,65.7736 25.5,64.5C 26.4614,62.7354 26.7947,60.7354 26.5,58.5 Z"/></g>
<g><path style="opacity:0.004" fill="#333332" d="M 8.5,65.5 C 9.67504,65.281 10.675,65.6143 11.5,66.5C 9.94835,67.7979 8.94835,67.4646 8.5,65.5 Z"/></g>
<g><path style="opacity:0.157" fill="#5f4c51" d="M 46.5,64.5 C 46.8333,64.5 47.1667,64.5 47.5,64.5C 47.5774,65.7498 48.244,66.5831 49.5,67C 48.2068,67.49 46.8734,67.6567 45.5,67.5C 45.5,66.8333 45.1667,66.5 44.5,66.5C 44.8333,65.5 45.5,64.8333 46.5,64.5 Z"/></g>
<g><path style="opacity:0.998" fill="#bd4b12" d="M 19.5,61.5 C 20.2028,63.6287 21.2028,65.6287 22.5,67.5C 23.8333,67.8333 23.8333,68.1667 22.5,68.5C 21.2223,68.2178 20.2223,67.5511 19.5,66.5C 19.5,64.8333 19.5,63.1667 19.5,61.5 Z"/></g>
<g><path style="opacity:0.996" fill="#c65a13" d="M 28.5,66.5 C 28.8333,67.8333 29.1667,67.8333 29.5,66.5C 30.3764,66.3691 31.0431,66.7025 31.5,67.5C 29.516,69.0464 29.1826,70.7131 30.5,72.5C 30.5,72.8333 30.5,73.1667 30.5,73.5C 30.5,73.8333 30.5,74.1667 30.5,74.5C 29.8333,74.1667 29.1667,73.8333 28.5,73.5C 28.5674,72.0413 28.2341,70.7079 27.5,69.5C 27.2627,68.209 27.596,67.209 28.5,66.5 Z"/></g>
<g><path style="opacity:0.976" fill="#617f39" d="M 59.5,66.5 C 61.256,67.5521 61.9227,69.2188 61.5,71.5C 61.1667,71.5 60.8333,71.5 60.5,71.5C 60.1583,70.6618 59.4916,70.3284 58.5,70.5C 57.8333,70.5 57.5,70.1667 57.5,69.5C 59.0481,69.1788 59.7148,68.1788 59.5,66.5 Z"/></g>
<g><path style="opacity:0.024" fill="#1a434e" d="M 65.5,66.5 C 69.31,67.7542 69.31,68.7542 65.5,69.5C 65.5,68.5 65.5,67.5 65.5,66.5 Z"/></g>
<g><path style="opacity:0.655" fill="#3e4226" d="M 75.5,65.5 C 75.8333,65.5 76.1667,65.5 76.5,65.5C 76.8333,65.5 77.1667,65.5 77.5,65.5C 77.5,66.8333 77.5,68.1667 77.5,69.5C 76.8333,69.5 76.1667,69.5 75.5,69.5C 74.1667,68.1667 74.1667,66.8333 75.5,65.5 Z"/></g>
<g><path style="opacity:1" fill="#bc3907" d="M 24.5,65.5 C 24.2627,66.791 24.596,67.791 25.5,68.5C 25.5,69.1667 25.1667,69.5 24.5,69.5C 23.8333,70.5 23.1667,71.5 22.5,72.5C 22.5,71.1667 22.5,69.8333 22.5,68.5C 23.8333,68.1667 23.8333,67.8333 22.5,67.5C 22.5,66.1667 23.1667,65.5 24.5,65.5 Z"/></g>
<g><path style="opacity:0.565" fill="#515d26" d="M 39.5,66.5 C 41.1667,66.5 42.8333,66.5 44.5,66.5C 45.1667,66.5 45.5,66.8333 45.5,67.5C 45.0472,68.4584 44.3805,69.2917 43.5,70C 43.7284,70.3988 44.0618,70.5654 44.5,70.5C 43.1667,72.8333 43.1667,75.1667 44.5,77.5C 44.5,78.1667 44.1667,78.5 43.5,78.5C 43.6399,76.8762 42.9733,75.7096 41.5,75C 42.6956,74.3457 42.6956,73.8457 41.5,73.5C 40.6143,74.325 40.281,75.325 40.5,76.5C 39.5206,73.3752 39.1872,70.0419 39.5,66.5 Z"/></g>
<g><path style="opacity:0.784" fill="#323b16" d="M 59.5,66.5 C 59.5,66.1667 59.5,65.8333 59.5,65.5C 60.5,65.5 61.5,65.5 62.5,65.5C 62.8333,65.5 63.1667,65.5 63.5,65.5C 63.5,67.5 63.5,69.5 63.5,71.5C 62.8333,71.5 62.1667,71.5 61.5,71.5C 61.9227,69.2188 61.256,67.5521 59.5,66.5 Z"/></g>
<g><path style="opacity:1" fill="#bb3806" d="M 26.5,69.5 C 26.5,70.5 26.5,71.5 26.5,72.5C 25.8333,73.1667 25.1667,73.8333 24.5,74.5C 24.5,72.8333 24.5,71.1667 24.5,69.5C 25.1667,69.5 25.5,69.1667 25.5,68.5C 26.206,67.4427 26.5393,67.7761 26.5,69.5 Z"/></g>
<g><path style="opacity:0.992" fill="#676438" d="M 50.5,70.5 C 50.1667,71.1667 49.8333,71.8333 49.5,72.5C 49.5,72.8333 49.5,73.1667 49.5,73.5C 48.8333,73.5 48.5,73.8333 48.5,74.5C 46.7376,73.7377 45.7376,72.4044 45.5,70.5C 47.2837,69.2801 48.9504,69.2801 50.5,70.5 Z"/></g>
<g><path style="opacity:0.651" fill="#212b1c" d="M 75.5,71.5 C 75.5,72.1667 75.5,72.8333 75.5,73.5C 75.1667,73.5 74.8333,73.5 74.5,73.5C 74.1667,73.5 73.8333,73.5 73.5,73.5C 72.0413,73.5674 70.7079,73.2341 69.5,72.5C 70.9879,70.1546 72.9879,69.8212 75.5,71.5 Z"/></g>
<g><path style="opacity:0.58" fill="#504e4c" d="M 14.5,70.5 C 16.7602,71.2376 16.9269,72.2376 15,73.5C 13.2716,72.6477 13.105,71.6477 14.5,70.5 Z"/></g>
<g><path style="opacity:1" fill="#c45107" d="M 26.5,69.5 C 26.8333,69.5 27.1667,69.5 27.5,69.5C 28.2341,70.7079 28.5674,72.0413 28.5,73.5C 28.5,74.8333 28.5,76.1667 28.5,77.5C 27.6618,77.8417 27.3284,78.5084 27.5,79.5C 27.1667,79.5 26.8333,79.5 26.5,79.5C 26.5,77.1667 26.5,74.8333 26.5,72.5C 26.5,71.5 26.5,70.5 26.5,69.5 Z"/></g>
<g><path style="opacity:0.863" fill="#5c5046" d="M 31.5,70.5 C 31.9046,71.5498 32.5712,71.5498 33.5,70.5C 34.3857,71.325 34.719,72.325 34.5,73.5C 33.5,73.5 32.5,73.5 31.5,73.5C 31.5,72.8333 31.1667,72.5 30.5,72.5C 30.3284,71.5084 30.6618,70.8417 31.5,70.5 Z"/></g>
<g><path style="opacity:0.976" fill="#41561f" d="M 57.5,69.5 C 57.5,70.1667 57.8333,70.5 58.5,70.5C 58.5,72.1667 58.5,73.8333 58.5,75.5C 57.391,75.4431 56.391,75.1098 55.5,74.5C 54.7281,73.3065 53.7281,72.3065 52.5,71.5C 53.7804,70.0687 55.4471,69.4021 57.5,69.5 Z"/></g>
<g><path style="opacity:0.722" fill="#585f30" d="M 75.5,69.5 C 76.1667,69.5 76.8333,69.5 77.5,69.5C 77.8333,69.5 78.1667,69.5 78.5,69.5C 78.4326,70.9587 78.7659,72.2921 79.5,73.5C 79.1667,73.5 78.8333,73.5 78.5,73.5C 77.5,74.8333 76.5,74.8333 75.5,73.5C 75.5,72.8333 75.5,72.1667 75.5,71.5C 75.5,70.8333 75.5,70.1667 75.5,69.5 Z"/></g>
<g><path style="opacity:0.576" fill="#8d5f4c" d="M 19.5,67.5 C 19.307,71.5662 19.6403,75.5662 20.5,79.5C 19.8333,79.5 19.1667,79.5 18.5,79.5C 18.7535,77.5992 18.4202,76.9326 17.5,77.5C 16.8333,77.5 16.1667,77.5 15.5,77.5C 16.5981,76.603 16.5981,75.7697 15.5,75C 16.448,74.5172 17.448,74.3505 18.5,74.5C 18.67,73.1779 18.3366,72.0113 17.5,71C 18.0848,69.6976 18.7515,68.531 19.5,67.5 Z"/></g>
<g><path style="opacity:1" fill="#af330a" d="M 19.5,66.5 C 20.2223,67.5511 21.2223,68.2178 22.5,68.5C 22.5,69.8333 22.5,71.1667 22.5,72.5C 22.2155,74.4147 22.5489,76.0813 23.5,77.5C 23.5,77.8333 23.5,78.1667 23.5,78.5C 22.6618,78.8417 22.3284,79.5084 22.5,80.5C 21.8333,80.1667 21.1667,79.8333 20.5,79.5C 19.6403,75.5662 19.307,71.5662 19.5,67.5C 19.5,67.1667 19.5,66.8333 19.5,66.5 Z"/></g>
<g><path style="opacity:1" fill="#c34306" d="M 24.5,69.5 C 24.5,71.1667 24.5,72.8333 24.5,74.5C 24.7373,75.791 24.404,76.791 23.5,77.5C 22.5489,76.0813 22.2155,74.4147 22.5,72.5C 23.1667,71.5 23.8333,70.5 24.5,69.5 Z"/></g>
<g><path style="opacity:0.598" fill="#414a2b" d="M 58.5,70.5 C 59.4916,70.3284 60.1583,70.6618 60.5,71.5C 60.3253,73.6208 60.6586,75.6208 61.5,77.5C 60.8333,77.5 60.1667,77.5 59.5,77.5C 59.6716,76.5084 59.3382,75.8417 58.5,75.5C 58.5,73.8333 58.5,72.1667 58.5,70.5 Z"/></g>
<g><path style="opacity:0.92" fill="#4a5825" d="M 60.5,71.5 C 60.8333,71.5 61.1667,71.5 61.5,71.5C 62.1667,71.5 62.8333,71.5 63.5,71.5C 63.2627,72.791 63.596,73.791 64.5,74.5C 64.5,75.5 64.5,76.5 64.5,77.5C 64.5,77.8333 64.5,78.1667 64.5,78.5C 63.391,78.4431 62.391,78.1098 61.5,77.5C 60.6586,75.6208 60.3253,73.6208 60.5,71.5 Z"/></g>
<g><path style="opacity:0.243" fill="#505734" d="M 39.5,66.5 C 39.1872,70.0419 39.5206,73.3752 40.5,76.5C 40.5,77.1667 40.5,77.8333 40.5,78.5C 39.8826,78.3893 39.3826,78.056 39,77.5C 38.1889,73.5037 37.8555,69.5037 38,65.5C 38.3826,66.056 38.8826,66.3893 39.5,66.5 Z"/></g>
<g><path style="opacity:0.958" fill="#384b1d" d="M 50.5,70.5 C 51.1667,70.8333 51.8333,71.1667 52.5,71.5C 53.7281,72.3065 54.7281,73.3065 55.5,74.5C 55.1583,75.3382 54.4916,75.6716 53.5,75.5C 52.596,74.791 52.2627,73.791 52.5,72.5C 51.5,72.5 50.5,72.5 49.5,72.5C 49.8333,71.8333 50.1667,71.1667 50.5,70.5 Z"/></g>
<g><path style="opacity:0.957" fill="#374b1b" d="M 78.5,69.5 C 80.2303,70.0256 81.5637,71.0256 82.5,72.5C 81.71,73.6085 81.21,74.9419 81,76.5C 80.7216,75.5842 80.2216,74.9175 79.5,74.5C 79.5,74.1667 79.5,73.8333 79.5,73.5C 78.7659,72.2921 78.4326,70.9587 78.5,69.5 Z"/></g>
<g><path style="opacity:0.078" fill="#c99865" d="M 34.5,74.5 C 36.337,74.6395 36.6704,75.3061 35.5,76.5C 34.7025,76.0431 34.3691,75.3764 34.5,74.5 Z"/></g>
<g><path style="opacity:0.996" fill="#606f26" d="M 43.5,78.5 C 42.5,78.5 41.5,78.5 40.5,78.5C 40.5,77.8333 40.5,77.1667 40.5,76.5C 40.281,75.325 40.6143,74.325 41.5,73.5C 42.6956,73.8457 42.6956,74.3457 41.5,75C 42.9733,75.7096 43.6399,76.8762 43.5,78.5 Z"/></g>
<g><path style="opacity:0.722" fill="#2c3115" d="M 74.5,73.5 C 74.8333,73.5 75.1667,73.5 75.5,73.5C 76.5,74.8333 77.5,74.8333 78.5,73.5C 78.5,74.1667 78.8333,74.5 79.5,74.5C 79.5,75.5 79.5,76.5 79.5,77.5C 79.5,77.8333 79.5,78.1667 79.5,78.5C 78.7784,78.0825 78.2784,77.4158 78,76.5C 77.6174,77.056 77.1174,77.3893 76.5,77.5C 75.391,77.4431 74.391,77.1098 73.5,76.5C 73.5,75.8333 73.5,75.1667 73.5,74.5C 74.1667,74.5 74.5,74.1667 74.5,73.5 Z"/></g>
<g><path style="opacity:0.988" fill="#3a371a" d="M 44.5,70.5 C 44.8333,70.5 45.1667,70.5 45.5,70.5C 45.7376,72.4044 46.7376,73.7377 48.5,74.5C 48.7047,77.9864 47.3714,78.9864 44.5,77.5C 43.1667,75.1667 43.1667,72.8333 44.5,70.5 Z"/></g>
<g><path style="opacity:0.839" fill="#5b5b33" d="M 49.5,72.5 C 50.5,72.5 51.5,72.5 52.5,72.5C 52.2627,73.791 52.596,74.791 53.5,75.5C 53.5,75.8333 53.5,76.1667 53.5,76.5C 52.5,76.8333 51.8333,77.5 51.5,78.5C 49.744,77.4479 49.0773,75.7812 49.5,73.5C 49.5,73.1667 49.5,72.8333 49.5,72.5 Z"/></g>
<g><path style="opacity:0.408" fill="#2d3b1b" d="M 67.5,74.5 C 67.1667,75.8333 66.8333,77.1667 66.5,78.5C 65.8333,78.1667 65.1667,77.8333 64.5,77.5C 64.5,76.5 64.5,75.5 64.5,74.5C 65.1614,73.2825 65.8281,71.9492 66.5,70.5C 68.6424,71.4371 68.9757,72.7704 67.5,74.5 Z"/></g>
<g><path style="opacity:0.345" fill="#273119" d="M 68.5,74.5 C 68.8333,74.5 69.1667,74.5 69.5,74.5C 70.1001,75.9002 71.1001,76.9002 72.5,77.5C 71.375,78.6522 71.375,79.6522 72.5,80.5C 72.5,81.1667 72.5,81.8333 72.5,82.5C 71.8333,82.5 71.5,82.8333 71.5,83.5C 71.5,83.8333 71.5,84.1667 71.5,84.5C 70.5,84.5 69.5,84.5 68.5,84.5C 68.5,82.5 68.5,80.5 68.5,78.5C 69.8333,78.1667 69.8333,77.8333 68.5,77.5C 68.5,76.5 68.5,75.5 68.5,74.5 Z"/></g>
<g><path style="opacity:0.871" fill="#405320" d="M 69.5,72.5 C 70.7079,73.2341 72.0413,73.5674 73.5,73.5C 73.5,73.8333 73.5,74.1667 73.5,74.5C 73.5,75.1667 73.5,75.8333 73.5,76.5C 73.5,77.1667 73.1667,77.5 72.5,77.5C 71.1001,76.9002 70.1001,75.9002 69.5,74.5C 69.5,73.8333 69.5,73.1667 69.5,72.5 Z"/></g>
<g><path style="opacity:0.012" fill="#4c4e40" d="M 82.5,72.5 C 82.5,74.8333 82.5,77.1667 82.5,79.5C 81.8333,79.1667 81.1667,78.8333 80.5,78.5C 80.5,77.8333 80.1667,77.5 79.5,77.5C 79.5,76.5 79.5,75.5 79.5,74.5C 80.2216,74.9175 80.7216,75.5842 81,76.5C 81.21,74.9419 81.71,73.6085 82.5,72.5 Z"/></g>
<g><path style="opacity:1" fill="#bd3d06" d="M 26.5,72.5 C 26.5,74.8333 26.5,77.1667 26.5,79.5C 26.1583,80.3382 25.4916,80.6716 24.5,80.5C 23.6618,80.1583 23.3284,79.4916 23.5,78.5C 23.5,78.1667 23.5,77.8333 23.5,77.5C 24.404,76.791 24.7373,75.791 24.5,74.5C 25.1667,73.8333 25.8333,73.1667 26.5,72.5 Z"/></g>
<g><path style="opacity:1" fill="#b54908" d="M 28.5,73.5 C 29.1667,73.8333 29.8333,74.1667 30.5,74.5C 30.3915,76.5138 31.0582,78.1805 32.5,79.5C 32.5,79.8333 32.5,80.1667 32.5,80.5C 31.1667,79.5 29.8333,78.5 28.5,77.5C 28.5,76.1667 28.5,74.8333 28.5,73.5 Z"/></g>
<g><path style="opacity:0.992" fill="#50642c" d="M 55.5,74.5 C 56.391,75.1098 57.391,75.4431 58.5,75.5C 59.3382,75.8417 59.6716,76.5084 59.5,77.5C 59.5,77.8333 59.5,78.1667 59.5,78.5C 58.7784,78.9175 58.2784,79.5842 58,80.5C 57.9252,78.065 57.0919,77.3984 55.5,78.5C 54.8333,77.8333 54.1667,77.1667 53.5,76.5C 53.5,76.1667 53.5,75.8333 53.5,75.5C 54.4916,75.6716 55.1583,75.3382 55.5,74.5 Z"/></g>
<g><path style="opacity:0.596" fill="#c48348" d="M 30.5,73.5 C 30.8333,73.5 31.1667,73.5 31.5,73.5C 32.242,75.9798 33.242,78.3131 34.5,80.5C 33.8333,80.1667 33.1667,79.8333 32.5,79.5C 31.0582,78.1805 30.3915,76.5138 30.5,74.5C 30.5,74.1667 30.5,73.8333 30.5,73.5 Z"/></g>
<g><path style="opacity:0.008" fill="#6a6b6a" d="M 36.5,78.5 C 37.8333,79.1667 37.8333,79.1667 36.5,78.5 Z"/></g>
<g><path style="opacity:1" fill="#bc4307" d="M 26.5,79.5 C 26.8333,79.5 27.1667,79.5 27.5,79.5C 28.4013,80.2905 29.0679,81.2905 29.5,82.5C 29.19,83.7383 28.69,83.7383 28,82.5C 27.5357,83.0944 27.369,83.7611 27.5,84.5C 27.5,85.1667 27.1667,85.5 26.5,85.5C 26.1667,85.5 25.8333,85.5 25.5,85.5C 25.634,83.7085 25.3007,82.0418 24.5,80.5C 25.4916,80.6716 26.1583,80.3382 26.5,79.5 Z"/></g>
<g><path style="opacity:0.643" fill="#a96c4e" d="M 51.5,78.5 C 53.2252,78.8425 53.7252,79.8425 53,81.5C 51.9614,80.7562 51.4614,79.7562 51.5,78.5 Z"/></g>
<g><path style="opacity:0.838" fill="#2e3e1b" d="M 59.5,78.5 C 59.8333,78.5 60.1667,78.5 60.5,78.5C 58.9893,80.8375 59.3227,81.5042 61.5,80.5C 61.1788,82.0481 60.1788,82.7148 58.5,82.5C 58.2627,83.791 58.596,84.791 59.5,85.5C 59.0269,86.9063 58.0269,87.573 56.5,87.5C 58.0441,84.8279 57.7107,82.4945 55.5,80.5C 55.5,79.8333 55.5,79.1667 55.5,78.5C 57.0919,77.3984 57.9252,78.065 58,80.5C 58.2784,79.5842 58.7784,78.9175 59.5,78.5 Z"/></g>
<g><path style="opacity:0.992" fill="#262e17" d="M 61.5,77.5 C 62.391,78.1098 63.391,78.4431 64.5,78.5C 64.5,79.1667 64.5,79.8333 64.5,80.5C 63.5,80.5 62.5,80.5 61.5,80.5C 59.3227,81.5042 58.9893,80.8375 60.5,78.5C 61.1667,78.5 61.5,78.1667 61.5,77.5 Z"/></g>
<g><path style="opacity:0.659" fill="#555925" d="M 79.5,78.5 C 79.5,79.1667 79.5,79.8333 79.5,80.5C 79.5,80.8333 79.5,81.1667 79.5,81.5C 78.596,82.209 78.2627,83.209 78.5,84.5C 77.596,83.791 77.2627,82.791 77.5,81.5C 77.7373,80.209 77.404,79.209 76.5,78.5C 76.5,78.1667 76.5,77.8333 76.5,77.5C 77.1174,77.3893 77.6174,77.056 78,76.5C 78.2784,77.4158 78.7784,78.0825 79.5,78.5 Z"/></g>
<g><path style="opacity:0.318" fill="#4f5737" d="M 100.5,81.5 C 99.209,81.2627 98.209,81.596 97.5,82.5C 97.1667,82.5 96.8333,82.5 96.5,82.5C 95.3588,81.661 94.0255,80.9943 92.5,80.5C 91.7025,80.9569 91.3691,81.6236 91.5,82.5C 91.1667,82.5 90.8333,82.5 90.5,82.5C 90.5,81.1667 89.8333,80.5 88.5,80.5C 88.5,80.1667 88.5,79.8333 88.5,79.5C 92.0326,79.0515 95.366,78.7181 98.5,78.5C 99.9185,79.0047 100.585,80.0047 100.5,81.5 Z"/></g>
<g><path style="opacity:0.157" fill="#84786e" d="M 15.5,77.5 C 16.1667,77.5 16.8333,77.5 17.5,77.5C 17.5,78.1667 17.5,78.8333 17.5,79.5C 16.1667,79.8333 16.1667,80.1667 17.5,80.5C 18.1667,80.5 18.5,80.8333 18.5,81.5C 17.5416,81.9528 16.7083,82.6195 16,83.5C 15.6667,83.1667 15.3333,82.8333 15,82.5C 15.2522,80.7191 15.4189,79.0524 15.5,77.5 Z"/></g>
<g><path style="opacity:0.996" fill="#a02809" d="M 23.5,78.5 C 23.3284,79.4916 23.6618,80.1583 24.5,80.5C 25.3007,82.0418 25.634,83.7085 25.5,85.5C 25.1667,85.5 24.8333,85.5 24.5,85.5C 24.573,83.9731 23.9063,82.9731 22.5,82.5C 21.4937,82.0623 21.4937,81.3957 22.5,80.5C 22.3284,79.5084 22.6618,78.8417 23.5,78.5 Z"/></g>
<g><path style="opacity:1" fill="#c45708" d="M 28.5,77.5 C 29.8333,78.5 31.1667,79.5 32.5,80.5C 32.5,80.8333 32.5,81.1667 32.5,81.5C 31.7321,82.2625 31.2321,83.2625 31,84.5C 30.7216,83.5842 30.2216,82.9175 29.5,82.5C 29.0679,81.2905 28.4013,80.2905 27.5,79.5C 27.3284,78.5084 27.6618,77.8417 28.5,77.5 Z"/></g>
<g><path style="opacity:0.89" fill="#242414" d="M 83.5,80.5 C 84.9187,79.5489 86.5853,79.2155 88.5,79.5C 88.5,79.8333 88.5,80.1667 88.5,80.5C 87.5987,81.2905 86.9321,82.2905 86.5,83.5C 85.8999,82.0998 84.8999,81.0998 83.5,80.5 Z"/></g>
<g><path style="opacity:0.992" fill="#ae5f2e" d="M 32.5,79.5 C 33.1667,79.8333 33.8333,80.1667 34.5,80.5C 35.8923,82.2726 37.059,84.2726 38,86.5C 38.8928,85.2888 39.7261,85.2888 40.5,86.5C 39.7573,87.1818 39.0906,87.8485 38.5,88.5C 37.609,87.8902 36.609,87.5569 35.5,87.5C 34.9708,85.2156 33.9708,83.2156 32.5,81.5C 32.5,81.1667 32.5,80.8333 32.5,80.5C 32.5,80.1667 32.5,79.8333 32.5,79.5 Z"/></g>
<g><path style="opacity:0.89" fill="#273240" d="M 37.5,80.5 C 40.5476,80.494 41.0476,81.494 39,83.5C 37.9614,82.7562 37.4614,81.7562 37.5,80.5 Z"/></g>
<g><path style="opacity:0.8" fill="#4b5724" d="M 67.5,74.5 C 67.8333,74.5 68.1667,74.5 68.5,74.5C 68.5,75.5 68.5,76.5 68.5,77.5C 68.5,77.8333 68.5,78.1667 68.5,78.5C 68.5,80.5 68.5,82.5 68.5,84.5C 69.5,84.5 70.5,84.5 71.5,84.5C 71.5,84.8333 71.5,85.1667 71.5,85.5C 68.9899,85.9465 66.9899,85.2798 65.5,83.5C 66.404,82.791 66.7373,81.791 66.5,80.5C 66.5,79.8333 66.5,79.1667 66.5,78.5C 66.8333,77.1667 67.1667,75.8333 67.5,74.5 Z"/></g>
<g><path style="opacity:0.561" fill="#586021" d="M 76.5,78.5 C 77.404,79.209 77.7373,80.209 77.5,81.5C 76.8333,81.5 76.1667,81.5 75.5,81.5C 74.609,82.1098 73.609,82.4431 72.5,82.5C 72.5,81.8333 72.5,81.1667 72.5,80.5C 73.5137,79.3263 74.847,78.6596 76.5,78.5 Z"/></g>
<g><path style="opacity:0.714" fill="#575246" d="M 100.5,81.5 C 99.4241,87.1101 98.4241,87.4434 97.5,82.5C 98.209,81.596 99.209,81.2627 100.5,81.5 Z"/></g>
<g><path style="opacity:0.992" fill="#38441c" d="M 61.5,80.5 C 62.5,80.5 63.5,80.5 64.5,80.5C 65.1667,80.5 65.8333,80.5 66.5,80.5C 66.7373,81.791 66.404,82.791 65.5,83.5C 64.5655,84.5676 64.2322,85.901 64.5,87.5C 62.6776,87.1692 61.0109,86.5025 59.5,85.5C 58.596,84.791 58.2627,83.791 58.5,82.5C 60.1788,82.7148 61.1788,82.0481 61.5,80.5 Z"/></g>
<g><path style="opacity:0.902" fill="#1b2110" d="M 80.5,78.5 C 81.1667,78.8333 81.8333,79.1667 82.5,79.5C 82.5,79.8333 82.5,80.1667 82.5,80.5C 81.3586,82.5487 81.3586,84.5487 82.5,86.5C 82.1667,86.5 81.8333,86.5 81.5,86.5C 80.5,86.5 79.5,86.5 78.5,86.5C 78.5,85.8333 78.5,85.1667 78.5,84.5C 79.404,83.791 79.7373,82.791 79.5,81.5C 79.5,81.1667 79.5,80.8333 79.5,80.5C 80.3382,80.1583 80.6716,79.4916 80.5,78.5 Z"/></g>
<g><path style="opacity:0.992" fill="#444a15" d="M 88.5,80.5 C 89.8333,80.5 90.5,81.1667 90.5,82.5C 90.5,82.8333 90.5,83.1667 90.5,83.5C 90.5,84.1667 90.5,84.8333 90.5,85.5C 89.8333,85.5 89.1667,85.5 88.5,85.5C 88.5,84.1667 87.8333,83.5 86.5,83.5C 86.9321,82.2905 87.5987,81.2905 88.5,80.5 Z"/></g>
<g><path style="opacity:0.055" fill="#585451" d="M 17.5,80.5 C 17.5,80.1667 17.5,79.8333 17.5,79.5C 17.8333,79.5 18.1667,79.5 18.5,79.5C 19.1667,79.5 19.8333,79.5 20.5,79.5C 21.1667,79.8333 21.8333,80.1667 22.5,80.5C 21.4937,81.3957 21.4937,82.0623 22.5,82.5C 22.5,82.8333 22.5,83.1667 22.5,83.5C 21.3143,84.7054 21.3143,86.0387 22.5,87.5C 22.5,87.8333 22.5,88.1667 22.5,88.5C 19.5493,87.1906 18.2159,84.8573 18.5,81.5C 18.5,80.8333 18.1667,80.5 17.5,80.5 Z"/></g>
<g><path style="opacity:0.988" fill="#2a3612" d="M 75.5,81.5 C 75.8039,82.1499 76.1373,82.8165 76.5,83.5C 75.3984,84.1757 74.3984,84.8423 73.5,85.5C 72.8333,85.5 72.1667,85.5 71.5,85.5C 71.5,85.1667 71.5,84.8333 71.5,84.5C 71.5,84.1667 71.5,83.8333 71.5,83.5C 72.1667,83.5 72.5,83.1667 72.5,82.5C 73.609,82.4431 74.609,82.1098 75.5,81.5 Z"/></g>
<g><path style="opacity:0.996" fill="#5a6620" d="M 82.5,80.5 C 82.8333,80.5 83.1667,80.5 83.5,80.5C 84.8999,81.0998 85.8999,82.0998 86.5,83.5C 87.8333,83.5 88.5,84.1667 88.5,85.5C 87.8333,85.5 87.1667,85.5 86.5,85.5C 84.8235,86.1834 84.1568,87.5168 84.5,89.5C 84.1667,89.5 83.8333,89.5 83.5,89.5C 83.7373,88.209 83.404,87.209 82.5,86.5C 81.3586,84.5487 81.3586,82.5487 82.5,80.5 Z"/></g>
<g><path style="opacity:0.678" fill="#273512" d="M 96.5,82.5 C 94.9519,82.8212 94.2852,83.8212 94.5,85.5C 93.1667,85.5 91.8333,85.5 90.5,85.5C 90.5,84.8333 90.5,84.1667 90.5,83.5C 91.1667,83.5 91.5,83.1667 91.5,82.5C 91.3691,81.6236 91.7025,80.9569 92.5,80.5C 94.0255,80.9943 95.3588,81.661 96.5,82.5 Z"/></g>
<g><path style="opacity:0.969" fill="#444e13" d="M 75.5,81.5 C 76.1667,81.5 76.8333,81.5 77.5,81.5C 77.2627,82.791 77.596,83.791 78.5,84.5C 78.5,85.1667 78.5,85.8333 78.5,86.5C 77.609,85.8902 76.609,85.5569 75.5,85.5C 74.8333,85.5 74.1667,85.5 73.5,85.5C 74.3984,84.8423 75.3984,84.1757 76.5,83.5C 76.1373,82.8165 75.8039,82.1499 75.5,81.5 Z"/></g>
<g><path style="opacity:0.918" fill="#494b33" d="M 106.5,86.5 C 104.797,85.3398 104.131,86.0065 104.5,88.5C 104.167,88.5 103.833,88.5 103.5,88.5C 103.854,86.4588 103.854,84.6255 103.5,83C 105.715,79.5383 107.048,79.8716 107.5,84C 107.472,85.0698 107.139,85.9032 106.5,86.5 Z"/></g>
<g><path style="opacity:1" fill="#ba3d05" d="M 27.5,84.5 C 29.5342,85.5907 30.8676,87.2574 31.5,89.5C 30.5313,90.3094 29.6979,91.3094 29,92.5C 28.6012,92.2716 28.4346,91.9382 28.5,91.5C 27.9759,89.6943 27.3092,88.0276 26.5,86.5C 26.5,86.1667 26.5,85.8333 26.5,85.5C 27.1667,85.5 27.5,85.1667 27.5,84.5 Z"/></g>
<g><path style="opacity:1" fill="#c55a07" d="M 32.5,81.5 C 33.9708,83.2156 34.9708,85.2156 35.5,87.5C 35.5,87.8333 35.5,88.1667 35.5,88.5C 34.5178,87.8592 33.5178,87.1925 32.5,86.5C 31.6143,87.325 31.281,88.325 31.5,89.5C 30.8676,87.2574 29.5342,85.5907 27.5,84.5C 27.369,83.7611 27.5357,83.0944 28,82.5C 28.69,83.7383 29.19,83.7383 29.5,82.5C 30.2216,82.9175 30.7216,83.5842 31,84.5C 31.2321,83.2625 31.7321,82.2625 32.5,81.5 Z"/></g>
<g><path style="opacity:0.996" fill="#606f34" d="M 54.5,83.5 C 55.8264,85.1951 55.4931,86.5284 53.5,87.5C 50.0437,86.4638 49.7104,84.7971 52.5,82.5C 53.1835,82.8627 53.8501,83.1961 54.5,83.5 Z"/></g>
<g><path style="opacity:0.886" fill="#3e5225" d="M 55.5,80.5 C 57.7107,82.4945 58.0441,84.8279 56.5,87.5C 55.5,87.5 54.5,87.5 53.5,87.5C 55.4931,86.5284 55.8264,85.1951 54.5,83.5C 55.404,82.791 55.7373,81.791 55.5,80.5 Z"/></g>
<g><path style="opacity:1" fill="#cb5f05" d="M 35.5,88.5 C 36.1667,88.5 36.5,88.8333 36.5,89.5C 35.4324,90.4345 34.099,90.7678 32.5,90.5C 32.5,89.8333 32.1667,89.5 31.5,89.5C 31.281,88.325 31.6143,87.325 32.5,86.5C 33.5178,87.1925 34.5178,87.8592 35.5,88.5 Z"/></g>
<g><path style="opacity:0.322" fill="#3d3e28" d="M 75.5,85.5 C 76.609,85.5569 77.609,85.8902 78.5,86.5C 79.5,86.5 80.5,86.5 81.5,86.5C 81.8333,87.8333 82.1667,87.8333 82.5,86.5C 83.404,87.209 83.7373,88.209 83.5,89.5C 81.412,88.0605 79.0786,87.3939 76.5,87.5C 76.1667,86.8333 75.8333,86.1667 75.5,85.5 Z"/></g>
<g><path style="opacity:0.788" fill="#35431a" d="M 74.5,90.5 C 73.8333,90.5 73.1667,90.5 72.5,90.5C 72.1667,89.1667 71.8333,89.1667 71.5,90.5C 70.5284,88.5069 69.1951,88.1736 67.5,89.5C 67.5587,87.2776 68.7253,86.2776 71,86.5C 73.7561,86.4235 74.9228,87.7569 74.5,90.5 Z"/></g>
<g><path style="opacity:0.982" fill="#6a7241" d="M 76.5,88.5 C 76.5,88.1667 76.5,87.8333 76.5,87.5C 79.0786,87.3939 81.412,88.0605 83.5,89.5C 83.8333,89.5 84.1667,89.5 84.5,89.5C 84.5,91.5 84.5,93.5 84.5,95.5C 83.7109,95.2172 83.0442,94.7172 82.5,94C 83.7736,93.0228 83.7736,92.1894 82.5,91.5C 81.4324,90.5655 80.099,90.2322 78.5,90.5C 78.5,89.1667 77.8333,88.5 76.5,88.5 Z"/></g>
<g><path style="opacity:0.733" fill="#3f4825" d="M 106.5,86.5 C 107.175,88.2832 107.508,89.9498 107.5,91.5C 107.44,92.0431 107.107,92.3764 106.5,92.5C 105.828,91.0508 105.161,89.7175 104.5,88.5C 104.131,86.0065 104.797,85.3398 106.5,86.5 Z"/></g>
<g><path style="opacity:0.996" fill="#a93a0e" d="M 24.5,85.5 C 24.8333,85.5 25.1667,85.5 25.5,85.5C 25.8333,85.5 26.1667,85.5 26.5,85.5C 26.5,85.8333 26.5,86.1667 26.5,86.5C 26.9465,89.0101 26.2798,91.0101 24.5,92.5C 23.609,93.1098 22.609,93.4431 21.5,93.5C 21.5,92.8333 21.5,92.1667 21.5,91.5C 23.539,90.089 24.539,88.089 24.5,85.5 Z"/></g>
<g><path style="opacity:0.89" fill="#4e612a" d="M 102.5,88.5 C 102.5,88.8333 102.5,89.1667 102.5,89.5C 100.833,89.5 99.1667,89.5 97.5,89.5C 96.1667,89.5 95.5,90.1667 95.5,91.5C 95.1667,91.5 94.8333,91.5 94.5,91.5C 93.1667,90.1667 93.1667,88.8333 94.5,87.5C 94.4346,87.0618 94.6012,86.7284 95,86.5C 96.0852,87.2931 97.2519,87.9598 98.5,88.5C 99.865,87.1931 101.198,87.1931 102.5,88.5 Z"/></g>
<g><path style="opacity:1" fill="#c3530d" d="M 26.5,86.5 C 27.3092,88.0276 27.9759,89.6943 28.5,91.5C 27.1667,92.1667 26.1667,93.1667 25.5,94.5C 24.6618,94.1583 24.3284,93.4916 24.5,92.5C 26.2798,91.0101 26.9465,89.0101 26.5,86.5 Z"/></g>
<g><path style="opacity:0.973" fill="#455414" d="M 86.5,85.5 C 87.0998,86.8999 88.0998,87.8999 89.5,88.5C 89.5,88.8333 89.5,89.1667 89.5,89.5C 88.8333,90.1667 88.1667,90.8333 87.5,91.5C 86.2223,91.2178 85.2223,90.5511 84.5,89.5C 84.1568,87.5168 84.8235,86.1834 86.5,85.5 Z"/></g>
<g><path style="opacity:0.976" fill="#384517" d="M 94.5,87.5 C 93.1667,88.8333 93.1667,90.1667 94.5,91.5C 94.8333,92.8333 95.1667,92.8333 95.5,91.5C 95.5,90.1667 96.1667,89.5 97.5,89.5C 97.5,90.8333 97.5,92.1667 97.5,93.5C 95.7085,93.366 94.0418,93.6993 92.5,94.5C 92.5,92.8333 92.5,91.1667 92.5,89.5C 92.5,88.1667 93.1667,87.5 94.5,87.5 Z"/></g>
<g><path style="opacity:0.99" fill="#293a1b" d="M 104.5,88.5 C 105.161,89.7175 105.828,91.0508 106.5,92.5C 107.107,92.3764 107.44,92.0431 107.5,91.5C 110.115,93.4769 109.615,94.8102 106,95.5C 105.235,95.4301 104.735,95.0967 104.5,94.5C 104.758,92.8098 104.758,90.8098 104.5,88.5 Z"/></g>
<g><path style="opacity:0.329" fill="#d39b75" d="M 22.5,82.5 C 23.9063,82.9731 24.573,83.9731 24.5,85.5C 24.539,88.089 23.539,90.089 21.5,91.5C 21.5569,90.391 21.8902,89.391 22.5,88.5C 22.5,88.1667 22.5,87.8333 22.5,87.5C 23.6857,86.2946 23.6857,84.9613 22.5,83.5C 22.5,83.1667 22.5,82.8333 22.5,82.5 Z"/></g>
<g><path style="opacity:1" fill="#c7620d" d="M 36.5,89.5 C 36.8356,90.6714 36.8356,91.6714 36.5,92.5C 34.8333,93.1667 33.1667,93.8333 31.5,94.5C 30.609,95.1098 29.609,95.4431 28.5,95.5C 29.8333,93.8333 31.1667,92.1667 32.5,90.5C 34.099,90.7678 35.4324,90.4345 36.5,89.5 Z"/></g>
<g><path style="opacity:0.992" fill="#545d24" d="M 71.5,90.5 C 71.8333,90.5 72.1667,90.5 72.5,90.5C 72.8333,91.5 73.5,92.1667 74.5,92.5C 73.713,94.1042 72.3797,94.7709 70.5,94.5C 68.7215,93.3303 67.7215,91.6636 67.5,89.5C 69.1951,88.1736 70.5284,88.5069 71.5,90.5 Z"/></g>
<g><path style="opacity:0.992" fill="#3a3d20" d="M 76.5,88.5 C 77.8333,88.5 78.5,89.1667 78.5,90.5C 77.3951,91.6005 76.0618,92.2671 74.5,92.5C 74.5,91.8333 74.5,91.1667 74.5,90.5C 75.1667,89.8333 75.8333,89.1667 76.5,88.5 Z"/></g>
<g><path style="opacity:1" fill="#b9580c" d="M 35.5,88.5 C 35.5,88.1667 35.5,87.8333 35.5,87.5C 36.609,87.5569 37.609,87.8902 38.5,88.5C 38.8333,89.8333 39.1667,91.1667 39.5,92.5C 38.5,92.5 37.5,92.5 36.5,92.5C 36.8356,91.6714 36.8356,90.6714 36.5,89.5C 36.5,88.8333 36.1667,88.5 35.5,88.5 Z"/></g>
<g><path style="opacity:0.698" fill="#34441b" d="M 97.5,89.5 C 99.1667,89.5 100.833,89.5 102.5,89.5C 100.59,90.684 100.257,92.184 101.5,94C 100.552,94.4828 99.552,94.6495 98.5,94.5C 98.5,93.8333 98.1667,93.5 97.5,93.5C 97.5,92.1667 97.5,90.8333 97.5,89.5 Z"/></g>
<g><path style="opacity:0.998" fill="#ca6616" d="M 36.5,92.5 C 37.5,92.5 38.5,92.5 39.5,92.5C 40.2891,92.7828 40.9558,93.2828 41.5,94C 39.8659,94.4935 38.1992,94.6602 36.5,94.5C 34.8333,94.5 33.1667,94.5 31.5,94.5C 33.1667,93.8333 34.8333,93.1667 36.5,92.5 Z"/></g>
<g><path style="opacity:0.871" fill="#465623" d="M 84.5,89.5 C 85.2223,90.5511 86.2223,91.2178 87.5,91.5C 87.5,91.8333 87.5,92.1667 87.5,92.5C 87.5,92.8333 87.5,93.1667 87.5,93.5C 86.7777,94.5511 85.7777,95.2178 84.5,95.5C 84.5,93.5 84.5,91.5 84.5,89.5 Z"/></g>
<g><path style="opacity:0.937" fill="#3d4112" d="M 89.5,89.5 C 91.1788,92.0121 90.8454,94.0121 88.5,95.5C 88.7373,94.209 88.404,93.209 87.5,92.5C 87.5,92.1667 87.5,91.8333 87.5,91.5C 88.1667,90.8333 88.8333,90.1667 89.5,89.5 Z"/></g>
<g><path style="opacity:0.675" fill="#293216" d="M 89.5,88.5 C 90.391,89.1098 91.391,89.4431 92.5,89.5C 92.5,91.1667 92.5,92.8333 92.5,94.5C 92.5,94.8333 92.5,95.1667 92.5,95.5C 90.9272,97.8362 89.5939,97.8362 88.5,95.5C 90.8454,94.0121 91.1788,92.0121 89.5,89.5C 89.5,89.1667 89.5,88.8333 89.5,88.5 Z"/></g>
<g><path style="opacity:0.925" fill="#313a22" d="M 102.5,88.5 C 102.833,88.5 103.167,88.5 103.5,88.5C 103.833,88.5 104.167,88.5 104.5,88.5C 104.758,90.8098 104.758,92.8098 104.5,94.5C 103.883,94.3893 103.383,94.056 103,93.5C 101.876,96.8418 100.376,97.1751 98.5,94.5C 99.552,94.6495 100.552,94.4828 101.5,94C 100.257,92.184 100.59,90.684 102.5,89.5C 102.5,89.1667 102.5,88.8333 102.5,88.5 Z"/></g>
<g><path style="opacity:0.549" fill="#c67a4b" d="M 17.5,93.5 C 17.1667,94.1667 16.8333,94.8333 16.5,95.5C 14.6536,95.7778 13.3202,95.1112 12.5,93.5C 14.1673,92.3336 15.834,92.3336 17.5,93.5 Z"/></g>
<g><path style="opacity:0.996" fill="#bb4c07" d="M 31.5,89.5 C 32.1667,89.5 32.5,89.8333 32.5,90.5C 31.1667,92.1667 29.8333,93.8333 28.5,95.5C 28.1667,95.5 27.8333,95.5 27.5,95.5C 27.1583,94.6618 26.4916,94.3284 25.5,94.5C 26.1667,93.1667 27.1667,92.1667 28.5,91.5C 28.4346,91.9382 28.6012,92.2716 29,92.5C 29.6979,91.3094 30.5313,90.3094 31.5,89.5 Z"/></g>
<g><path style="opacity:0.004" fill="#525626" d="M 78.5,90.5 C 78.5,91.1667 78.5,91.8333 78.5,92.5C 78.1788,94.0481 77.1788,94.7148 75.5,94.5C 74.7638,96.2294 73.4305,97.2294 71.5,97.5C 70.9002,96.1001 69.9002,95.1001 68.5,94.5C 69.1667,94.5 69.8333,94.5 70.5,94.5C 72.3797,94.7709 73.713,94.1042 74.5,92.5C 76.0618,92.2671 77.3951,91.6005 78.5,90.5 Z"/></g>
<g><path style="opacity:0.806" fill="#424824" d="M 82.5,91.5 C 83.7736,92.1894 83.7736,93.0228 82.5,94C 83.0442,94.7172 83.7109,95.2172 84.5,95.5C 85.7777,95.2178 86.7777,94.5511 87.5,93.5C 87.5,94.5 87.5,95.5 87.5,96.5C 84.7628,96.4013 82.0961,96.7347 79.5,97.5C 79.5271,95.8007 80.1938,94.4674 81.5,93.5C 81.8333,92.8333 82.1667,92.1667 82.5,91.5 Z"/></g>
<g><path style="opacity:0.765" fill="#bc5f30" d="M 21.5,91.5 C 21.5,92.1667 21.5,92.8333 21.5,93.5C 21.5,94.1667 21.5,94.8333 21.5,95.5C 21.5,95.8333 21.5,96.1667 21.5,96.5C 19.8828,95.962 18.2161,95.6287 16.5,95.5C 16.8333,94.8333 17.1667,94.1667 17.5,93.5C 18.5137,92.3263 19.847,91.6596 21.5,91.5 Z"/></g>
<g><path style="opacity:0.892" fill="#c0551b" d="M 24.5,92.5 C 24.3284,93.4916 24.6618,94.1583 25.5,94.5C 26.4916,94.3284 27.1583,94.6618 27.5,95.5C 25.5,95.5 23.5,95.5 21.5,95.5C 21.5,94.8333 21.5,94.1667 21.5,93.5C 22.609,93.4431 23.609,93.1098 24.5,92.5 Z"/></g>
<g><path style="opacity:0.863" fill="#b66018" d="M 31.5,94.5 C 33.1667,94.5 34.8333,94.5 36.5,94.5C 36.8333,95.1667 37.1667,95.8333 37.5,96.5C 32.1667,96.5 26.8333,96.5 21.5,96.5C 21.5,96.1667 21.5,95.8333 21.5,95.5C 23.5,95.5 25.5,95.5 27.5,95.5C 27.8333,95.5 28.1667,95.5 28.5,95.5C 29.609,95.4431 30.609,95.1098 31.5,94.5 Z"/></g>
<g><path style="opacity:0.98" fill="#a26234" d="M 38.5,88.5 C 40.5031,91.4975 43.1697,93.8309 46.5,95.5C 44.7612,95.5938 42.7612,95.7605 40.5,96C 39.6477,97.7284 38.6477,97.895 37.5,96.5C 37.1667,95.8333 36.8333,95.1667 36.5,94.5C 38.1992,94.6602 39.8659,94.4935 41.5,94C 40.9558,93.2828 40.2891,92.7828 39.5,92.5C 39.1667,91.1667 38.8333,89.8333 38.5,88.5 Z"/></g>
<g><path style="opacity:0.902" fill="#526132" d="M 97.5,93.5 C 98.1667,93.5 98.5,93.8333 98.5,94.5C 96.9064,94.9195 95.4064,95.5862 94,96.5C 93.2352,96.4301 92.7352,96.0967 92.5,95.5C 92.5,95.1667 92.5,94.8333 92.5,94.5C 94.0418,93.6993 95.7085,93.366 97.5,93.5 Z"/></g>
<g><path style="opacity:0.957" fill="#393b21" d="M 78.5,92.5 C 79.391,93.1098 80.391,93.4431 81.5,93.5C 80.1938,94.4674 79.5271,95.8007 79.5,97.5C 77.5956,97.2624 76.2623,96.2624 75.5,94.5C 77.1788,94.7148 78.1788,94.0481 78.5,92.5 Z"/></g>
<g><path style="opacity:0.835" fill="#4e4f29" d="M 68.5,94.5 C 69.9002,95.1001 70.9002,96.1001 71.5,97.5C 69.8008,97.6602 68.1341,97.4935 66.5,97C 65.1404,94.1924 65.8071,93.3591 68.5,94.5 Z"/></g>
<g><path style="opacity:0.406" fill="#c7c7c9" d="M 4.5,97.5 C 5.97782,97.238 7.31116,97.5713 8.5,98.5C 7.83333,98.8333 7.16667,99.1667 6.5,99.5C 5.28665,99.2528 4.61998,98.5862 4.5,97.5 Z"/></g>
<g><path style="opacity:0.133" fill="#c7c7c7" d="M 1.5,97.5 C 2.57346,98.2506 2.74012,99.2506 2,100.5C 0.271648,99.6477 0.104981,98.6477 1.5,97.5 Z"/></g>
</svg>
