<?xml version="1.0" encoding="UTF-8"?>
<svg version="1.1" viewBox="0 0 2048 2048" width="1280" height="1280" xmlns="http://www.w3.org/2000/svg">
<path transform="translate(1128,388)" d="m0 0h7l9 8 6 10 6 13 1 3v10l-6 7-10 6-21 12-23 14-22 14-24 15-56 34-19 11-11 7-16 9-16 10h18l21-8 11-2h50l29 2 24 5 25 7 20 8 16 8 21 13 16 12 14 12 12 11 9 11 10 12 13 18 14 24 12 27 8 22 4 20 2 20v56l-2 23-3 15-7 19-13 31-12 21-10 16-13 17-10 11-6 7-8 7-3 1v2l-14 11-13 10-15 10-17 9-9 4-8-1-7 4-10 6-12 3-16 2-49 2h-17l-27-1-26-3-13-4-20-8-16-7-17-9-19-13-11-9-10-9-7-6v-2l-4-2-7-8-7-7-13-17-10-15-12-21-9-19-6-16-4-17-2-22v-74l2-23 4-19 6-18 11-25 8-14 5-9 9-14 11-14 6-7 8-7 9-9 3-5-9 3-21 14-19 12-15 9-41 26-21 12-27 18-24 15-29 19-14 9-15 10-3-1-7-19-5-12-9-10-2-4 1-4 5-5 20-11 22-13 15-10 20-12 44-28 23-14 15-10 26-16 29-17 20-13 24-15 22-14 46-28 24-15 21-13 20-12 18-11 21-13 10-7 22-14 21-13 23-14 15-10z" fill="#9E0F2B"/>
<path transform="translate(1128,388)" d="m0 0h7l9 8 6 10 6 13 1 3v10l-6 7-10 6-21 12-23 14-22 14-24 15-56 34-19 11-11 7-16 9-16 10 11 1v2l-30 14-23 12-22 13-17 12-9 3-16 10-10 7-21 13-23 14-20 13-35 21-21 14-24 15-29 19-14 9-15 10-3-1-7-19-5-12-9-10-2-4 1-4 5-5 20-11 22-13 15-10 20-12 44-28 23-14 15-10 26-16 29-17 20-13 24-15 22-14 46-28 24-15 21-13 20-12 18-11 21-13 10-7 22-14 21-13 23-14 15-10z" fill="#323131"/>
<path transform="translate(1459,1164)" d="m0 0h114l19 2 16 4 12 5 10 7 12 12 9 14 7 15 3 11 2 16v10l-3 17-9 19-11 13-11 10-13 8-16 6-13 3-34 4v3l12 17 8 10 8 11 10 13 13 16 9 11 14 17 10 13 12 17 11 16 2 3v4l-8 2h-14l-10-4-9-7-5-4-7-8-9-10-13-17-12-15-13-18-14-19-13-17-22-28-7-7-13-6-3-1v96l-2 61-8 2h-18l-4-7-1-68v-248zm32 30-1 2-1 36v71l1 2 11 1h63l17-1 12-3 12-7 10-9 6-7 4-11 2-10v-12l-3-12-7-14-9-10-12-6-18-4-38-4-28-2z" fill="#333131"/>
<path transform="translate(1861,1159)" d="m0 0h62l26 4 21 7 17 9 16 12 11 10 10 15 3 8-3 10-5 7-5 2-9-3-10-7-18-14-18-12-16-8-17-6-20-3h-30l-19 3-19 5-16 7-16 10-13 10-11 10-8 10-8 13-7 15-5 19-2 12-1 14v22l3 26 4 16 7 14 10 13 9 10 12 12 17 13 16 9 18 8 17 4 8 1h38l23-5 21-9 16-9 14-10 20-16 8-3 7 3 6 7 3 7v6l-6 8-7 7-11 9-13 10-16 9-14 6-20 6-21 4-16 2h-31l-19-2-20-4-18-6-17-8-13-8-13-10-17-17-12-16-13-24-8-19-5-17-3-15-1-8v-34l4-23 7-23 5-12 12-22 10-14 9-11 8-8 14-11 14-9 15-8 16-5 15-3z" fill="#333131"/>
<path transform="translate(1251,1158)" d="m0 0 4 2 4 8 10 28 17 36 21 42 9 20 15 32 13 28 15 33 13 28 13 29 11 29 6 18v2l-2 1-15-1-12-5-5-4-10-15-14-27-11-24-14-29-4-5h-137l-8 16-7 16-8 16-10 21-7 15-7 16-5 6-2 1-16 1h-13l-2-1 3-10 11-23 15-33 9-19 15-35 16-32 15-31 9-20 21-45 13-28 8-17 10-19 8-16zm-3 78-8 13-11 25-12 26-16 35-5 11-1 6 16 1h44l28 1h18l-1-5-11-28-24-54-8-19-7-11z" fill="#9E102C"/>
<path transform="translate(99,1158)" d="m0 0h27l14 2 13 4 11 6 13 9 7 8 4 8 2 6v18l-4 6-3 3h-6l-9-6-16-16-14-9-10-4-11-2h-9l-13 2-10 5-9 9-6 10-3 9v11l4 10 9 14 12 12 11 9 21 16 17 13 14 12 13 12 8 8 7 8 10 14 9 16 4 11 2 19-1 12-4 12-12 21-9 11-9 10-9 8-14 8-16 5-7 1h-22l-20-3-12-4-16-8-9-7-8-7-9-12-8-16-3-9-1-8 2-10 3-4 6 1 9 5 5 4 9 11 13 13v2l4 2 14 10 12 6 7 2h16l10-3 15-8 10-8 7-7 7-12 3-9-1-14-5-13-9-15-12-13-10-10-11-9-14-11-17-14-10-8-20-18-10-12-8-13-8-16-3-8v-19l3-12 6-15 9-15 11-12 10-7 11-5 7-2z" fill="#9E102C"/>
<path transform="translate(376,1240)" d="m0 0h11l19 2 17 5 20 9 12 7 13 11 11 13 11 17 11 21 7 21 2 12v26l-5 19-8 20-10 16-13 16-17 17-8 6-14 8-16 6-15 3-20 2h-12l-21-3-20-7-14-7-12-9-10-9-7-7-12-17-9-17-8-24-2-11-1-21 3-21 4-15 9-22 11-18 9-11 10-10 14-10 17-9 15-5 16-3zm-2 33-16 3-15 6-13 8-11 9v2h-2l-10 13-9 16-6 15-5 18-1 14 2 14 5 15 10 19 14 15 8 7 14 9 15 7 15 4 8 1h12l17-3 12-5 17-9 11-9 14-14 9-15 4-9 4-13 1-4v-24l-3-15-7-16-6-11-10-14-13-13-15-10-17-8-16-3z" fill="#333131"/>
<path transform="translate(860,1239)" d="m0 0h20l13 4 14 7 14 9 6 8 2 7v11l-3 6-2 2h-7l-16-8-8-6-8-4-12-3h-14l-9 3-10 8-6 9-3 9v10l3 8 7 8 13 9 16 10 25 15 14 10 10 9 10 13 8 17 1 3v19l-4 15-4 9-12 16-11 11-10 6-14 6-13 3h-13l-16-3-14-5-12-6-12-9-7-7-4-8 1-7 7-11 4-4 5 2 9 7 5 4 13 8 15 7 5 1h13l8-3 14-11 7-9 4-10v-13l-4-11-7-9-8-7-13-8-25-14-14-10-10-9-7-7-6-10-6-15-1-5v-15l4-16 7-14 8-10 9-8 13-8z" fill="#333131"/>
<path transform="translate(571,1159)" d="m0 0h15l5 3v224l-1 103-1 2-3 1h-15l-6-2-3-5-1-4-2-314 2-5 4-2z" fill="#333031"/>
<path transform="translate(707,1562)" d="m0 0h12l8 2 6 4 4 7 1 9 8-7 11-12 4-2h10l10 4 7 8 3 5 7 3 2 6 2 25v22l1 5v8l-1 2-9-1-12-6-6-12-2-6v-8l2-10v-13l-3-7-2-4h-5l-3 6-3 19 1 10 1 1v5l-4 9-4 12-5 6-9 3h-42l-43 1-14-2-7-6-4-9-2-12 2-40 4-11 6-5 2-1h9l2 2v57l3 7 4 2h10l5-3 2-5 1-6 1-22 3-20 3-10 5-6 10-3zm3 17-3 3-6 11-6 12-1 11 3 7 2 1 1-17 3-11 2-4h6l6 3h2l-1 12-4 9v2l-4 2-7 7v10l3 5 2 1h11l7-3 5-5 3-12 1-34-3-5-9-4-4-1z" fill="#9F122D"/>
<path transform="translate(546,1565)" d="m0 0 18 1 12 4 10 8 6 11 2 8v25l-3 10-6 10-8 7-5 3-13 2h-10v-2h-2l-2-2-10 3-21 1h-8l-13-3v-2l-11 5h-11l-7-6-1-20v-55l2-7h18l10 4 4 10 2 7 1 8v36l4 4 8 3h8l8-3 3-4 1-8 1-35 3-16 2-4 3-2zm9 19-4 2-1 3v14l1 7v19l-1 13 9-3 9-5 4-5 2-5v-15l-3-14-9-10z" fill="#363232"/>
<path transform="translate(1745,1562)" d="m0 0h13l8 3 4 6 1 7-6 4-10-2h-10l-7 11-4 14-2 13 1 9 4 5 2 6 5 1 2-1 10 4 8 1 6-4 4-9 2-13v-30h2l2-5 9-12 12-8h7l11 4 5 7 10 21v24l-4 11-5 6-4-1-10-6-3-4 1-4 6-9 1-8-8-16-6-5v-2h-2l-1 11v31l6-1h2l-1 3-4 3h-3l-2 9-6 12-6 5-11 2h-42l-7-2-5-4-5-9-1-3v-22l4-27 5-16 5-6 8-3z" fill="#9F122E"/>
<path transform="translate(2006,1561)" d="m0 0h12l5 5 1 2v16l-1 9 1 9 5 11 1 4v15l-2 11-4 6-10 4-10 2h-12l-6-4-3-4 1-5 1-2h7l12-4 5-5 3-9 1-18 6-8-2-16-1-4-5 1-3 6v25l-10 7-3 1-4 6-5 17h-1v-10l3-12 1-3-5-5-3-7v-4l-3 1-4 10-2 12-2 28-4 4-3 1h-8l-4-5-5-19-1-10v-11l4-17 2-27 2-2h13l4 4 6 21 3 3v4l2 1 1-6 5-13 4-11 5-3z" fill="#9F132F"/>
<path transform="translate(142,1562)" d="m0 0h23l9 5 5 6v2l6-4h5l3 8 4 16 3 10v9l-7 23-5 9-8 7-5 2-6 1h-31l-7-4-3-3-2-7-1-9 1-48 2-14 3-6 4-2zm16 12-5 3-3 5-1 10 4 11h2v5l-4 5-3 8v15l3 5 5 3 9-3 5-7 2-6v-15l-1-6v-13l1-6v-9l-5-5z" fill="#363233"/>
<path transform="translate(1856,1561)" d="m0 0h20l10 3 5 4 5 10 4 13 6 48 3 11v3h-11l-7-3-4-6-11-29-2-8v-25l-3-9-4 2-4 6-2 12 2 8 2 3v8l-4 17-2 16-4 6-4 3-13 1-7-3-4-8-2-8 7-6 4-7 1-27 3-16 4-11 4-5z" fill="#9F122D"/>
<path transform="translate(1670,1562)" d="m0 0 6 2 2 6v7l-6 12-2 17-3 29-3 12-4 5-10 3-10 1h-28l-8-5-4-8-1-9-1-40 1-26 1-1h11l2 2 3 12 2 17 1 24 2 12 4 8 4 2 10-2 5-4 3-5 1-5v-29l-3-10-9-16-4-9 3-1z" fill="#363132"/>
<path transform="translate(1302,1565)" d="m0 0h10l3 2 2 7 1 12 7 12 2 3 5 1 2 4 5-12 8-26 2-2 7 1 3 4 1 3v13l-1 9-6 11-11 17-3 7-2 11-6 8-2 2-7 1-4-2-2-4-2-21-1-16v-16l1-6-12 12-2 11-2 35-4 7-5 2-8-1-3-7v-11l-1-14v-20l4-15 5-8 12-12z" fill="#383233"/>
<path transform="translate(377,1564)" d="m0 0h7l1 1v10l-6 4-8 4-10 10-6 11-1 4v11l4 8 5 5 5 3 4 1h12l5-5 1-4v-32l-2-17-2-8v-5h7l11 4 3 5 7 30v9l-3 16-4 10-4 6-8 7-10 3h-13l-10-3-10-7-9-10-5-8-3-8v-17l4-11 6-9 9-8 15-8z" fill="#373233"/>
<path transform="translate(675,1159)" d="m0 0h25l12 1 5 3 1 1v50l-2 19-5 16-6 15-6 9-5 3h-8l-4-4 1-6 7-25 5-16-9-1-5-4-4-10-1-7-1-23z" fill="#333131"/>
<path transform="translate(1473,1565)" d="m0 0h19l8 3 11 10 7 14 3 12 1 8v13l-3 7-6 9-8 6-11 5-5 1h-18l-9-3-5-6v-27l-2-13v-15l5-17 5-5zm9 16-6 3-1 2 1 9 1 3v12l-3 15-3 8 1 4 1 1 11-1 10-4 7-8 1-4v-12l-3-14-7-11-5-3z" fill="#363132"/>
<path transform="translate(818,1562)" d="m0 0h18l11 4 7 7 6 12 3 10 1 9 1 21v20l-3 7-5 2-8-2-3-3-1-3-2-22-3-17-2-18-4-11-4-1-2 1-1 10 5 19v9l-5 21-5 10-4 4-3 1h-11v-2h2l3-12 2-9v-11l-2-22-3-20 1-8 5-5z" fill="#9F132E"/>
<path transform="translate(1567,1565)" d="m0 0 12 1 5 2 3 37v15l-2 15-6 10-8 6-14 5h-9l-6-4-7-11-2-9-1-37v-28l1-1h12l3 2 2 7 1 15 1 49h6l5-3 2-4 1-6v-19l-1-26v-14z" fill="#383233"/>
<path transform="translate(197,1561)" d="m0 0h12l8 4 3 5 5 12 2 4 5-2 3-3 5-10 5-5 3-2h11l5 5-1 12 9 24v11l-5 6h-4l-2 5-3 2 1-7 4-2 2-5-5 5-3-1v-3h-2l-3-7-1-25-3-1-2 4-2 13-2 48-5 5h-7l-3-4-4-13-4-20-5-7-9-25-6-8-8-7 1-5zm47 11m1 1-1 3h2zm0 4-1 2 4-2z" fill="#383233"/>
<path transform="translate(1117,1564)" d="m0 0h13l4 3 1 12 1 46 3 12 5-2 4-5 1-3 1-47 1-16h12l4 3 2 16v35l-1 12-4 9-4 6-6 6-8 3h-7l-9-6-10-10-3-7-1-22v-44z" fill="#383233"/>
<path transform="translate(970,1562)" d="m0 0h15l5 3 2 6-1 11v12l2 14 1 19-2 13-7 8-8 5-15 5h-10l-5-4-3-8 1-21 2-4h3l1 7 2 13 10-1 5-5 3-5 3-11 2-15 6-8 1-2v-7l-5-11h-6l-4 4-1 3v8l2 11 2 4-6 8-9 6-5-1-5-5-3-5-2-9v-10l6-12 3-8 5-4z" fill="#9F122D"/>
<path transform="translate(1415,1564)" d="m0 0h9l6 3 5 6 4 10 6 16 1 2 2 21 1 6v14l-2 6-6-1-9-6-4-5-3-8v-12l1-3v-16l-4-9h-5l-3 6v22l1 3v8l-5 15-2 10-1 1-9-1-6-5v-23l2-26 3-13 9-14 7-6z" fill="#373133"/>
<path transform="translate(20,1562)" d="m0 0h18l5 2 1 1v54l1 33-3 3h-34l-3-1v-2l-4-2-1-1v-82l3-2 13-2zm-4 10v12l2 24 2 4 7-2 3-4 2-10v-12l-4-6-8-6zm11 40-7 5-4 7-1 4v11l5 2h8l5-3 2-10v-11l-4-5z" fill="#383132"/>
<path transform="translate(64,1564)" d="m0 0h8l6 2 1 7 1 32 1 17 3 16 6-5 3-6 1-11 1-52h13l2 2 3 19 1 15-2 22-4 11-8 12-7 6-9 2-7-3-8-7-5-8-2-10-1-12v-37l1-9z" fill="#373132"/>
<path transform="translate(1207,1562)" d="m0 0h17l7 3 2 4-1 10-4 8-2 1-2-1-3-6-6-3h-6l-3 2-1 4v9l2 12 1 7-4 9-1 4v8l3 5 3 2h7l11-2 6 2 4 5-2 6-6 4-8 2-21 1-8-4-6-7-2-3-2-12v-44l2-15 3-6 3-2z" fill="#383233"/>
<path transform="translate(1070,1562)" d="m0 0h18l9 1 4 4 1 4v8l-3 5-3 1-4-2v-2l-6-2h-6l-2 7-1 7v36l2 8 2 2h6l13-12h3l3 10v15l-4 5-9 1-3-1-17-1-7-4-6-8-2-9v-40l3-23 4-8z" fill="#383233"/>
<path transform="translate(1953,1563)" d="m0 0h13l4 4 6 21 3 3v7l-4 9-2 7-1 7-2 28-4 4-3 1h-8l-4-5-5-19-1-10v-11l4-17 2-27z" fill="#9F112D"/>
<path transform="translate(1254,1562)" d="m0 0h16l5 3 1 2v8l-6 20-3 22-5 26-3 6-6 2h-7l-3-3-2-4 3-30 1-28v-18l5-5z" fill="#373233"/>
<path transform="translate(1302,1565)" d="m0 0h10l3 2 2 7 1 14-3 1h-2l-11 11-2 11-2 35-4 7-5 2-8-1-3-7v-11l-1-14v-20l4-15 5-8 12-12z" fill="#383233"/>
<path transform="translate(914,1565)" d="m0 0h12l4 4 2 5 2 13-1 37-2 18-3 9-4 3-9 1-3-2-3-16-3-18v-13l2-10 4-29z" fill="#9E112C"/>
<path transform="translate(1913,1563)" d="m0 0 14 1 5 2 3 17 5 22v19l-4 15-4 12-2 1h-11l-5-1 1-5 2-5 1-10-3-24-3-28v-15z" fill="#9F122E"/>
<path transform="translate(879,1562)" d="m0 0 12 1 4 4 2 10 3 28 2 3-1 11-6 34-1 2-4 1-8-2-3-5-2-45v-40z" fill="#9F112D"/>
<path transform="translate(433,1565)" d="m0 0 12 1 3 1 1 3 1 20v58l-4 5h-8l-5-3-2-4-6-42 5-35 1-3z" fill="#383435"/>
<path transform="translate(283,1563)" d="m0 0h12l3 3 2 11-1 18-4 15-8 18-3 12-8 12-9 1-4-4-1-5 5-12 7-16 5-16 2-16-1-11-1-9z" fill="#383233"/>
<path transform="translate(1349,1566)" d="m0 0 7 1 3 4 1 3v13l-1 9-6 11-11 17-3 7h-1l-1-9-5-15v-2l-4-1-2-1 1-2 5 1 2 4 5-12 8-26z" fill="#383233"/>
<path transform="translate(1017,1627)" d="m0 0 5 1 3 6 1 4v16l-5 6-10 1-6-2-1-5 3-10 8-15z" fill="#9E112C"/>
<path transform="translate(1091,1586)" d="m0 0 4 1 2 1v2h2l3 7v20l-4 4-10-2-3-4-1-3v-11l3-10z" fill="#393435"/>
<path transform="translate(1753,1591)" d="m0 0h6l1 1v14l-3 10-5 5-9 5h-2l-1-2v-9l3-17 5-5z" fill="#A01631"/>
<path transform="translate(1222,1589)" d="m0 0 4 1 3 4v12l-3 13-6 11h-3l1-9-4-9 1-10 3-7z" fill="#433437"/>
<path transform="translate(1326,1601)" d="m0 0 6 1 2 4 2-1 4 17 1 3-2 6h-1l-1-9-5-15v-2l-4-1-2-1z" fill="#A41F39"/>
<path transform="translate(263,1620)" d="m0 0 4 1-4 1-2 5-3 2 1-7z" fill="#863141"/>
</svg>
