<?xml version="1.0" encoding="UTF-8"?>
<svg xmlns="http://www.w3.org/2000/svg" xmlns:xlink="http://www.w3.org/1999/xlink" width="128pt" height="128pt" viewBox="0 0 128 128" version="1.1">
<g id="surface1">
<path style=" stroke:none;fill-rule:nonzero;fill:rgb(98.823529%,98.823529%,98.823529%);fill-opacity:1;" d="M 1.730469 0 L 126.269531 0 L 126.269531 128 L 1.730469 128 Z M 1.730469 0 "/>
<path style=" stroke:none;fill-rule:nonzero;fill:rgb(3.921569%,14.901961%,33.333333%);fill-opacity:1;" d="M 57.886719 39.4375 L 59.15625 40.128906 L 61.117188 41.398438 L 63.421875 42.898438 L 64 43.242188 L 66.765625 47.394531 L 68.726562 50.277344 L 69.304688 49.816406 L 70.34375 48.546875 L 71.378906 47.394531 L 75.992188 48.546875 L 78.53125 52.238281 L 80.257812 54.773438 L 81.527344 56.621094 L 82.21875 57.542969 L 82.105469 57.773438 L 79.683594 57.082031 L 77.375 56.621094 L 75.648438 56.390625 L 71.265625 56.390625 L 69.074219 56.734375 L 66.882812 57.3125 L 65.152344 58.003906 L 63.539062 58.8125 L 62.15625 59.734375 L 61 60.769531 L 60.539062 61.234375 L 58.8125 61.234375 L 57.65625 60.078125 L 56.042969 58.925781 L 54.3125 58.003906 L 51.777344 57.082031 L 48.894531 56.503906 L 47.855469 56.390625 L 44.394531 56.390625 L 41.746094 56.734375 L 39.554688 57.195312 L 37.59375 57.773438 L 37.363281 57.65625 L 38.628906 56.160156 L 39.667969 54.890625 L 40.707031 53.738281 L 41.746094 52.46875 L 45.550781 47.972656 L 46.011719 47.394531 L 46.585938 47.625 L 47.855469 48.664062 L 49.238281 49.699219 L 49.585938 49.816406 L 49.816406 49.355469 L 50.855469 48.085938 L 52.351562 46.242188 L 54.199219 43.933594 L 55.8125 41.976562 L 57.082031 40.359375 Z M 57.886719 39.4375 "/>
<path style=" stroke:none;fill-rule:nonzero;fill:rgb(8.235294%,86.666667%,70.196078%);fill-opacity:1;" d="M 46.125 64.347656 L 50.625 64.347656 L 53.390625 64.808594 L 55.8125 65.5 L 57.3125 66.074219 L 59.617188 67.34375 L 60.195312 67.230469 L 61.808594 66.304688 L 64.117188 65.382812 L 65.613281 64.921875 L 68.035156 64.460938 L 69.074219 64.347656 L 73.339844 64.347656 L 76.453125 64.808594 L 79.105469 65.5 L 82.335938 66.765625 L 84.179688 67.691406 L 86.140625 68.726562 L 86.949219 69.1875 L 86.949219 69.417969 L 87.179688 69.417969 L 87.523438 69.996094 L 87.523438 71.035156 L 87.179688 71.609375 L 86.601562 72.070312 L 85.449219 72.070312 L 82.566406 70.457031 L 80.375 69.417969 L 77.835938 68.496094 L 74.839844 67.804688 L 73.226562 67.574219 L 69.1875 67.574219 L 67 67.921875 L 64.921875 68.496094 L 63.539062 69.074219 L 61.347656 70.226562 L 60.425781 70.917969 L 59.273438 70.917969 L 58.464844 70.457031 L 57.425781 69.765625 L 55.234375 68.726562 L 53.390625 68.152344 L 51.316406 67.691406 L 50.277344 67.574219 L 46.355469 67.574219 L 44.164062 67.921875 L 41.746094 68.496094 L 38.628906 69.652344 L 35.632812 71.148438 L 34.363281 71.957031 L 34.019531 72.070312 L 33.09375 72.070312 L 32.519531 71.726562 L 32.058594 71.148438 L 31.941406 70.457031 L 32.171875 69.652344 L 32.863281 69.074219 L 34.941406 67.921875 L 37.9375 66.421875 L 40.246094 65.613281 L 42.667969 64.921875 L 45.089844 64.460938 Z M 46.125 64.347656 "/>
<path style=" stroke:none;fill-rule:nonzero;fill:rgb(8.235294%,86.666667%,70.196078%);fill-opacity:1;" d="M 44.164062 59.964844 L 47.394531 59.964844 L 49.699219 60.195312 L 52.238281 60.769531 L 53.621094 61.234375 L 55.234375 61.925781 L 57.082031 63.078125 L 57.542969 63.421875 L 57.542969 63.652344 L 56.273438 63.308594 L 53.851562 62.617188 L 51.199219 62.15625 L 50.164062 62.039062 L 45.320312 62.039062 L 42.898438 62.386719 L 40.359375 62.960938 L 37.9375 63.769531 L 35.863281 64.691406 L 33.441406 65.960938 L 32.75 66.421875 L 32.863281 65.960938 L 33.789062 64.460938 L 35.054688 62.5 L 35.746094 61.464844 L 37.363281 61 L 40.015625 60.425781 L 42.550781 60.078125 Z M 44.164062 59.964844 "/>
<path style=" stroke:none;fill-rule:nonzero;fill:rgb(8.235294%,86.666667%,70.196078%);fill-opacity:1;" d="M 72.1875 59.964844 L 75.53125 59.964844 L 78.875 60.308594 L 82.21875 61 L 83.835938 61.464844 L 85.679688 64.347656 L 86.832031 66.074219 L 86.71875 66.421875 L 85.21875 65.5 L 83.027344 64.347656 L 80.722656 63.421875 L 77.835938 62.617188 L 75.300781 62.15625 L 74.261719 62.039062 L 71.839844 61.925781 L 69.417969 62.039062 L 66.882812 62.386719 L 64 63.078125 L 62.15625 63.652344 L 62.15625 63.308594 L 63.882812 62.15625 L 65.960938 61.234375 L 67.691406 60.65625 L 69.996094 60.195312 Z M 72.1875 59.964844 "/>
<path style=" stroke:none;fill-rule:nonzero;fill:rgb(3.137255%,14.509804%,32.941176%);fill-opacity:1;" d="M 93.289062 75.417969 L 93.867188 75.53125 L 94.097656 75.878906 L 94.097656 84.527344 L 95.019531 83.71875 L 96.171875 82.910156 L 98.25 81.757812 L 101.015625 80.605469 L 102.285156 80.144531 L 103.09375 80.144531 L 103.324219 80.375 L 103.324219 81.066406 L 102.859375 81.414062 L 100.441406 82.335938 L 98.019531 83.371094 L 96.402344 84.296875 L 95.25 85.332031 L 95.367188 85.792969 L 96.519531 86.601562 L 98.25 87.523438 L 100.902344 88.5625 L 103.554688 89.484375 L 103.785156 89.714844 L 103.785156 90.40625 L 103.207031 90.753906 L 100.441406 89.832031 L 97.671875 88.675781 L 95.25 87.410156 L 94.328125 86.71875 L 94.789062 90.40625 L 94.675781 90.984375 L 94.328125 91.214844 L 93.75 91.097656 L 93.519531 90.867188 L 93.175781 88.445312 L 92.828125 83.949219 L 92.828125 75.761719 Z M 93.289062 75.417969 "/>
<path style=" stroke:none;fill-rule:nonzero;fill:rgb(98.823529%,98.823529%,98.823529%);fill-opacity:1;" d="M 57.773438 40.246094 L 58.003906 40.589844 L 58.464844 43.011719 L 58.234375 40.246094 L 58.8125 40.476562 L 60.769531 41.746094 L 62.617188 42.898438 L 62.269531 43.011719 L 59.273438 41.511719 L 59.386719 41.859375 L 60.65625 43.933594 L 61.347656 44.972656 L 61.347656 45.203125 L 62.039062 45.433594 L 63.191406 46.125 L 62.730469 46.242188 L 61.695312 46.011719 L 63.308594 46.933594 L 62.960938 47.046875 L 61.808594 46.703125 L 62.847656 47.511719 L 62.5 47.625 L 61.808594 47.394531 L 62.15625 47.972656 L 61.578125 47.855469 L 61.695312 48.085938 L 61 47.742188 L 61.117188 48.433594 L 60.65625 48.085938 L 60.539062 48.546875 L 59.847656 48.546875 L 59.734375 48.316406 L 59.386719 48.316406 L 59.273438 47.625 L 59.042969 47.972656 L 58.8125 48.664062 L 58.582031 48.203125 L 58.464844 47.855469 L 58.117188 48.316406 L 58.003906 47.511719 L 57.542969 48.546875 L 57.425781 48.203125 L 57.65625 45.78125 L 56.734375 48.085938 L 56.503906 48.316406 L 56.390625 48.085938 L 55.929688 48.546875 L 55.929688 47.855469 L 55.234375 48.433594 L 55.234375 47.972656 L 53.851562 49.816406 L 52.929688 51.085938 L 52.8125 50.855469 L 54.429688 47.972656 L 55.121094 46.703125 L 54.3125 47.511719 L 54.3125 47.164062 L 54.890625 46.242188 L 54.082031 46.933594 L 53.390625 47.511719 L 53.160156 47.394531 L 54.429688 45.894531 L 55.351562 44.742188 L 55.464844 44.394531 L 54.660156 45.203125 L 53.738281 46.011719 L 52.582031 47.046875 L 52.351562 46.933594 L 53.621094 45.433594 L 54.542969 44.28125 L 56.042969 42.4375 L 56.964844 41.28125 Z M 57.773438 40.246094 "/>
<path style=" stroke:none;fill-rule:nonzero;fill:rgb(3.137255%,14.509804%,32.941176%);fill-opacity:1;" d="M 78.183594 78.761719 L 78.875 78.761719 L 79.222656 79.105469 L 78.992188 80.144531 L 78.414062 82.105469 L 78.183594 83.488281 L 78.183594 85.792969 L 78.53125 87.179688 L 79.222656 88.332031 L 80.144531 89.023438 L 81.066406 89.371094 L 83.371094 89.371094 L 84.527344 88.90625 L 85.5625 88.214844 L 86.371094 87.292969 L 87.292969 85.449219 L 87.753906 83.371094 L 87.753906 80.144531 L 88.101562 79.796875 L 88.90625 79.914062 L 89.140625 80.257812 L 89.371094 84.757812 L 89.832031 88.5625 L 90.292969 90.40625 L 89.945312 90.753906 L 89.371094 90.867188 L 88.792969 90.292969 L 88.332031 88.675781 L 88.101562 87.410156 L 87.984375 87.292969 L 87.179688 88.5625 L 86.023438 89.714844 L 84.757812 90.40625 L 83.835938 90.753906 L 81.066406 90.753906 L 79.683594 90.292969 L 78.992188 89.832031 L 78.183594 89.140625 L 77.375 87.871094 L 76.914062 86.253906 L 76.800781 85.332031 L 76.800781 83.835938 L 77.03125 82.105469 L 77.605469 79.914062 L 78.070312 78.875 Z M 78.183594 78.761719 "/>
<path style=" stroke:none;fill-rule:nonzero;fill:rgb(3.137255%,14.509804%,32.941176%);fill-opacity:1;" d="M 35.515625 78.761719 L 36.210938 78.761719 L 36.554688 79.105469 L 36.441406 79.796875 L 35.863281 81.527344 L 35.515625 83.371094 L 35.515625 85.792969 L 35.863281 87.179688 L 36.554688 88.332031 L 37.476562 89.023438 L 38.515625 89.371094 L 40.707031 89.371094 L 41.976562 88.90625 L 43.011719 88.101562 L 43.703125 87.292969 L 44.628906 85.449219 L 44.972656 84.066406 L 45.089844 83.257812 L 45.089844 80.144531 L 45.433594 79.796875 L 46.242188 79.914062 L 46.472656 80.257812 L 46.703125 84.640625 L 47.046875 87.871094 L 47.511719 89.832031 L 47.625 90.40625 L 47.277344 90.753906 L 46.703125 90.867188 L 46.125 90.292969 L 45.664062 88.675781 L 45.433594 87.410156 L 45.320312 87.292969 L 44.511719 88.5625 L 43.472656 89.601562 L 42.320312 90.292969 L 41.050781 90.753906 L 38.515625 90.753906 L 37.015625 90.292969 L 35.746094 89.371094 L 34.824219 88.101562 L 34.25 86.253906 L 34.132812 85.449219 L 34.132812 83.71875 L 34.480469 81.527344 L 35.054688 79.566406 L 35.402344 78.875 Z M 35.515625 78.761719 "/>
<path style=" stroke:none;fill-rule:nonzero;fill:rgb(3.137255%,14.509804%,32.941176%);fill-opacity:1;" d="M 68.152344 75.992188 L 68.84375 75.992188 L 69.1875 76.453125 L 68.84375 77.722656 L 68.265625 79.453125 L 74.261719 79.453125 L 74.609375 79.683594 L 74.609375 80.488281 L 74.261719 80.722656 L 67.921875 80.835938 L 67.574219 83.257812 L 67.574219 85.332031 L 67.921875 86.71875 L 68.613281 88.101562 L 69.304688 88.90625 L 70.457031 89.484375 L 70.917969 89.601562 L 73.457031 89.601562 L 74.492188 89.371094 L 75.070312 89.371094 L 75.300781 89.601562 L 75.300781 90.40625 L 74.609375 90.753906 L 73.6875 90.984375 L 70.917969 90.984375 L 69.417969 90.523438 L 68.152344 89.714844 L 68.152344 89.484375 L 67.804688 89.371094 L 67 88.214844 L 66.421875 86.71875 L 66.191406 85.332031 L 66.191406 83.027344 L 66.535156 80.722656 L 63.882812 80.722656 L 63.539062 80.488281 L 63.539062 79.683594 L 63.882812 79.453125 L 66.882812 79.335938 L 67.921875 76.222656 Z M 68.152344 75.992188 "/>
<path style=" stroke:none;fill-rule:nonzero;fill:rgb(3.137255%,14.509804%,32.941176%);fill-opacity:1;" d="M 16.027344 75.648438 L 20.640625 75.648438 L 32.171875 75.878906 L 32.632812 76.222656 L 32.632812 76.914062 L 32.402344 77.144531 L 24.90625 77.144531 L 24.792969 90.753906 L 24.101562 90.984375 L 23.640625 90.636719 L 23.640625 77.03125 L 21.101562 77.03125 L 16.257812 76.914062 L 15.914062 76.800781 L 15.796875 76.570312 L 15.796875 75.878906 Z M 16.027344 75.648438 "/>
<path style=" stroke:none;fill-rule:nonzero;fill:rgb(3.137255%,14.509804%,32.941176%);fill-opacity:1;" d="M 50.507812 79.222656 L 51.199219 79.335938 L 51.546875 80.144531 L 52.121094 82.796875 L 52.46875 84.871094 L 53.046875 83.488281 L 53.738281 82.335938 L 54.890625 81.183594 L 56.273438 80.375 L 57.773438 79.914062 L 60.425781 79.914062 L 61.925781 80.375 L 62.15625 80.605469 L 62.15625 81.296875 L 61.925781 81.527344 L 60.769531 81.414062 L 60.195312 81.296875 L 58.234375 81.296875 L 56.851562 81.644531 L 55.8125 82.21875 L 55.234375 82.796875 L 55.003906 82.796875 L 54.773438 83.257812 L 54.082031 84.410156 L 53.507812 86.023438 L 53.160156 87.871094 L 52.929688 90.40625 L 52.46875 90.867188 L 51.890625 90.753906 L 51.660156 90.40625 L 51.085938 85.101562 L 50.394531 81.183594 L 50.164062 80.257812 L 50.164062 79.453125 Z M 50.507812 79.222656 "/>
<path style=" stroke:none;fill-rule:nonzero;fill:rgb(98.823529%,98.823529%,98.823529%);fill-opacity:1;" d="M 45.894531 48.203125 L 46.125 48.203125 L 46.472656 49.816406 L 46.355469 48.316406 L 46.816406 48.433594 L 48.777344 49.929688 L 48.546875 50.046875 L 47.855469 49.699219 L 49.125 51.316406 L 49.816406 52.121094 L 49.699219 52.351562 L 48.894531 51.546875 L 48.433594 51.316406 L 49.125 52.351562 L 49.007812 52.582031 L 48.546875 52.238281 L 48.894531 53.046875 L 48.777344 53.390625 L 48.546875 53.046875 L 48.546875 53.96875 L 48.316406 53.851562 L 48.085938 54.082031 L 47.742188 53.160156 L 47.511719 53.96875 L 47.394531 53.738281 L 47.164062 53.738281 L 47.046875 54.082031 L 46.816406 53.621094 L 46.585938 54.199219 L 46.355469 54.082031 L 46.242188 53.390625 L 46.011719 54.082031 L 45.894531 54.082031 L 45.78125 53.277344 L 45.433594 54.082031 L 45.320312 54.082031 L 45.320312 52.8125 L 44.859375 53.621094 L 44.511719 53.621094 L 44.050781 53.96875 L 43.933594 53.851562 L 43.011719 55.003906 L 42.78125 55.003906 L 43.011719 54.429688 L 43.933594 52.582031 L 43.589844 52.8125 L 43.820312 52.238281 L 43.933594 51.890625 L 43.472656 52.351562 L 43.242188 52.351562 L 43.472656 51.890625 L 44.164062 50.738281 L 43.820312 51.085938 L 43.589844 50.96875 L 45.089844 49.238281 Z M 45.894531 48.203125 "/>
<path style=" stroke:none;fill-rule:nonzero;fill:rgb(3.137255%,14.509804%,32.941176%);fill-opacity:1;" d="M 42.550781 94.675781 L 43.472656 94.789062 L 44.050781 95.25 L 44.511719 96.289062 L 44.511719 98.019531 L 44.050781 99.285156 L 43.359375 100.210938 L 45.089844 100.441406 L 45.089844 100.902344 L 44.164062 100.902344 L 42.898438 100.554688 L 41.859375 100.785156 L 41.398438 100.902344 L 40.246094 100.902344 L 40.359375 100.441406 L 41.976562 100.09375 L 41.28125 99.285156 L 40.9375 98.480469 L 40.9375 96.402344 L 41.511719 95.25 L 42.089844 94.789062 Z M 42.550781 94.675781 "/>
<path style=" stroke:none;fill-rule:nonzero;fill:rgb(3.137255%,14.509804%,32.941176%);fill-opacity:1;" d="M 96.058594 94.675781 L 96.980469 94.789062 L 97.671875 95.367188 L 98.019531 96.171875 L 98.019531 98.132812 L 97.441406 99.515625 L 96.863281 100.210938 L 97.789062 100.324219 L 98.59375 100.441406 L 98.710938 100.902344 L 97.671875 100.902344 L 96.519531 100.554688 L 95.710938 100.671875 L 94.90625 100.902344 L 93.867188 100.902344 L 93.867188 100.441406 L 95.25 100.210938 L 95.480469 99.976562 L 94.675781 99.054688 L 94.441406 98.363281 L 94.441406 96.519531 L 94.90625 95.480469 L 95.480469 94.90625 Z M 96.058594 94.675781 "/>
<path style=" stroke:none;fill-rule:nonzero;fill:rgb(3.137255%,14.509804%,32.941176%);fill-opacity:1;" d="M 36.785156 94.675781 L 37.824219 94.789062 L 38.398438 95.25 L 38.859375 96.289062 L 38.859375 98.019531 L 38.398438 99.285156 L 37.707031 100.210938 L 39.4375 100.441406 L 39.554688 100.902344 L 38.515625 100.902344 L 37.246094 100.554688 L 36.210938 100.785156 L 35.746094 100.902344 L 34.59375 100.902344 L 34.710938 100.441406 L 36.324219 100.09375 L 35.632812 99.285156 L 35.285156 98.480469 L 35.285156 96.519531 L 35.746094 95.367188 L 36.441406 94.789062 Z M 36.785156 94.675781 "/>
<path style=" stroke:none;fill-rule:nonzero;fill:rgb(99.215686%,99.215686%,99.215686%);fill-opacity:1;" d="M 89.945312 96.058594 L 91.214844 96.171875 L 91.90625 96.632812 L 92.367188 97.210938 L 92.484375 97.558594 L 92.484375 99.054688 L 92.136719 99.746094 L 91.445312 100.324219 L 91.097656 100.441406 L 89.601562 100.441406 L 88.90625 100.09375 L 88.332031 99.515625 L 88.101562 98.941406 L 88.101562 97.558594 L 88.5625 96.75 L 89.140625 96.289062 Z M 89.945312 96.058594 "/>
<path style=" stroke:none;fill-rule:nonzero;fill:rgb(99.215686%,99.215686%,99.215686%);fill-opacity:1;" d="M 83.71875 96.058594 L 84.871094 96.171875 L 85.5625 96.519531 L 86.140625 97.210938 L 86.253906 97.558594 L 86.253906 98.941406 L 85.792969 99.863281 L 85.101562 100.324219 L 84.757812 100.441406 L 83.371094 100.441406 L 82.796875 100.210938 L 82.21875 99.746094 L 81.875 99.054688 L 81.875 97.558594 L 82.21875 96.863281 L 82.910156 96.289062 Z M 83.71875 96.058594 "/>
<path style=" stroke:none;fill-rule:nonzero;fill:rgb(98.823529%,98.823529%,98.823529%);fill-opacity:1;" d="M 71.496094 47.972656 L 71.839844 48.433594 L 72.1875 49.007812 L 71.957031 48.085938 L 72.765625 48.203125 L 75.070312 48.777344 L 75.070312 48.894531 L 74.261719 48.894531 L 74.261719 49.125 L 74.492188 49.125 L 75.417969 50.277344 L 75.53125 50.855469 L 75.1875 50.738281 L 75.1875 51.429688 L 74.722656 50.855469 L 74.492188 51.199219 L 74.261719 50.855469 L 74.148438 51.660156 L 73.800781 51.316406 L 73.570312 51.777344 L 73.226562 51.085938 L 73.109375 51.777344 L 72.765625 51.429688 L 72.417969 51.660156 L 72.1875 50.96875 L 71.957031 51.890625 L 71.609375 51.660156 L 71.378906 51.890625 L 71.378906 51.660156 L 70.917969 52.007812 L 70.457031 52.582031 L 69.417969 54.429688 L 69.304688 54.082031 L 70.226562 51.546875 L 70.457031 50.855469 L 69.882812 51.085938 L 70.34375 50.277344 L 69.996094 50.394531 L 69.417969 50.738281 L 69.1875 50.625 L 70.226562 49.46875 L 71.265625 48.203125 Z M 71.496094 47.972656 "/>
<path style=" stroke:none;fill-rule:nonzero;fill:rgb(99.215686%,99.215686%,99.215686%);fill-opacity:1;" d="M 30.328125 96.171875 L 31.480469 96.171875 L 32.402344 96.519531 L 32.632812 96.75 L 32.863281 99.402344 L 32.058594 100.210938 L 31.480469 100.441406 L 30.328125 100.441406 L 29.519531 100.09375 L 28.945312 99.515625 L 28.714844 99.054688 L 28.714844 97.671875 L 29.289062 96.75 L 29.980469 96.289062 Z M 30.328125 96.171875 "/>
<path style=" stroke:none;fill-rule:nonzero;fill:rgb(3.137255%,14.509804%,32.941176%);fill-opacity:1;" d="M 65.269531 94.097656 L 66.652344 94.097656 L 67.804688 94.441406 L 68.84375 95.136719 L 68.613281 95.597656 L 67.113281 94.90625 L 66.652344 94.789062 L 65.269531 94.789062 L 64.347656 95.25 L 63.652344 96.171875 L 63.539062 97.210938 L 63.882812 98.019531 L 64.578125 98.363281 L 65.039062 98.480469 L 67.574219 98.59375 L 68.265625 99.171875 L 68.265625 100.09375 L 67.691406 100.671875 L 67.230469 100.902344 L 66.535156 101.015625 L 65.269531 101.015625 L 65.152344 100.554688 L 65.269531 100.441406 L 67 100.324219 L 67.574219 99.976562 L 67.574219 99.285156 L 67.460938 99.171875 L 64.460938 99.054688 L 63.539062 98.480469 L 62.960938 97.789062 L 62.847656 96.632812 L 63.191406 95.597656 L 64 94.675781 L 64.808594 94.210938 Z M 65.269531 94.097656 "/>
<path style=" stroke:none;fill-rule:nonzero;fill:rgb(99.215686%,99.215686%,99.215686%);fill-opacity:1;" d="M 96.058594 95.25 L 96.863281 95.367188 L 97.324219 95.941406 L 97.558594 96.632812 L 97.558594 97.671875 L 97.210938 98.824219 L 96.75 99.515625 L 96.402344 99.746094 L 95.828125 99.632812 L 95.25 98.941406 L 94.90625 97.902344 L 95.019531 96.632812 L 95.367188 95.828125 L 95.828125 95.367188 Z M 96.058594 95.25 "/>
<path style=" stroke:none;fill-rule:nonzero;fill:rgb(99.215686%,99.215686%,99.215686%);fill-opacity:1;" d="M 42.550781 95.25 L 43.359375 95.367188 L 43.820312 95.941406 L 44.050781 96.863281 L 43.933594 98.132812 L 43.359375 99.285156 L 42.898438 99.746094 L 42.320312 99.632812 L 41.746094 99.054688 L 41.398438 98.019531 L 41.398438 97.09375 L 41.746094 95.941406 L 42.207031 95.367188 Z M 42.550781 95.25 "/>
<path style=" stroke:none;fill-rule:nonzero;fill:rgb(99.215686%,99.215686%,99.215686%);fill-opacity:1;" d="M 36.785156 95.25 L 37.707031 95.367188 L 38.167969 95.941406 L 38.398438 96.863281 L 38.285156 98.132812 L 37.707031 99.285156 L 37.246094 99.746094 L 36.671875 99.632812 L 35.976562 98.824219 L 35.746094 98.019531 L 35.746094 97.09375 L 36.09375 95.941406 L 36.671875 95.367188 Z M 36.785156 95.25 "/>
<path style=" stroke:none;fill-rule:nonzero;fill:rgb(3.137255%,14.509804%,32.941176%);fill-opacity:1;" d="M 48.316406 95.367188 L 49.125 95.367188 L 50.046875 95.710938 L 50.738281 96.289062 L 51.199219 97.09375 L 51.316406 98.132812 L 50.96875 98.710938 L 50.164062 98.941406 L 47.855469 98.941406 L 46.703125 98.710938 L 46.703125 98.25 L 49.929688 98.363281 L 50.625 98.132812 L 50.738281 97.558594 L 50.394531 96.863281 L 49.585938 96.171875 L 49.238281 96.058594 L 47.972656 96.058594 L 46.933594 96.75 L 46.585938 97.324219 L 46.472656 97.789062 L 46.472656 98.710938 L 46.933594 99.515625 L 47.511719 99.976562 L 48.433594 100.324219 L 49.699219 100.324219 L 49.816406 100.785156 L 49.585938 100.902344 L 48.085938 100.902344 L 46.933594 100.324219 L 46.125 99.402344 L 45.894531 98.710938 L 45.894531 97.558594 L 46.355469 96.519531 L 47.394531 95.597656 Z M 48.316406 95.367188 "/>
<path style=" stroke:none;fill-rule:nonzero;fill:rgb(3.137255%,14.509804%,32.941176%);fill-opacity:1;" d="M 30.097656 95.710938 L 31.828125 95.710938 L 32.402344 95.941406 L 33.210938 96.171875 L 33.324219 98.710938 L 33.789062 99.976562 L 33.902344 100.441406 L 33.558594 100.554688 L 33.210938 100.210938 L 33.210938 99.976562 L 32.289062 100.671875 L 31.25 101.015625 L 30.328125 101.015625 L 29.175781 100.554688 L 28.367188 99.632812 L 28.136719 98.710938 L 28.253906 97.441406 L 28.828125 96.519531 L 29.519531 95.941406 Z M 30.328125 96.171875 L 29.40625 96.632812 L 28.945312 97.210938 L 28.714844 97.671875 L 28.714844 99.054688 L 29.175781 99.863281 L 29.867188 100.324219 L 30.328125 100.441406 L 31.480469 100.441406 L 32.171875 100.09375 L 32.863281 99.402344 L 32.632812 96.75 L 31.941406 96.289062 L 31.480469 96.171875 Z M 30.328125 96.171875 "/>
<path style=" stroke:none;fill-rule:nonzero;fill:rgb(3.137255%,14.509804%,32.941176%);fill-opacity:1;" d="M 83.257812 95.597656 L 84.871094 95.597656 L 85.910156 96.058594 L 86.488281 96.75 L 86.832031 97.671875 L 86.832031 98.824219 L 86.488281 99.863281 L 86.023438 100.441406 L 85.101562 100.902344 L 84.757812 101.015625 L 83.371094 101.015625 L 82.449219 100.671875 L 81.875 100.09375 L 81.414062 99.402344 L 81.296875 98.941406 L 81.296875 97.558594 L 81.757812 96.519531 L 82.566406 95.828125 Z M 83.71875 96.058594 L 82.679688 96.402344 L 81.988281 97.210938 L 81.875 97.558594 L 81.875 99.054688 L 82.449219 99.976562 L 82.910156 100.324219 L 83.371094 100.441406 L 84.757812 100.441406 L 85.679688 99.976562 L 86.140625 99.285156 L 86.253906 98.941406 L 86.253906 97.558594 L 85.792969 96.75 L 85.21875 96.289062 L 84.296875 96.058594 Z M 83.71875 96.058594 "/>
<path style=" stroke:none;fill-rule:nonzero;fill:rgb(3.137255%,14.509804%,32.941176%);fill-opacity:1;" d="M 89.371094 95.597656 L 91.214844 95.597656 L 92.136719 96.058594 L 92.828125 96.863281 L 93.058594 97.558594 L 93.058594 98.941406 L 92.714844 99.863281 L 92.253906 100.441406 L 91.445312 100.902344 L 90.867188 101.015625 L 89.714844 101.015625 L 88.675781 100.671875 L 87.871094 99.863281 L 87.523438 98.941406 L 87.523438 97.671875 L 87.984375 96.519531 L 88.90625 95.828125 Z M 89.945312 96.058594 L 88.90625 96.402344 L 88.214844 97.210938 L 88.101562 97.558594 L 88.101562 98.941406 L 88.5625 99.863281 L 89.253906 100.324219 L 89.601562 100.441406 L 91.097656 100.441406 L 91.90625 99.976562 L 92.367188 99.402344 L 92.484375 99.054688 L 92.484375 97.558594 L 92.136719 96.863281 L 91.445312 96.289062 L 90.636719 96.058594 Z M 89.945312 96.058594 "/>
<path style=" stroke:none;fill-rule:nonzero;fill:rgb(3.137255%,14.509804%,32.941176%);fill-opacity:1;" d="M 75.878906 94.675781 L 76.222656 94.675781 L 76.222656 97.671875 L 76.800781 97.09375 L 77.375 96.75 L 77.722656 96.632812 L 78.53125 96.632812 L 79.566406 96.980469 L 80.257812 97.789062 L 80.605469 98.941406 L 80.605469 99.976562 L 80.257812 101.015625 L 79.914062 100.902344 L 79.914062 98.710938 L 79.453125 97.789062 L 78.875 97.441406 L 77.835938 97.324219 L 77.261719 97.558594 L 76.683594 98.25 L 76.339844 99.171875 L 76.222656 100.902344 L 75.878906 101.015625 L 75.648438 100.671875 L 75.53125 99.632812 L 75.53125 96.863281 L 75.761719 94.789062 Z M 75.878906 94.675781 "/>
<path style=" stroke:none;fill-rule:nonzero;fill:rgb(3.137255%,14.509804%,32.941176%);fill-opacity:1;" d="M 20.871094 94.789062 L 21.332031 95.019531 L 22.023438 97.324219 L 22.601562 98.710938 L 23.292969 99.863281 L 23.753906 100.210938 L 24.5625 100.210938 L 25.253906 99.632812 L 25.945312 98.363281 L 26.753906 95.941406 L 27.097656 94.789062 L 27.558594 94.90625 L 27.328125 96.289062 L 26.636719 98.363281 L 25.714844 100.09375 L 24.792969 100.902344 L 23.753906 100.902344 L 23.0625 100.441406 L 22.371094 99.632812 L 21.449219 97.671875 L 20.757812 95.367188 Z M 20.871094 94.789062 "/>
<path style=" stroke:none;fill-rule:nonzero;fill:rgb(3.137255%,14.509804%,32.941176%);fill-opacity:1;" d="M 71.726562 95.597656 L 73.226562 95.597656 L 74.148438 95.941406 L 74.492188 96.289062 L 74.378906 96.632812 L 73.917969 96.519531 L 72.878906 96.171875 L 72.070312 96.171875 L 71.035156 96.519531 L 70.34375 97.324219 L 70.113281 98.132812 L 70.226562 99.054688 L 70.574219 99.746094 L 71.148438 100.210938 L 71.839844 100.441406 L 72.996094 100.441406 L 74.03125 99.976562 L 74.492188 99.976562 L 74.378906 100.441406 L 73.339844 101.015625 L 72.070312 101.132812 L 70.917969 100.785156 L 70.113281 100.210938 L 69.535156 99.054688 L 69.535156 97.789062 L 69.882812 96.863281 L 70.574219 96.058594 Z M 71.726562 95.597656 "/>
<path style=" stroke:none;fill-rule:nonzero;fill:rgb(3.137255%,14.509804%,32.941176%);fill-opacity:1;" d="M 52.121094 96.058594 L 52.46875 96.171875 L 53.046875 97.558594 L 53.738281 98.59375 L 53.738281 98.824219 L 54.890625 99.402344 L 55.351562 99.285156 L 56.042969 98.019531 L 56.503906 96.171875 L 56.964844 96.058594 L 57.082031 96.519531 L 56.734375 97.789062 L 56.160156 99.171875 L 55.351562 100.210938 L 55.121094 100.554688 L 54.890625 100.554688 L 54.890625 100.785156 L 53.738281 101.59375 L 53.160156 101.9375 L 52.582031 101.9375 L 52.582031 101.476562 L 53.738281 100.902344 L 54.660156 100.09375 L 54.199219 99.746094 L 53.507812 99.285156 L 52.8125 98.480469 L 52.007812 96.863281 L 51.890625 96.289062 Z M 52.121094 96.058594 "/>
<path style=" stroke:none;fill-rule:nonzero;fill:rgb(3.137255%,14.509804%,32.941176%);fill-opacity:1;" d="M 69.996094 40.359375 L 70.113281 40.589844 L 68.726562 43.011719 L 67.34375 45.203125 L 66.652344 46.242188 L 66.421875 46.242188 L 66.652344 45.664062 L 68.382812 42.78125 Z M 69.996094 40.359375 "/>
<path style=" stroke:none;fill-rule:nonzero;fill:rgb(3.137255%,14.509804%,32.941176%);fill-opacity:1;" d="M 67 38.285156 L 67.113281 38.628906 L 65.960938 41.746094 L 65.152344 43.589844 L 65.039062 43.128906 L 66.074219 40.359375 Z M 67 38.285156 "/>
<path style=" stroke:none;fill-rule:nonzero;fill:rgb(3.137255%,14.509804%,32.941176%);fill-opacity:1;" d="M 73.457031 41.746094 L 73.457031 42.089844 L 71.957031 43.820312 L 70.917969 44.859375 L 70.6875 45.203125 L 70.457031 45.089844 L 71.378906 43.933594 L 72.765625 42.4375 Z M 73.457031 41.746094 "/>
<path style=" stroke:none;fill-rule:nonzero;fill:rgb(3.137255%,14.509804%,32.941176%);fill-opacity:1;" d="M 75.648438 44.511719 L 75.878906 44.628906 L 74.261719 46.011719 L 72.765625 47.164062 L 72.300781 47.046875 L 74.148438 45.664062 Z M 75.648438 44.511719 "/>
<path style=" stroke:none;fill-rule:nonzero;fill:rgb(3.137255%,14.509804%,32.941176%);fill-opacity:1;" d="M 63.191406 38.285156 L 63.308594 38.285156 L 63.308594 39.207031 L 62.847656 41.859375 L 62.5 41.859375 L 62.730469 40.359375 Z M 63.191406 38.285156 "/>
<path style=" stroke:none;fill-rule:nonzero;fill:rgb(3.137255%,14.509804%,32.941176%);fill-opacity:1;" d="M 48.664062 44.742188 L 49.46875 45.433594 L 50.96875 47.046875 L 50.855469 47.394531 L 50.277344 46.816406 L 49.007812 45.433594 L 48.664062 44.972656 Z M 48.664062 44.742188 "/>
<path style=" stroke:none;fill-rule:nonzero;fill:rgb(3.137255%,14.509804%,32.941176%);fill-opacity:1;" d="M 50.394531 41.976562 L 50.855469 42.4375 L 52.582031 45.203125 L 52.351562 45.433594 L 51.199219 43.589844 L 50.394531 42.207031 Z M 50.394531 41.976562 "/>
<path style=" stroke:none;fill-rule:nonzero;fill:rgb(3.137255%,14.509804%,32.941176%);fill-opacity:1;" d="M 41.28125 47.164062 L 41.976562 47.394531 L 44.164062 48.546875 L 44.28125 48.894531 L 43.589844 48.664062 L 41.398438 47.394531 Z M 41.28125 47.164062 "/>
<path style=" stroke:none;fill-rule:nonzero;fill:rgb(3.137255%,14.509804%,32.941176%);fill-opacity:1;" d="M 52.8125 39.324219 L 53.046875 39.554688 L 54.3125 42.667969 L 54.3125 43.128906 L 54.082031 43.128906 L 52.8125 39.667969 Z M 52.8125 39.324219 "/>
<path style=" stroke:none;fill-rule:nonzero;fill:rgb(3.137255%,14.509804%,32.941176%);fill-opacity:1;" d="M 55.929688 36.902344 L 56.160156 37.363281 L 56.503906 38.746094 L 56.621094 40.246094 L 56.390625 40.015625 L 55.929688 37.824219 Z M 55.929688 36.902344 "/>
<path style=" stroke:none;fill-rule:nonzero;fill:rgb(3.137255%,14.509804%,32.941176%);fill-opacity:1;" d="M 47.277344 47.394531 L 47.855469 47.625 L 49.355469 48.777344 L 49.46875 49.125 L 48.894531 48.894531 L 47.277344 47.511719 Z M 47.277344 47.394531 "/>
<path style=" stroke:none;fill-rule:nonzero;fill:rgb(3.137255%,14.509804%,32.941176%);fill-opacity:1;" d="M 42.898438 43.933594 L 43.472656 44.164062 L 44.742188 45.203125 L 44.628906 45.433594 L 43.359375 44.511719 Z M 42.898438 43.933594 "/>
<path style=" stroke:none;fill-rule:nonzero;fill:rgb(3.137255%,14.509804%,32.941176%);fill-opacity:1;" d="M 39.785156 50.394531 L 40.589844 50.507812 L 42.089844 50.96875 L 42.207031 51.316406 L 41.050781 50.96875 L 39.785156 50.507812 Z M 39.785156 50.394531 "/>
<path style=" stroke:none;fill-rule:nonzero;fill:rgb(3.137255%,14.509804%,32.941176%);fill-opacity:1;" d="M 45.664062 41.398438 L 46.472656 42.089844 L 46.933594 42.667969 L 46.816406 42.898438 L 46.011719 42.089844 L 45.664062 41.628906 Z M 45.664062 41.398438 "/>
</g>
</svg>
