<svg width="512" height="512" viewBox="0 0 512 512" fill="none" xmlns="http://www.w3.org/2000/svg">
<path d="M486.4 460.8C491.111 460.8 494.934 456.977 494.934 452.267V187.733C494.934 183.023 491.111 179.2 486.4 179.2H477.867V418.133C477.867 432.247 466.381 443.733 452.267 443.733H298.667C282.07 443.733 267.631 455.228 264.354 471.066C263.527 475.025 260.037 477.867 256 477.867C251.964 477.867 248.465 475.025 247.646 471.066C244.369 455.228 229.939 443.733 213.334 443.733H59.7336C45.6194 443.733 34.1336 432.247 34.1336 418.133V179.2H25.6002C20.8898 179.2 17.0669 183.023 17.0669 187.733V452.267C17.0669 456.977 20.8898 460.8 25.6002 460.8H196.352C211.542 460.8 225.69 469.018 234.223 482.782C238.934 490.394 247.074 494.933 256.009 494.933C264.943 494.933 273.084 490.394 277.794 482.782C286.319 469.018 300.467 460.8 315.665 460.8H486.417H486.4Z" fill="white"/>
<path d="M136.533 29.8667V70.9803C143.044 60.6891 151.552 52.3179 162.133 45.6704V29.8752C162.133 22.8181 156.39 17.0752 149.333 17.0752C142.276 17.0752 136.533 22.8096 136.533 29.8667Z" fill="white"/>
<path d="M375.467 29.8667C375.467 22.8096 369.724 17.0667 362.667 17.0667C355.61 17.0667 349.867 22.8096 349.867 29.8667V45.6619C360.448 52.3093 368.956 60.6891 375.467 70.9717V29.8667Z" fill="white"/>
<path d="M110.933 264.533V290.133H136.533V256C136.533 250.231 137.318 244.599 138.701 239.147C137.975 239.087 137.267 238.933 136.533 238.933C122.419 238.933 110.933 250.419 110.933 264.533Z" fill="white"/>
<path d="M256 230.4C344.175 230.4 375.467 184.431 375.467 145.067C375.467 70.4171 343.091 42.6667 256 42.6667C168.909 42.6667 136.533 70.4171 136.533 145.067C136.533 184.431 167.825 230.4 256 230.4ZM256 68.2667C306.637 68.2667 358.4 75.8188 358.4 131.789C358.4 176.751 312.465 213.333 256 213.333C199.535 213.333 153.6 176.751 153.6 131.789C153.6 75.8102 205.363 68.2667 256 68.2667Z" fill="white"/>
<path d="M59.7335 426.667H213.334C226.227 426.667 238.234 431.394 247.467 439.279V307.2H85.3335C80.6146 307.2 76.8002 303.386 76.8002 298.667C76.8002 293.948 80.6146 290.133 85.3335 290.133H93.8669V264.533C93.8669 241.007 113.007 221.867 136.534 221.867C139.469 221.867 142.353 222.191 145.178 222.788C146.867 219.767 148.804 216.866 150.963 214.11C130.91 196.548 119.467 172.919 119.467 145.067H59.7335C55.0231 145.067 51.2002 148.89 51.2002 153.6V418.133C51.2002 422.844 55.0231 426.667 59.7335 426.667ZM85.3335 332.8H213.334C218.052 332.8 221.867 336.614 221.867 341.333C221.867 346.052 218.052 349.867 213.334 349.867H85.3335C80.6146 349.867 76.8002 346.052 76.8002 341.333C76.8002 336.614 80.6146 332.8 85.3335 332.8ZM85.3335 375.467H170.667C175.386 375.467 179.2 379.281 179.2 384C179.2 388.719 175.386 392.533 170.667 392.533H85.3335C80.6146 392.533 76.8002 388.719 76.8002 384C76.8002 379.281 80.6146 375.467 85.3335 375.467Z" fill="white"/>
<path d="M298.667 145.067C303.379 145.067 307.2 139.336 307.2 132.267C307.2 125.197 303.379 119.467 298.667 119.467C293.954 119.467 290.133 125.197 290.133 132.267C290.133 139.336 293.954 145.067 298.667 145.067Z" fill="white"/>
<path d="M256 196.267C303.053 196.267 341.333 167.339 341.333 131.789C341.333 103.108 327.057 85.3333 256 85.3333C184.943 85.3333 170.667 103.108 170.667 131.789C170.667 167.339 208.947 196.267 256 196.267ZM298.667 102.4C312.781 102.4 324.267 115.797 324.267 132.267C324.267 148.736 312.781 162.133 298.667 162.133C284.552 162.133 273.067 148.736 273.067 132.267C273.067 115.797 284.552 102.4 298.667 102.4ZM247.467 162.133H264.533C269.252 162.133 273.067 165.948 273.067 170.667C273.067 175.386 269.252 179.2 264.533 179.2H247.467C242.748 179.2 238.933 175.386 238.933 170.667C238.933 165.948 242.748 162.133 247.467 162.133ZM213.333 102.4C227.447 102.4 238.933 115.797 238.933 132.267C238.933 148.736 227.447 162.133 213.333 162.133C199.219 162.133 187.733 148.736 187.733 132.267C187.733 115.797 199.219 102.4 213.333 102.4Z" fill="white"/>
<path d="M213.333 145.067C218.046 145.067 221.866 139.336 221.866 132.267C221.866 125.197 218.046 119.467 213.333 119.467C208.62 119.467 204.8 125.197 204.8 132.267C204.8 139.336 208.62 145.067 213.333 145.067Z" fill="white"/>
<path d="M401.067 290.133V264.533C401.067 250.419 389.581 238.933 375.467 238.933C374.733 238.933 374.025 239.087 373.299 239.147C374.682 244.599 375.467 250.231 375.467 256V290.133H401.067Z" fill="white"/>
<path d="M358.4 256C358.4 244.343 354.5 233.301 347.375 224.299C324.036 239.061 292.77 247.467 256 247.467C219.23 247.467 187.964 239.061 164.625 224.299C157.5 233.301 153.6 244.343 153.6 256V290.133H358.4V256Z" fill="white"/>
<path d="M452.267 426.667C456.977 426.667 460.8 422.844 460.8 418.133V153.6C460.8 148.89 456.977 145.067 452.267 145.067H392.533C392.533 172.919 381.09 196.548 361.037 214.11C363.196 216.875 365.133 219.767 366.822 222.788C369.647 222.199 372.531 221.867 375.467 221.867C398.993 221.867 418.133 241.007 418.133 264.533V290.133H426.667C431.385 290.133 435.2 293.948 435.2 298.667C435.2 303.386 431.385 307.2 426.667 307.2H264.533V439.279C273.766 431.394 285.773 426.667 298.667 426.667H452.267ZM298.667 332.8H426.667C431.385 332.8 435.2 336.614 435.2 341.333C435.2 346.052 431.385 349.867 426.667 349.867H298.667C293.948 349.867 290.133 346.052 290.133 341.333C290.133 336.614 293.948 332.8 298.667 332.8ZM290.133 384C290.133 379.281 293.948 375.467 298.667 375.467H384C388.719 375.467 392.533 379.281 392.533 384C392.533 388.719 388.719 392.533 384 392.533H298.667C293.948 392.533 290.133 388.719 290.133 384Z" fill="white"/>
</svg>
