<svg width="563" height="512" viewBox="0 0 563 512" fill="none" xmlns="http://www.w3.org/2000/svg">
<g clip-path="url(#clip0_400_71)">
<path d="M554.748 158.75C554.748 242.28 496.941 309.99 425.621 309.99C399.285 309.99 374.797 300.75 354.377 284.9L296.482 309.99L297.505 306.74L317.87 242.13C304.367 218.22 296.482 189.57 296.482 158.75C296.482 85.62 340.808 24.62 399.703 10.57C408.082 8.57002 416.747 7.52002 425.621 7.52002C496.941 7.52002 554.748 75.23 554.748 158.75Z" fill="white"/>
<path d="M554.748 158.75C554.748 242.28 496.941 309.99 425.621 309.99C399.285 309.99 374.797 300.75 354.377 284.9L296.482 309.99L297.505 306.74L341.28 268.23C346.603 263.3 354.861 261.51 361.667 264.56C369.189 267.93 385.804 281.28 402.166 283.66C470.452 293.55 526.543 233.41 526.543 154.03C526.543 77.32 470.397 14.7 399.703 10.57C408.082 8.57002 416.747 7.52002 425.621 7.52002C496.941 7.52002 554.748 75.23 554.748 158.75Z" fill="white"/>
<path d="M281.611 361.46V504.5H8.24836V361.46C8.18238 348.78 18.6177 338.08 32.4618 336.65L120.54 328.46H169.33L257.398 336.65C271.242 338.08 281.688 348.78 281.611 361.46Z" fill="white"/>
<path d="M281.611 361.46V504.5H8.24854V488.73H239.119C248.832 488.73 256.705 481.57 256.705 472.737V373.66C256.705 364.872 250.359 357.127 241.1 354.612L144.776 328.459H169.33L257.398 336.649C271.242 338.08 281.688 348.78 281.611 361.46Z" fill="white"/>
<path d="M167.747 322.203C168.055 324.493 168.56 326.653 169.33 328.463C169.33 340.723 158.399 350.663 144.928 350.663C131.456 350.663 120.536 340.723 120.536 328.463C121.317 326.613 121.834 324.403 122.142 322.053C123.032 315.113 122.054 306.953 120.536 303.193H169.329C167.791 306.983 166.812 315.233 167.747 322.203Z" fill="white"/>
<path d="M167.747 322.203C160.764 325.343 153.011 326.993 145.104 326.973C137.075 326.983 129.224 325.283 122.142 322.053C123.032 315.113 122.054 306.953 120.536 303.193H169.329C167.791 306.983 166.812 315.233 167.747 322.203Z" fill="white"/>
<path d="M86.842 210.905H49.6675C38.6198 210.905 29.6646 202.755 29.6646 192.702C29.6646 182.649 38.6209 174.499 49.6675 174.499H86.9377L86.842 210.905Z" fill="white"/>
<path d="M215.073 210.905H241.25C252.298 210.905 261.253 202.755 261.253 192.702C261.253 182.649 252.297 174.499 241.25 174.499H214.976L215.073 210.905Z" fill="white"/>
<path d="M104.031 112.761H184.078V74.2991C184.078 54.1971 166.159 37.9011 144.055 37.9011C121.95 37.9011 104.031 54.1971 104.031 74.2991V112.761Z" fill="white"/>
<path d="M225.498 123.293V165.304L145.304 206.742L145.271 206.762L64.8125 165.304V121.283C64.8125 101.614 82.2963 85.664 103.882 85.594H184.076C206.948 85.594 225.498 102.473 225.498 123.293Z" fill="white"/>
<path d="M225.498 123.293V165.304L145.304 206.742V123.292C145.304 102.513 126.841 85.663 104.024 85.593H184.076C206.948 85.594 225.498 102.473 225.498 123.293Z" fill="white"/>
<path d="M226.323 236.003C226.323 251.292 213.919 269.182 189.387 289.271C185.659 292.321 181.646 295.431 177.357 298.591C168.242 305.321 156.861 309 145.106 308.97C133.34 308.99 121.926 305.32 112.81 298.571C80.3388 274.672 63.8667 253.623 63.8667 236.003C63.8667 234.133 63.9437 232.263 64.1196 230.463C64.9553 222.713 65.2632 188.245 64.8124 165.316C70.5853 166.646 76.6332 167.356 82.8569 167.356C108.676 167.356 132.262 155.176 145.271 136.777C145.282 136.757 145.293 136.747 145.304 136.727C158.29 155.156 181.162 167.356 207.003 167.356C213.392 167.356 219.593 166.616 225.498 165.206C225.476 187.885 225.245 222.754 226.081 230.414C226.246 232.263 226.323 234.133 226.323 236.003Z" fill="white"/>
<path d="M226.323 236.003C226.323 251.292 213.92 269.182 189.387 289.271C201.208 274.192 204.331 250.113 204.331 236.003C204.331 234.133 204.243 232.263 204.078 230.423C203.407 224.233 203.44 215.644 203.473 194.464C203.495 185.644 199.295 179.655 187.584 175.685C167.406 168.845 145.271 152.087 145.271 136.777C145.282 136.757 145.293 136.747 145.304 136.727C158.29 155.156 181.162 167.356 207.003 167.356C213.392 167.356 219.594 166.616 225.499 165.206C225.477 187.885 225.246 222.754 226.081 230.414C226.246 232.263 226.323 234.133 226.323 236.003Z" fill="white"/>
<path d="M372.125 167.938H363.618C356.952 167.938 350.907 163.928 349.355 158.033C347.072 149.36 354.239 141.63 363.393 141.63H372.171L383.144 154.785L372.125 167.938Z" fill="white"/>
<path d="M479.101 167.938H487.608C494.274 167.938 500.319 163.928 501.871 158.033C504.154 149.36 496.986 141.63 487.833 141.63H479.055L468.082 154.785L479.101 167.938Z" fill="white"/>
<path d="M479.732 183.39C479.732 194.86 469.253 208.509 448.58 223.978C448.097 224.338 447.613 224.708 447.118 225.068C441.048 229.558 433.461 232.008 425.632 231.988C417.802 231.998 410.204 229.548 404.123 225.058C382.494 209.139 371.531 195.119 371.531 183.39C371.531 182.14 371.575 180.89 371.696 179.7C372.235 174.69 372.366 151.291 372.103 136.052C372.103 111.173 392.577 90.664 419.045 87.704C421.2 87.454 423.41 87.334 425.643 87.334C455.211 87.334 479.183 109.143 479.183 136.052C479.172 151.152 479.007 174.55 479.567 179.67C479.677 180.89 479.732 182.14 479.732 183.39Z" fill="white"/>
<path d="M479.732 183.39C479.732 194.86 469.253 208.509 448.58 223.978C460.886 213.903 459.939 192.089 459.939 183.39C459.939 182.14 459.884 180.89 459.774 179.67C459.214 174.55 459.379 151.151 459.39 136.052C459.39 111.173 445.502 90.664 419.045 87.704C421.2 87.454 423.41 87.334 425.643 87.334C455.211 87.334 479.183 109.143 479.183 136.052C479.172 151.152 479.007 174.55 479.567 179.67C479.677 180.89 479.732 182.14 479.732 183.39Z" fill="white"/>
<path d="M258.236 329.186L175.962 321.537C175.36 317.276 175.62 312.002 176.33 308.434C178.489 307.223 180.566 305.884 182.546 304.421C217.557 278.661 234.575 256.282 234.575 236.004C234.575 233.93 234.481 231.841 234.294 229.796C234.289 229.758 234.286 229.72 234.282 229.682C234.072 227.75 233.935 223.685 233.847 218.411H241.252C256.829 218.411 269.502 206.881 269.502 192.708C269.502 178.535 256.829 167.006 241.252 167.006H233.744V158.264C233.744 154.122 230.053 150.764 225.497 150.764C220.941 150.764 217.25 154.122 217.25 158.264V159.127C213.874 159.614 210.445 159.861 207 159.861C184.814 159.861 164.404 149.7 152.404 132.682C150.887 130.531 148.27 129.23 145.462 129.23L144.373 129.231C141.572 129.239 138.968 130.539 137.456 132.683C125.456 149.701 105.046 159.861 82.8599 159.861C79.5666 159.861 76.2887 159.633 73.0569 159.187V121.333C73.0569 105.789 86.9516 93.143 104.031 93.143H184.078C202.37 93.143 217.252 106.686 217.252 123.334C217.252 127.476 220.943 130.834 225.499 130.834C230.055 130.834 233.746 127.476 233.746 123.334C233.746 100.973 215.799 82.364 192.325 78.778V74.344C192.325 50.138 170.671 30.446 144.055 30.446C117.438 30.446 95.7848 50.138 95.7848 74.344V78.809C73.5309 82.373 56.5639 100.078 56.5639 121.333V167.005H49.6693C34.0923 167.005 21.4193 178.535 21.4193 192.707C21.4193 206.879 34.0923 218.41 49.6693 218.41H56.4462C56.3055 223.726 56.1218 227.788 55.9041 229.799C55.715 231.726 55.6193 233.814 55.6193 236.003C55.6193 256.275 72.6314 278.648 107.607 304.386C109.481 305.773 111.445 307.044 113.48 308.204C114.226 311.771 114.512 317.18 113.898 321.536L31.5313 329.194C13.4647 331.064 -0.0923863 344.951 -1.91331e-05 361.46V504.5C-1.91331e-05 508.642 3.69137 512 8.24705 512C12.8027 512 16.4941 508.642 16.4941 504.5V361.422C16.4446 352.548 23.7109 345.1 33.3028 344.108L113.559 336.647C117.476 349.056 130.052 358.165 144.931 358.165C159.81 358.165 172.386 349.056 176.303 336.647L256.465 344.1C266.152 345.102 273.417 352.549 273.366 361.461V504.5C273.366 508.642 277.058 512 281.613 512C286.169 512 289.86 508.642 289.86 504.5V361.499C289.954 344.952 276.399 331.064 258.236 329.186ZM112.278 74.344C112.278 58.409 126.533 45.446 144.054 45.446C161.575 45.446 175.83 58.409 175.83 74.344V78.143H112.277L112.278 74.344ZM253.01 192.708C253.01 198.609 247.736 203.411 241.254 203.411H233.719C233.694 196.432 233.702 188.95 233.715 182.006H241.254C247.736 182.006 253.01 186.806 253.01 192.708ZM49.6693 203.41C43.186 203.41 37.9134 198.609 37.9134 192.707C37.9134 186.805 43.1871 182.005 49.6693 182.005H56.7552C56.7904 189.235 56.7706 196.625 56.7024 203.41H49.6693ZM72.1135 236.004C72.1135 234.258 72.1871 232.619 72.3257 231.2C73.1174 223.882 73.4132 196.013 73.1889 174.342C76.3898 174.688 79.6205 174.862 82.8588 174.862C107.06 174.862 129.574 165.228 144.93 148.685C160.286 165.228 182.799 174.862 207 174.862C210.43 174.862 213.85 174.667 217.236 174.279C217.234 175.097 217.232 175.924 217.231 176.756C217.183 198.988 217.129 224.178 217.861 231.089C218.007 232.706 218.081 234.36 218.081 236.004C218.081 251.035 202.205 270.661 172.156 292.771C164.563 298.383 155.005 301.471 145.196 301.471C145.161 301.471 145.124 301.471 145.087 301.471C145.06 301.471 145.033 301.471 145.007 301.471C135.198 301.471 125.615 298.376 117.998 292.739C87.9808 270.649 72.1135 251.03 72.1135 236.004ZM144.931 343.164C136.443 343.164 129.465 337.17 128.829 329.586C130.33 325.208 130.839 319.9 130.706 314.863C135.353 315.916 140.143 316.47 144.971 316.47H145.233C149.944 316.47 154.615 315.941 159.151 314.94C159.025 319.955 159.537 325.231 161.03 329.587C160.398 337.17 153.419 343.164 144.931 343.164Z" fill="#A5312A"/>
<path d="M69.0576 380.432C64.5019 380.432 60.8105 383.79 60.8105 387.932V504.5C60.8105 508.642 64.5019 512 69.0576 512C73.6133 512 77.3047 508.642 77.3047 504.5V387.932C77.3047 383.79 73.6133 380.432 69.0576 380.432Z" fill="#A5312A"/>
<path d="M220.804 380.432C216.248 380.432 212.557 383.79 212.557 387.932V504.5C212.557 508.642 216.248 512 220.804 512C225.359 512 229.051 508.642 229.051 504.5V387.932C229.051 383.79 225.359 380.432 220.804 380.432Z" fill="#A5312A"/>
<path d="M522.063 45.601C519.219 42.365 514.029 41.837 510.472 44.422C506.913 47.007 506.332 51.726 509.174 54.963C533.249 82.37 546.506 119.228 546.506 158.745C546.506 238.006 492.277 302.49 425.619 302.49C402.147 302.49 379.363 294.433 359.728 279.191C357.251 277.267 353.762 276.851 350.825 278.125L309.456 296.059L325.803 244.191C326.381 242.358 326.168 240.392 325.209 238.696C311.814 214.996 304.734 187.35 304.734 158.746C304.735 79.484 358.964 15 425.62 15C445.8 15 465.782 21.059 483.41 32.521C487.115 34.929 492.266 34.153 494.915 30.782C497.564 27.412 496.709 22.728 493.004 20.319C472.56 7.026 449.261 0 425.62 0C388.525 0 353.783 16.762 327.796 47.199C302.289 77.074 288.241 116.689 288.241 158.745C288.241 188.658 295.432 217.676 309.061 242.874L288.559 307.923C287.665 310.758 288.683 313.807 291.158 315.714C292.679 316.884 294.573 317.49 296.489 317.49C297.694 317.49 298.906 317.25 300.037 316.76L353.196 293.716C374.905 309.288 399.838 317.49 425.62 317.49C462.717 317.49 497.459 300.728 523.446 270.291C548.952 240.416 563 200.801 563 158.745C563 115.839 548.462 75.657 522.063 45.601Z" fill="#A5312A"/>
<path d="M144.958 275.559C159.241 275.559 170.862 264.986 170.862 251.991C170.862 247.849 167.17 244.491 162.614 244.491C158.059 244.491 154.367 247.849 154.367 251.991C154.367 256.716 150.146 260.559 144.958 260.559C139.77 260.559 135.55 256.715 135.55 251.991C135.55 247.849 131.858 244.491 127.303 244.491C122.747 244.491 119.056 247.849 119.056 251.991C119.056 264.987 130.675 275.559 144.958 275.559Z" fill="#A5312A"/>
<path d="M132.529 230.032C136.569 231.947 141.547 230.52 143.654 226.847C143.904 226.411 144.462 225.947 145.286 225.947C146.108 225.947 146.668 226.412 146.916 226.847C148.388 229.413 151.261 230.882 154.237 230.882C155.521 230.882 156.825 230.609 158.041 230.031C162.081 228.117 163.649 223.587 161.545 219.914C158.374 214.383 152.144 210.946 145.286 210.946C138.426 210.946 132.196 214.383 129.026 219.914C126.921 223.589 128.489 228.118 132.529 230.032Z" fill="#A5312A"/>
<path d="M427.273 183.59C427.023 184.026 426.465 184.49 425.641 184.49C424.818 184.49 424.258 184.025 424.009 183.59C421.904 179.917 416.919 178.491 412.885 180.405C408.845 182.319 407.277 186.849 409.381 190.522C412.551 196.053 418.782 199.49 425.641 199.49C432.501 199.49 438.731 196.053 441.901 190.522C444.006 186.849 442.438 182.319 438.398 180.405C434.359 178.491 429.379 179.917 427.273 183.59Z" fill="#A5312A"/>
<path d="M487.383 134.132C487.15 127.82 485.785 121.658 483.291 115.788C481.651 111.925 476.876 110.002 472.626 111.495C468.377 112.988 466.264 117.33 467.906 121.194C469.917 125.928 470.937 130.928 470.937 136.05L470.923 143.852C470.883 162.429 470.891 175.936 471.355 180.342C471.444 181.339 471.49 182.364 471.49 183.391C471.49 192.489 460.995 205.222 441.921 219.256C437.353 222.632 431.604 224.49 425.691 224.49C425.65 224.49 425.609 224.49 425.574 224.49C419.673 224.49 413.909 222.628 409.321 219.233C390.272 205.214 379.781 192.485 379.781 183.391C379.781 182.299 379.826 181.284 379.909 180.436C380.538 174.62 380.59 149.867 380.349 135.997C380.383 113.294 400.689 94.833 425.642 94.833C433.1 94.833 440.2 96.426 446.744 99.569C450.774 101.504 455.762 100.101 457.887 96.439C460.015 92.776 458.473 88.239 454.445 86.305C445.629 82.072 435.669 79.834 425.642 79.834C392.281 79.834 365.028 104.02 363.908 134.132H363.4C356.402 134.132 349.9 137 345.561 142.001C341.222 147.003 339.683 153.484 341.342 159.782C343.769 169.002 352.932 175.442 363.625 175.442H363.696C363.634 177.071 363.565 178.313 363.487 179.032C363.353 180.386 363.284 181.853 363.284 183.392C363.284 197.698 374.948 213.236 398.926 230.881C406.431 236.435 415.891 239.491 425.534 239.491H425.726C435.379 239.491 444.822 236.441 452.309 230.908C476.313 213.244 487.982 197.702 487.982 183.392C487.982 181.934 487.915 180.472 487.784 179.047C487.781 179.009 487.778 178.972 487.773 178.935C487.695 178.211 487.633 177.005 487.582 175.442H487.612C498.304 175.442 507.468 169.003 509.896 159.782C511.554 153.484 510.014 147.003 505.675 142.001C501.338 137.001 494.836 134.133 487.838 134.133L487.383 134.132ZM363.626 160.441C360.642 160.441 358.017 158.695 357.384 156.29C356.734 153.822 357.813 152.099 358.512 151.291C359.702 149.919 361.483 149.132 363.4 149.132H363.982C363.994 152.979 363.987 156.83 363.962 160.441H363.626ZM492.728 151.291C493.43 152.099 494.507 153.822 493.858 156.289C493.224 158.695 490.598 160.441 487.614 160.441H487.407C487.397 156.733 487.399 152.849 487.406 149.132H487.84C489.757 149.132 491.538 149.919 492.728 151.291Z" fill="#A5312A"/>
</g>
<defs>
<clipPath id="clip0_400_71">
<rect width="563" height="512" fill="white"/>
</clipPath>
</defs>
</svg>
