<?xml version="1.0" encoding="UTF-8"?>
<svg xmlns="http://www.w3.org/2000/svg" xmlns:xlink="http://www.w3.org/1999/xlink" width="128px" height="128px" viewBox="0 0 128 128" version="1.1">
<g id="surface1">
<path style=" stroke:none;fill-rule:nonzero;fill:rgb(92.54902%,21.176471%,20.392157%);fill-opacity:1;" d="M 0.6875 91.9375 L 111.875 91.9375 L 128 92 L 128 95.5 L 0 95.5 L 0 92 Z M 0.6875 91.9375 "/>
<path style=" stroke:none;fill-rule:nonzero;fill:rgb(20.784314%,20%,20.784314%);fill-opacity:1;" d="M 8.3125 14.625 L 9.125 14.75 L 9.75 15.0625 L 10.0625 15.3125 L 10.6875 16.25 L 11.25 17.3125 L 11.6875 18.5 L 12.25 20.5 L 12.6875 22.75 L 13.0625 25.375 L 13.375 28.8125 L 13.5625 32.5 L 13.625 35.75 L 13.625 38.5625 L 13.5625 42 L 13.375 45.5625 L 12.875 50.5625 L 12.5 53.3125 L 12.125 55.25 L 11.6875 57.0625 L 11.1875 58.5625 L 10.6875 59.6875 L 10.25 60.5 L 9.6875 61.3125 L 9.125 62 L 8.5625 62.375 L 8.0625 62.375 L 7.4375 62.125 L 6.625 61.5625 L 6.125 61.0625 L 5.5 60.25 L 5 59.3125 L 4.3125 57.5625 L 4 56.875 L 4 57.9375 L 4.0625 60.3125 L 4.0625 65.125 L 4 84.375 L 3.6875 84.4375 L 1.8125 84.4375 L 1.625 84.25 L 1.5625 81.9375 L 1.625 54.875 L 1.625 19.8125 L 1.5625 15.9375 L 1.6875 15.75 L 3.375 15.6875 L 3.875 15.75 L 4 15.875 L 4.0625 16.1875 L 4.0625 17.5 L 3.875 21.8125 L 3.75 23.125 L 3.9375 22.9375 L 4.4375 21.1875 L 5.3125 18.625 L 5.875 17.3125 L 6.375 16.3125 L 6.875 15.5625 L 7.4375 14.9375 L 8 14.6875 Z M 7.75 21.8125 L 7.25 22.0625 L 6.9375 22.3125 L 6.3125 23.25 L 5.6875 24.375 L 5 25.875 L 4.4375 27.5625 L 4.125 29 L 4 30.75 L 3.9375 33.875 L 3.9375 50.1875 L 4.0625 51.0625 L 4.375 51.8125 L 5.375 53.875 L 5.9375 54.75 L 6.5 55.4375 L 7 55.9375 L 7.625 56.1875 L 8.1875 56.125 L 8.6875 55.6875 L 9.1875 54.8125 L 9.5625 53.8125 L 9.9375 52.375 L 10.375 50.0625 L 10.75 47.4375 L 10.9375 44.9375 L 11.0625 41.375 L 11.0625 34.25 L 10.9375 31.25 L 10.6875 28.3125 L 10.4375 26.3125 L 10.125 25 L 9.75 23.75 L 9.25 22.75 L 8.875 22.1875 L 8.5625 21.9375 L 8.3125 21.8125 Z M 7.75 21.8125 "/>
<path style=" stroke:none;fill-rule:nonzero;fill:rgb(20.784314%,20%,20.784314%);fill-opacity:1;" d="M 61.125 15.6875 L 63.0625 15.6875 L 63.625 15.8125 L 63.75 16 L 64.0625 19.3125 L 64.5 23.3125 L 64.9375 27.5625 L 65.5 32.375 L 65.9375 36.5 L 66.4375 40.6875 L 66.9375 45.6875 L 67.3125 48.3125 L 67.5625 49.5 L 67.6875 48.875 L 68.3125 43 L 68.875 38.0625 L 69.625 31.875 L 69.9375 29.1875 L 70.25 26.25 L 70.625 23.3125 L 71 20.0625 L 71.375 16.6875 L 71.4375 16 L 71.625 15.75 L 71.875 15.6875 L 73.625 15.6875 L 73.75 15.75 L 73.75 16.625 L 73.375 20.3125 L 72.875 24.5 L 72.3125 28.8125 L 71.9375 31.8125 L 71.375 36.875 L 71 39.9375 L 70.3125 45.9375 L 69.75 50.625 L 69.3125 54.3125 L 68.9375 57.375 L 68.4375 61.9375 L 68 65.1875 L 67.5625 69.1875 L 67.125 72.875 L 66.5 78.375 L 66.125 81.5 L 65.875 83.5 L 65.75 83.8125 L 65.625 83.9375 L 63.6875 83.9375 L 63.375 83.75 L 63.3125 83.6875 L 63.3125 83.1875 L 63.5625 81.5 L 64.3125 75.625 L 64.875 71.5625 L 65.5 66.4375 L 65.875 63.6875 L 66.0625 61.5 L 66.0625 60.1875 L 65.4375 54.625 L 64.8125 48.875 L 64.25 43.75 L 63.75 39.6875 L 63.1875 34.875 L 62.625 30.1875 L 62.0625 25.125 L 61.4375 19.3125 L 61.125 16.125 Z M 61.125 15.6875 "/>
<path style=" stroke:none;fill-rule:nonzero;fill:rgb(20.784314%,20%,20.784314%);fill-opacity:1;" d="M 119.8125 14.625 L 120.625 14.6875 L 121.1875 14.9375 L 121.75 15.375 L 122.3125 16 L 122.875 16.9375 L 123.375 18.25 L 123.75 19.75 L 124 21.5 L 124.1875 23.75 L 124.3125 26.4375 L 124.375 42.6875 L 124.375 49 L 124.4375 52.375 L 124.5625 54.0625 L 124.8125 55.625 L 125.0625 56.0625 L 125.75 56.6875 L 126 57.1875 L 126.125 58.0625 L 126.1875 58.8125 L 126.1875 60.75 L 126.0625 61.3125 L 125.625 61.8125 L 125 62.125 L 124.4375 62.25 L 123.9375 62.0625 L 123.625 61.75 L 123.125 60.8125 L 122.8125 59.625 L 122.5625 58.0625 L 122.5 56.875 L 122.375 56.125 L 122.125 56.4375 L 121.5 57.875 L 121.0625 58.875 L 120.4375 60.0625 L 119.5625 61.375 L 119.0625 61.9375 L 118.5625 62.1875 L 118.25 62.25 L 117.75 62.25 L 117.25 62 L 116.6875 61.5 L 116.125 60.625 L 115.8125 60 L 115.125 57.9375 L 114.75 56.3125 L 114.5 54.5625 L 114.3125 52.1875 L 114.25 50.4375 L 114.25 48.25 L 114.375 45.6875 L 114.5625 44 L 115 41.5625 L 115.3125 40.375 L 115.6875 39.25 L 116.25 38 L 116.875 36.9375 L 117.4375 36.1875 L 118 35.625 L 118.5 35.25 L 119.5625 34.6875 L 120.6875 34.375 L 121.625 34.25 L 121.875 34.125 L 121.875 27.4375 L 121.8125 25.875 L 121.625 24.125 L 121.3125 22.9375 L 120.8125 21.6875 L 120.4375 21.1875 L 120.0625 20.9375 L 119.4375 20.875 L 118.8125 21 L 118.0625 21.5 L 117.4375 22.0625 L 116.9375 22.625 L 116.125 23.8125 L 115.6875 24.3125 L 115.4375 24.4375 L 115.3125 24.25 L 115.375 23.25 L 115.375 20.9375 L 115.3125 19.75 L 115.3125 18.4375 L 115.625 17.8125 L 116.3125 16.9375 L 117.25 16 L 118.3125 15.1875 L 119.0625 14.8125 Z M 121.5 38.875 L 120.5 39.125 L 119.9375 39.375 L 119.25 39.8125 L 118.6875 40.375 L 118.0625 41.3125 L 117.5625 42.375 L 117 44.0625 L 116.75 45.3125 L 116.625 46.4375 L 116.5625 47.5 L 116.5625 49.8125 L 116.6875 51.25 L 116.9375 52.6875 L 117.3125 53.8125 L 117.8125 54.8125 L 118.0625 55.1875 L 118.375 55.5 L 118.75 55.625 L 119.125 55.5625 L 119.5 55.3125 L 120.125 54.6875 L 120.8125 53.8125 L 121.4375 52.625 L 121.75 51.75 L 121.875 51.125 L 121.9375 50.0625 L 121.9375 40.4375 L 121.875 39.1875 L 121.75 38.875 Z M 121.5 38.875 "/>
<path style=" stroke:none;fill-rule:nonzero;fill:rgb(20.784314%,20%,20.784314%);fill-opacity:1;" d="M 53.8125 14.625 L 54.5625 14.6875 L 55.1875 14.9375 L 55.8125 15.4375 L 56.3125 16.0625 L 56.875 17 L 57.375 18.375 L 57.6875 19.8125 L 57.9375 21.625 L 58.125 23.625 L 58.25 26.4375 L 58.3125 29.6875 L 58.3125 51 L 58.4375 53.375 L 58.6875 55.125 L 58.875 55.8125 L 59.0625 56.0625 L 59.0625 56.1875 L 59.1875 56.1875 L 59.5 56.5 L 59.8125 56.875 L 60.125 57.8125 L 60.1875 58.6875 L 60.1875 59.625 L 60.125 60.625 L 59.9375 61.25 L 59.5625 61.8125 L 59.4375 61.8125 L 59.4375 61.9375 L 59 62.1875 L 58.375 62.25 L 57.8125 61.9375 L 57.375 61.4375 L 57.0625 60.8125 L 56.8125 59.875 L 56.5 57.875 L 56.375 56.5625 L 56.3125 55.9375 L 56.1875 55.9375 L 56.125 56.1875 L 55.3125 58.0625 L 54.6875 59.5 L 54.0625 60.5 L 53.5625 61.25 L 53.0625 61.875 L 52.5625 62.1875 L 52.0625 62.3125 L 51.6875 62.25 L 51 61.8125 L 50.4375 61.1875 L 50 60.5 L 49.375 59 L 48.9375 57.625 L 48.625 56.125 L 48.375 54.0625 L 48.1875 51.5625 L 48.1875 47.625 L 48.3125 45.5625 L 48.5625 43.4375 L 49.0625 41.0625 L 49.625 39.25 L 50.25 37.875 L 50.8125 36.9375 L 51.3125 36.3125 L 51.625 35.9375 L 52.125 35.5 L 52.6875 35.125 L 53.5625 34.6875 L 54.6875 34.375 L 55.75 34.1875 L 55.875 33.9375 L 55.875 29.75 L 55.8125 27.125 L 55.625 24.5625 L 55.375 23.3125 L 54.9375 22.0625 L 54.625 21.4375 L 54.3125 21.125 L 53.9375 20.9375 L 52.9375 20.9375 L 52.25 21.3125 L 51.625 21.8125 L 51.0625 22.375 L 50.25 23.5 L 49.6875 24.25 L 49.375 24.5 L 49.3125 24.375 L 49.3125 18.375 L 49.625 17.75 L 50.3125 16.9375 L 50.75 16.4375 L 51.1875 16 L 52.25 15.1875 L 52.625 14.9375 L 53.375 14.6875 Z M 55.125 38.9375 L 54.25 39.1875 L 53.375 39.6875 L 52.75 40.25 L 52.1875 41 L 51.8125 41.625 L 51.3125 42.875 L 50.9375 44.0625 L 50.6875 45.3125 L 50.5625 46.375 L 50.5 47.3125 L 50.5 49.4375 L 50.625 51.125 L 50.875 52.5625 L 51.1875 53.625 L 51.875 55.0625 L 52.125 55.4375 L 52.4375 55.625 L 53.0625 55.625 L 53.6875 55.0625 L 54.25 54.5 L 54.875 53.625 L 55.5 52.25 L 55.8125 51.1875 L 55.875 50.75 L 55.875 39.375 L 55.75 38.9375 Z M 55.125 38.9375 "/>
<path style=" stroke:none;fill-rule:nonzero;fill:rgb(20.784314%,20%,20.784314%);fill-opacity:1;" d="M 80.75 14.625 L 81.375 14.625 L 82 14.8125 L 82.6875 15.25 L 83.25 15.875 L 83.75 16.6875 L 84.1875 17.625 L 84.5625 18.8125 L 84.875 20.3125 L 85.125 22.375 L 85.25 24.375 L 85.3125 25.75 L 85.375 29.5625 L 85.375 50.5625 L 85.4375 52.6875 L 85.625 54.3125 L 85.8125 55.5625 L 86.0625 56.0625 L 86.9375 56.875 L 87.125 57.5 L 87.25 58.6875 L 87.25 59.875 L 87.1875 60.8125 L 86.9375 61.5 L 86.625 61.875 L 86.125 62.125 L 85.875 62.1875 L 85.25 62.1875 L 84.75 61.875 L 84.375 61.25 L 84.0625 60.5 L 83.75 59.0625 L 83.625 58.25 L 83.5625 57 L 83.4375 56 L 82.75 57.4375 L 82.25 58.4375 L 81.625 59.75 L 80.875 60.9375 L 80.375 61.625 L 79.875 62.0625 L 79.1875 62.3125 L 78.8125 62.3125 L 78.125 61.875 L 77.625 61.3125 L 77.125 60.5 L 76.75 59.75 L 76.375 58.6875 L 76 57.4375 L 75.6875 55.75 L 75.4375 53.5625 L 75.3125 51.4375 L 75.3125 47.3125 L 75.4375 45.3125 L 75.625 43.75 L 76.0625 41.375 L 76.5625 39.625 L 77.1875 38.1875 L 77.6875 37.25 L 78.1875 36.5 L 78.875 35.75 L 79.625 35.1875 L 80.625 34.6875 L 81.75 34.375 L 82.8125 34.1875 L 82.9375 34.125 L 82.9375 29.3125 L 82.875 26.6875 L 82.75 24.9375 L 82.5625 23.6875 L 82.25 22.6875 L 81.875 21.75 L 81.5 21.1875 L 81.0625 20.9375 L 80.8125 20.875 L 80.25 20.875 L 79.6875 21.0625 L 78.875 21.625 L 78.0625 22.4375 L 77.375 23.4375 L 76.875 24.0625 L 76.4375 24.5 L 76.3125 24.5 L 76.3125 23.75 L 76.375 23.1875 L 76.375 18.5625 L 76.625 17.9375 L 77.1875 17.1875 L 77.9375 16.3125 L 78.625 15.6875 L 79.5625 15 L 80.375 14.6875 Z M 82.5625 38.875 L 81.5 39.125 L 80.625 39.5625 L 80.0625 40 L 79.5 40.625 L 78.9375 41.5625 L 78.5 42.5625 L 78.0625 43.9375 L 77.8125 45.125 L 77.625 46.6875 L 77.5625 48.1875 L 77.5625 49 L 77.6875 50.9375 L 77.9375 52.5 L 78.25 53.5625 L 79 55.125 L 79.375 55.5625 L 80.0625 55.625 L 80.5625 55.25 L 81.125 54.6875 L 81.8125 53.8125 L 82.5 52.5 L 82.8125 51.625 L 82.9375 50.875 L 83 49.5625 L 83 45 L 82.9375 39.25 L 82.8125 38.875 Z M 82.5625 38.875 "/>
<path style=" stroke:none;fill-rule:nonzero;fill:rgb(20.784314%,20%,20.784314%);fill-opacity:1;" d="M 31.6875 14.6875 L 32.875 14.6875 L 33.5625 14.9375 L 33.9375 15.1875 L 34.5 15.75 L 35.0625 16.625 L 35.5 17.5625 L 35.875 18.8125 L 36.1875 20.25 L 36.375 21.6875 L 36.5625 24.375 L 36.625 26.0625 L 36.6875 50.25 L 36.75 52.375 L 36.875 53.8125 L 37.125 55.3125 L 37.375 55.875 L 38.0625 56.6875 L 38.375 57.25 L 38.5625 58.5 L 38.5625 60.625 L 38.375 61.3125 L 38.0625 61.8125 L 37.3125 62.1875 L 36.6875 62.25 L 36.25 62.0625 L 35.9375 61.75 L 35.5 60.5625 L 35.125 59.125 L 34.9375 58 L 34.8125 56.75 L 34.8125 55.9375 L 34.6875 55.9375 L 34.625 56.1875 L 34.3125 56.8125 L 33.75 58.125 L 33.125 59.375 L 32.5625 60.375 L 32.125 61.0625 L 31.5625 61.75 L 31.125 62.125 L 30.6875 62.3125 L 30.1875 62.3125 L 29.5625 62 L 29 61.375 L 28.5 60.5625 L 28 59.5625 L 27.5 57.9375 L 27.125 56.25 L 26.875 54.625 L 26.6875 52.75 L 26.625 51.75 L 26.5625 49 L 26.625 47.25 L 26.875 44.5625 L 27.125 42.75 L 27.5 41 L 27.875 39.75 L 28.375 38.5 L 28.75 37.75 L 29.3125 36.8125 L 30.0625 35.9375 L 30.5625 35.5 L 31.5 34.875 L 32.625 34.5 L 34.25 34.1875 L 34.25 27.8125 L 34.125 25.3125 L 33.9375 23.9375 L 33.6875 22.875 L 33.3125 22 L 32.875 21.3125 L 32.5 21 L 32.1875 20.875 L 31.75 20.875 L 30.9375 21.125 L 30.25 21.5625 L 29.4375 22.375 L 28.5 23.75 L 27.9375 24.5625 L 27.75 24.75 L 27.6875 24.25 L 27.75 18.1875 L 28.125 17.5625 L 28.6875 16.9375 L 29.9375 15.6875 L 30.6875 15.125 L 31.3125 14.8125 Z M 34.0625 38.8125 L 33.1875 39 L 32.4375 39.3125 L 31.75 39.75 L 31.125 40.3125 L 30.6875 40.875 L 30.1875 41.75 L 29.8125 42.5625 L 29.4375 43.8125 L 29.1875 45.0625 L 29 46.6875 L 28.9375 47.9375 L 28.9375 49.25 L 29.0625 51.0625 L 29.25 52.4375 L 29.625 53.75 L 30.125 54.75 L 30.5 55.25 L 30.8125 55.5 L 31.1875 55.6875 L 31.5 55.625 L 32 55.25 L 32.5625 54.6875 L 33 54.0625 L 33.75 52.6875 L 34.125 51.6875 L 34.3125 50.75 L 34.375 49.3125 L 34.375 46 L 34.3125 39.1875 L 34.1875 38.8125 Z M 34.0625 38.8125 "/>
<path style=" stroke:none;fill-rule:nonzero;fill:rgb(20.392157%,19.607843%,20.392157%);fill-opacity:1;" d="M 106.5 14.6875 L 107.375 14.6875 L 108 15 L 108.4375 15.5625 L 109.1875 17 L 109.5625 18.0625 L 109.9375 19.4375 L 110.25 21.1875 L 110.4375 22.6875 L 110.5625 24.4375 L 110.625 26.1875 L 110.625 61.0625 L 110.4375 61.25 L 109.5 61.3125 L 108.6875 61.3125 L 108.375 61.1875 L 108.3125 60.8125 L 108.25 31.125 L 108.125 26.9375 L 108 25.375 L 107.75 23.8125 L 107.375 22.6875 L 107.0625 22.0625 L 106.5625 21.8125 L 106.0625 21.75 L 105.5625 22.125 L 104.9375 23.0625 L 104.4375 24 L 103.625 26 L 103.0625 27.6875 L 102.6875 29.3125 L 102.4375 30.5625 L 102.25 32.25 L 102.1875 34.625 L 102.125 61.0625 L 101.9375 61.1875 L 101.1875 61.25 L 100 61.25 L 99.8125 61 L 99.75 59.25 L 99.75 15.875 L 99.9375 15.6875 L 101.9375 15.6875 L 102.0625 15.75 L 102.1875 16.375 L 102.1875 19.125 L 102.0625 22.375 L 101.9375 23.8125 L 102.25 22.8125 L 103.0625 20.3125 L 104.0625 17.8125 L 104.875 16.1875 L 105.375 15.5 L 105.875 15 Z M 106.5 14.6875 "/>
<path style=" stroke:none;fill-rule:nonzero;fill:rgb(21.176471%,20.392157%,21.176471%);fill-opacity:1;" d="M 42.375 15.8125 L 44.125 15.8125 L 44.25 16.1875 L 44.25 60.4375 L 44.1875 67.75 L 44.125 70.25 L 43.9375 73.75 L 43.6875 76.375 L 43.375 78.3125 L 43 79.6875 L 42.625 80.75 L 42.0625 81.8125 L 41.5625 82.5625 L 41 83.125 L 40.4375 83.375 L 39.875 83.375 L 39.1875 83.1875 L 38.5 82.8125 L 37.6875 82.0625 L 37.3125 81.4375 L 37.125 80.5625 L 37.0625 75.1875 L 37.125 75 L 37.4375 75.125 L 37.75 75.4375 L 38.4375 76.3125 L 39.0625 76.9375 L 39.5 77.125 L 40.0625 77.125 L 40.6875 76.75 L 41 76.0625 L 41.25 75.1875 L 41.4375 74.3125 L 41.6875 72.0625 L 41.75 70.5625 L 41.8125 67.0625 L 41.8125 15.875 Z M 42.375 15.8125 "/>
<path style=" stroke:none;fill-rule:nonzero;fill:rgb(21.176471%,20.392157%,21.176471%);fill-opacity:1;" d="M 92.375 6.8125 L 92.8125 6.8125 L 92.875 6.875 L 92.875 8.625 L 92.8125 15.6875 L 96.25 15.6875 L 96.3125 15.75 L 96.375 16.75 L 96.375 19.4375 L 96.3125 21.75 L 96 21.875 L 92.875 21.875 L 92.8125 32.3125 L 92.8125 46.125 L 92.875 49.125 L 93 51.25 L 93.25 53.125 L 93.5625 54.625 L 93.875 55.6875 L 94.1875 55.875 L 94.75 56 L 95.25 56 L 95.6875 55.9375 L 96.1875 55.9375 L 96.3125 56.0625 L 96.375 56.3125 L 96.375 56.9375 L 96.3125 57.75 L 96.3125 59.8125 L 96.25 60.9375 L 95.9375 61.5625 L 95.5625 61.875 L 94.6875 62.125 L 93.875 62.125 L 93.4375 61.9375 L 93.0625 61.6875 L 92.5625 61.125 L 92 60.1875 L 91.5625 59 L 91.1875 57.5625 L 90.9375 56.1875 L 90.75 54.4375 L 90.5625 51.5 L 90.5 49.6875 L 90.4375 29.4375 L 90.4375 22 L 89 21.8125 L 88.75 21.75 L 88.6875 21.5625 L 88.6875 16 L 88.8125 15.875 L 90.375 15.625 L 90.375 7.8125 L 90.5625 7.4375 L 91.0625 7.1875 Z M 92.375 6.8125 "/>
<path style=" stroke:none;fill-rule:nonzero;fill:rgb(21.176471%,20.392157%,21.176471%);fill-opacity:1;" d="M 24.125 14.5625 L 24.625 14.5625 L 24.75 14.6875 L 24.8125 15.5625 L 24.875 20.9375 L 24.875 22 L 24.75 22.25 L 24.25 22.125 L 23.375 22.125 L 22.8125 22.3125 L 22.8125 22.4375 L 22.6875 22.4375 L 22.5625 22.6875 L 22.1875 23.1875 L 21.6875 24.1875 L 21.125 25.625 L 20.6875 27.125 L 20.25 28.9375 L 20 30.25 L 19.875 32.0625 L 19.8125 61.1875 L 19.375 61.3125 L 17.9375 61.25 L 17.6875 61.1875 L 17.5625 60.9375 L 17.5 60.0625 L 17.4375 50.6875 L 17.4375 23.25 L 17.375 15.8125 L 17.4375 15.75 L 18.625 15.6875 L 19.6875 15.6875 L 19.875 16 L 19.875 17.9375 L 19.8125 20.3125 L 19.6875 22.6875 L 19.625 22.9375 L 19.75 23.1875 L 20 22.6875 L 20.25 21.6875 L 20.5625 20.25 L 21.25 18.1875 L 21.8125 16.9375 L 22.3125 16 L 22.8125 15.3125 L 23.3125 14.875 L 23.875 14.625 Z M 24.125 14.5625 "/>
<path style=" stroke:none;fill-rule:nonzero;fill:rgb(21.960784%,21.176471%,21.960784%);fill-opacity:1;" d="M 59.5625 107.75 L 60.375 107.875 L 60.75 108.125 L 61 108.625 L 61.1875 109.3125 L 61.5 111.375 L 61.6875 113.375 L 61.8125 115.5625 L 61.875 119.125 L 61.875 127.25 L 61.625 127.3125 L 60.9375 127.25 L 60.8125 127.125 L 60.75 126.8125 L 60.6875 120.0625 L 60.5625 114.8125 L 60.4375 112.875 L 60.25 111.6875 L 60.0625 111.0625 L 59.875 110.8125 L 59.6875 110.75 L 59.125 110.75 L 58.75 111.1875 L 58.375 112.125 L 58.1875 112.9375 L 58.125 113.5 L 58.0625 127.3125 L 58 127.375 L 57.4375 127.375 L 57.0625 127.25 L 57 127.125 L 56.9375 125.9375 L 56.875 120.6875 L 56.875 112.1875 L 57 110 L 57.125 108.3125 L 57.25 108.0625 L 57.625 108.0625 L 57.9375 108.375 L 58.3125 109.0625 L 58.5625 109.4375 L 58.875 108.1875 L 59.125 107.9375 Z M 59.5625 107.75 "/>
<path style=" stroke:none;fill-rule:nonzero;fill:rgb(21.568627%,20.784314%,21.568627%);fill-opacity:1;" d="M 99.3125 107.6875 L 99.875 107.6875 L 100.375 108 L 100.75 108.5 L 101.25 109.6875 L 101.625 110.875 L 101.875 112.5 L 102.125 115.1875 L 102.125 117.75 L 102 118.0625 L 101.75 118.1875 L 99.5 118.375 L 97.875 118.4375 L 98.0625 119.8125 L 98.3125 122 L 98.6875 123.8125 L 98.9375 124.4375 L 99.25 124.75 L 100.1875 124.75 L 101.25 124.5625 L 101.625 124.5625 L 101.6875 124.625 L 101.6875 125.4375 L 101.5625 126.5 L 101.3125 127 L 101.0625 127.3125 L 100.9375 127.3125 L 100.8125 127.5625 L 100.5 127.875 L 100.3125 128 L 99.375 128 L 99.0625 127.8125 L 98.25 126.3125 L 97.875 125.375 L 97.5625 124.3125 L 97.1875 122.125 L 97 119.9375 L 96.9375 117.3125 L 97 115.4375 L 97.1875 113.5 L 97.5 111.4375 L 97.875 109.875 L 98.25 108.875 L 98.6875 108.125 L 99.1875 107.75 Z M 99.4375 109.9375 L 99 110.3125 L 98.6875 110.9375 L 98.4375 111.875 L 98.125 113.5625 L 98 114.6875 L 98.0625 115.625 L 98.3125 115.8125 L 98.625 115.875 L 100.6875 115.875 L 101 115.75 L 101.0625 115.6875 L 101.0625 114.375 L 100.875 112.625 L 100.6875 111.625 L 100.375 110.8125 L 99.875 110.125 L 99.625 109.9375 Z M 99.4375 109.9375 "/>
<path style=" stroke:none;fill-rule:nonzero;fill:rgb(21.176471%,20.392157%,21.176471%);fill-opacity:1;" d="M 43 107.5625 L 43.375 107.625 L 43.6875 107.8125 L 44.125 108.4375 L 44.5625 109.375 L 44.9375 110.6875 L 45.125 111.875 L 45.3125 114.0625 L 45.375 115.3125 L 45.375 116.8125 L 45.3125 118.1875 L 45.125 118.25 L 41.375 118.4375 L 41.5 119.5 L 41.75 122.1875 L 42.0625 123.75 L 42.3125 124.4375 L 42.5625 124.6875 L 42.875 124.8125 L 43.625 124.8125 L 44.4375 124.625 L 44.9375 124.625 L 45.125 124.8125 L 45.125 125.4375 L 44.875 126.6875 L 44.625 127.125 L 44.1875 127.4375 L 44.0625 127.75 L 43.375 127.875 L 42.625 127.875 L 42.0625 127.1875 L 41.6875 126.5625 L 41 124.5 L 40.6875 122.9375 L 40.5625 121.75 L 40.4375 119.4375 L 40.4375 115.125 L 40.5625 112.625 L 40.6875 111.8125 L 41 110.5 L 41.375 109.5625 L 41.9375 108.5625 L 42.375 108 L 42.8125 107.625 Z M 43.125 109.9375 L 42.625 110.375 L 42.1875 110.8125 L 41.9375 111.375 L 41.6875 112.625 L 41.5625 114.25 L 41.5625 115.875 L 41.6875 115.9375 L 42.9375 115.9375 L 44 115.875 L 44.3125 115.75 L 44.3125 114.1875 L 44.125 111.875 L 43.875 110.875 L 43.375 110 Z M 43.125 109.9375 "/>
<path style=" stroke:none;fill-rule:nonzero;fill:rgb(21.176471%,20.392157%,21.176471%);fill-opacity:1;" d="M 79.4375 107.625 L 80 107.8125 L 80.3125 108.0625 L 80.6875 108.625 L 81.125 109.5625 L 81.5 110.6875 L 81.6875 111.75 L 81.875 113.625 L 81.9375 114.6875 L 81.9375 117.8125 L 81.8125 118.125 L 81.25 118.25 L 77.8125 118.4375 L 78.125 121.1875 L 78.375 122.8125 L 78.625 123.875 L 78.875 124.5 L 78.9375 124.6875 L 79.25 124.75 L 80 124.75 L 81 124.5625 L 81.625 124.5625 L 81.625 125.25 L 81.375 126.6875 L 81.0625 127.1875 L 80.75 127.5 L 80.5 127.8125 L 80.0625 128 L 79.5 128 L 79.25 127.875 L 78.9375 127.8125 L 78.5 126.9375 L 78 126.0625 L 77.625 124.9375 L 77.375 123.875 L 77.0625 121.875 L 76.875 119.875 L 76.875 114.8125 L 77.125 112.5625 L 77.375 111.1875 L 77.75 109.875 L 78.25 108.875 L 78.625 108.1875 L 79.125 107.75 Z M 79.3125 109.9375 L 78.8125 110.5 L 78.4375 111.3125 L 78.1875 112.1875 L 77.875 114.1875 L 77.875 115.25 L 78 115.6875 L 78.1875 115.8125 L 78.5625 115.875 L 80.8125 115.875 L 80.9375 115.5 L 80.9375 114.5 L 80.8125 112.625 L 80.625 111.5 L 80.3125 110.75 L 79.8125 110.0625 L 79.6875 109.9375 Z M 79.3125 109.9375 "/>
<path style=" stroke:none;fill-rule:nonzero;fill:rgb(21.176471%,20.392157%,21.176471%);fill-opacity:1;" d="M 31.5 107.6875 L 32 107.75 L 32.5 108.125 L 32.875 108.6875 L 33.4375 110 L 33.75 111.125 L 33.9375 112.5625 L 34.125 114.6875 L 34.125 117.75 L 34 118.125 L 33.1875 118.25 L 32.125 118.3125 L 30 118.375 L 30.0625 118.5625 L 30.25 121 L 30.5625 123.0625 L 30.8125 124.125 L 31.125 124.6875 L 31.1875 124.75 L 32.0625 124.8125 L 33.125 124.625 L 33.3125 124.5625 L 33.75 124.5625 L 33.8125 124.625 L 33.8125 125.1875 L 33.625 126.4375 L 33.375 126.9375 L 32.8125 127.5625 L 32.375 128 L 31.5625 128 L 31.1875 127.75 L 30.5 126.6875 L 30.0625 125.8125 L 29.6875 124.6875 L 29.375 123.1875 L 29.125 121.3125 L 29.0625 120.125 L 29.0625 115.625 L 29.1875 113.75 L 29.5 111.5 L 29.8125 110.1875 L 30.125 109.375 L 30.625 108.4375 L 31.0625 107.9375 Z M 31.4375 109.9375 L 30.9375 110.5 L 30.625 111.25 L 30.4375 112.0625 L 30.125 113.875 L 30.0625 114.5 L 30.0625 115.3125 L 30.1875 115.75 L 30.375 115.875 L 30.875 115.9375 L 32.3125 115.9375 L 33.125 115.875 L 33.125 114.125 L 32.875 112 L 32.625 111.125 L 32.1875 110.375 L 31.875 110 Z M 31.4375 109.9375 "/>
<path style=" stroke:none;fill-rule:nonzero;fill:rgb(21.176471%,20.392157%,21.176471%);fill-opacity:1;" d="M 48.3125 107.6875 L 48.9375 107.6875 L 49.375 107.875 L 49.8125 108.25 L 50.25 109.25 L 50.6875 111 L 50.8125 112.0625 L 50.875 113 L 50.9375 115.0625 L 50.9375 127.1875 L 50.75 127.25 L 50.0625 126.9375 L 49.6875 126 L 49.5625 126.1875 L 48.9375 127.375 L 48.6875 127.6875 L 48 127.6875 L 47.4375 127.375 L 47.0625 126.625 L 46.75 125.3125 L 46.5625 123.625 L 46.5625 120 L 46.625 119.1875 L 46.875 118.25 L 47.3125 117.0625 L 47.8125 116.1875 L 48.1875 115.75 L 49.0625 115.1875 L 49.6875 114.8125 L 49.75 114.75 L 49.75 112.5 L 49.5625 111.3125 L 49.3125 110.75 L 48.875 110.375 L 48.4375 110.3125 L 47.4375 110.75 L 46.8125 111 L 46.6875 110.9375 L 46.75 110.25 L 47.0625 109.125 L 47.5 108.25 L 48 107.8125 Z M 49.5625 117.25 L 48.5625 117.875 L 48.1875 118.1875 L 47.875 118.8125 L 47.6875 119.4375 L 47.625 119.875 L 47.625 123.9375 L 47.75 124.625 L 48 124.9375 L 48.125 125 L 48.6875 124.9375 L 49.1875 124.6875 L 49.5 124.25 L 49.75 123.3125 L 49.875 121.75 L 49.9375 120 L 49.9375 117.875 L 49.75 117.25 Z M 49.5625 117.25 "/>
<path style=" stroke:none;fill-rule:nonzero;fill:rgb(21.960784%,21.176471%,21.960784%);fill-opacity:1;" d="M 91.1875 107.9375 L 91.6875 107.9375 L 92 108.125 L 92.1875 108.875 L 92.4375 111.0625 L 92.8125 115.5625 L 93.25 120.375 L 93.625 122.3125 L 93.6875 123.0625 L 93.8125 121.3125 L 94 118.8125 L 94.375 114.9375 L 94.75 112 L 95.0625 109.6875 L 95.1875 108.4375 L 95.3125 108.0625 L 95.4375 108 L 96.125 108 L 96.1875 108.0625 L 96.1875 108.9375 L 95.4375 115.25 L 95.125 118 L 94.75 121.625 L 94.5 123.75 L 94.1875 126.9375 L 94.0625 127.25 L 93.75 127.375 L 93.3125 127.3125 L 93.0625 127 L 92.9375 126.5625 L 92.625 123.5 L 92.3125 120.25 L 91.625 114.625 L 91.125 109.875 L 91.0625 109 L 91.0625 108 Z M 91.1875 107.9375 "/>
<path style=" stroke:none;fill-rule:nonzero;fill:rgb(21.176471%,20.392157%,21.176471%);fill-opacity:1;" d="M 85.5625 99.125 L 86.3125 99.125 L 86.6875 99.1875 L 86.75 108.6875 L 86.75 112.8125 L 86.6875 127.25 L 85.625 127.25 L 85.5625 127.1875 L 85.5 126.0625 L 85.5 99.1875 Z M 85.5625 99.125 "/>
<path style=" stroke:none;fill-rule:nonzero;fill:rgb(21.960784%,21.176471%,21.960784%);fill-opacity:1;" d="M 38.1875 99.0625 L 38.625 99.125 L 38.875 99.25 L 38.9375 99.5 L 38.875 105.8125 L 38.875 125.3125 L 38.8125 127.3125 L 38.5625 127.375 L 38.125 127.375 L 37.75 127.25 L 37.75 99.25 Z M 38.1875 99.0625 "/>
<path style=" stroke:none;fill-rule:nonzero;fill:rgb(21.568627%,20.784314%,21.568627%);fill-opacity:1;" d="M 55.0625 108 L 55.875 108 L 56 108.0625 L 55.875 109.125 L 55.6875 110.1875 L 54.8125 111.4375 L 54.3125 112.5 L 54.0625 113.6875 L 54 114.25 L 53.9375 116.4375 L 53.875 127.3125 L 53.8125 127.375 L 53.1875 127.375 L 52.8125 127.25 L 52.75 127.0625 L 52.75 121.875 L 52.8125 108.125 L 52.875 108.0625 L 53.1875 108.0625 L 53.5625 108.3125 L 53.75 108.5 L 53.8125 108.875 L 53.625 109.125 L 53.6875 109.1875 L 53.9375 108.75 L 54 108.25 L 54.1875 108.25 L 54.125 109.3125 L 54.375 108.75 L 54.625 108.375 Z M 55.0625 108 "/>
<path style=" stroke:none;fill-rule:nonzero;fill:rgb(21.568627%,20.784314%,21.568627%);fill-opacity:1;" d="M 75.1875 108 L 75.875 108 L 76.0625 108.1875 L 76 109.1875 L 75.625 113.0625 L 75.25 116.5 L 74.875 122.1875 L 74.6875 124.8125 L 74.5625 127.0625 L 74.5 127.1875 L 73.5625 127.3125 L 73.3125 127.0625 L 73.1875 126.5 L 73.125 125.4375 L 73.125 123 L 73.375 119.8125 L 73.625 117.625 L 74.125 114.8125 L 74.8125 110.4375 L 75.0625 108.25 Z M 75.1875 108 "/>
<path style=" stroke:none;fill-rule:nonzero;fill:rgb(23.529412%,22.745098%,23.529412%);fill-opacity:1;" d="M 27.4375 108 L 28 108 L 28.1875 108.0625 L 28.1875 108.875 L 27.5 115.5 L 27.125 121.5 L 26.75 126.4375 L 26.625 127.1875 L 26.5625 127.25 L 25.75 127.1875 L 25.5 127.0625 L 25.375 126.4375 L 25.1875 122.8125 L 25.1875 120.25 L 25.375 116.8125 L 25.5625 114.5 L 25.625 114.5 L 25.75 115.4375 L 25.875 116.25 L 26.0625 120.0625 L 26.125 121.5 L 26.125 122.125 L 26.1875 121.875 L 26.5 115.5 L 26.625 113.5625 L 27.125 109.25 L 27.25 108.125 Z M 27.4375 108 "/>
<path style=" stroke:none;fill-rule:nonzero;fill:rgb(21.568627%,20.784314%,21.568627%);fill-opacity:1;" d="M 67.875 108.0625 L 68.4375 108.0625 L 68.9375 108.125 L 69.0625 108.375 L 69.25 110.5625 L 69.625 113.6875 L 70.3125 119.125 L 70.6875 122.125 L 70.8125 123.625 L 70.8125 127.125 L 70.5625 127.1875 L 69.625 127.0625 L 69.5 126.75 L 69.1875 122.875 L 68.8125 118.3125 L 68.25 112.25 L 67.875 108.4375 Z M 67.875 108.0625 "/>
<path style=" stroke:none;fill-rule:nonzero;fill:rgb(21.568627%,20.784314%,21.568627%);fill-opacity:1;" d="M 20.1875 108 L 20.9375 108.0625 L 21.25 108.1875 L 21.625 112.4375 L 21.9375 116.125 L 22.3125 119.875 L 22.75 122.9375 L 22.875 124.1875 L 22.875 127.1875 L 22.3125 127.125 L 21.875 127 L 21.75 126.6875 L 21.375 123.1875 L 20.75 116.0625 L 20.1875 109 L 20.125 108.0625 Z M 20.1875 108 "/>
<path style=" stroke:none;fill-rule:nonzero;fill:rgb(21.176471%,20.392157%,21.176471%);fill-opacity:1;" d="M 88.625 108 L 89.25 108 L 89.5625 108.125 L 89.625 108.1875 L 89.6875 110.9375 L 89.75 117.125 L 89.75 127.3125 L 88.875 127.3125 L 88.625 127.1875 L 88.5625 118.4375 L 88.5625 108.0625 Z M 88.625 108 "/>
<path style=" stroke:none;fill-rule:nonzero;fill:rgb(21.568627%,20.784314%,21.568627%);fill-opacity:1;" d="M 41.9375 0 L 44.25 0 L 44.25 3.1875 L 44.1875 8.1875 L 42.125 8.1875 L 41.875 8.0625 L 41.8125 7.125 L 41.8125 3.3125 L 41.875 0.0625 Z M 41.9375 0 "/>
<path style=" stroke:none;fill-rule:nonzero;fill:rgb(22.352941%,21.568627%,22.352941%);fill-opacity:1;" d="M 71.625 108.0625 L 72.1875 108.0625 L 72.5625 108.25 L 72.6875 108.5 L 72.8125 110.1875 L 72.8125 112.9375 L 72.625 115.8125 L 72.3125 118.8125 L 72.125 120.5625 L 72.0625 123.25 L 72 123.25 L 71.75 121.3125 L 71.5625 120.25 L 71.375 118.5625 L 71.1875 115.8125 L 71.125 113.5 L 71.25 110.75 L 71.4375 108.3125 Z M 71.625 108.0625 "/>
<path style=" stroke:none;fill-rule:nonzero;fill:rgb(21.960784%,21.176471%,21.960784%);fill-opacity:1;" d="M 24.0625 108.125 L 24.5625 108.125 L 24.8125 108.25 L 24.875 109.125 L 24.875 113 L 24.75 114.625 L 24.5 116 L 24.25 117.1875 L 23.9375 119.625 L 23.75 121.875 L 23.6875 123.1875 L 23.625 123.75 L 23.5625 123.75 L 23.4375 123.0625 L 23.3125 121.8125 L 23.25 120.75 L 23.25 113.9375 L 23.4375 110.5625 L 23.625 108.5 L 23.6875 108.25 Z M 24.0625 108.125 "/>
<path style=" stroke:none;fill-rule:nonzero;fill:rgb(21.568627%,20.784314%,21.568627%);fill-opacity:1;" d="M 103.8125 122.875 L 104.25 122.9375 L 104.4375 123.375 L 104.5625 125.375 L 104.5625 126.9375 L 104.4375 127.375 L 104.375 127.4375 L 103.375 127.4375 L 103.25 127.1875 L 103.1875 126.75 L 103.1875 123.5 L 103.375 123.125 Z M 103.8125 122.875 "/>
<path style=" stroke:none;fill-rule:nonzero;fill:rgb(21.176471%,20.392157%,21.176471%);fill-opacity:1;" d="M 63.75 122.9375 L 64.4375 122.9375 L 64.6875 123.1875 L 64.8125 124.1875 L 64.875 125.375 L 64.875 127.5 L 64.25 127.4375 L 63.6875 127.3125 L 63.5625 127 L 63.5625 123 Z M 63.75 122.9375 "/>
<path style=" stroke:none;fill-rule:nonzero;fill:rgb(21.176471%,20.392157%,21.176471%);fill-opacity:1;" d="M 88.5625 100.875 L 89.375 100.875 L 89.6875 101 L 89.8125 101.25 L 89.8125 104.25 L 89.75 104.4375 L 89.125 104.5625 L 88.625 104.4375 L 88.5625 104.3125 L 88.5 102.125 L 88.5 100.9375 Z M 88.5625 100.875 "/>
<path style=" stroke:none;fill-rule:nonzero;fill:rgb(70.196078%,69.803922%,70.196078%);fill-opacity:1;" d="M 37.875 127.4375 L 38.1875 127.5 L 38.25 127.75 L 38.1875 128 L 37.875 127.8125 Z M 37.875 127.4375 "/>
<path style=" stroke:none;fill-rule:nonzero;fill:rgb(62.352941%,61.960784%,62.352941%);fill-opacity:1;" d="M 47.625 127.75 L 47.9375 127.875 L 47.75 128 L 47.5625 128 Z M 47.625 127.75 "/>
</g>
</svg>
