<svg width="512" height="512" viewBox="0 0 512 512" fill="none" xmlns="http://www.w3.org/2000/svg">
<g clip-path="url(#clip0_400_112)">
<path d="M52.9979 26.5551C52.9399 37.7405 45.883 47.692 35.3455 51.4454V70.4216C28.4495 79.7002 22.5334 89.6678 17.6931 100.166V51.4454C4.98803 46.9531 -2.31689 33.6371 0.721662 20.509C3.76021 7.38097 16.1754 -1.37073 29.5614 0.177043C42.9474 1.72481 53.0349 13.0801 52.9979 26.5551Z" fill="white"/>
<path d="M353.09 26.5551C353.032 37.7404 345.975 47.6919 335.438 51.4454V61.8608H317.785V51.4454C305.081 46.954 297.776 33.637 300.815 20.509C303.853 7.38092 316.268 -1.37078 329.654 0.177989C343.041 1.72576 353.128 13.0801 353.09 26.5551Z" fill="white"/>
<path d="M335.438 182.215C335.438 88.445 267.14 17.7285 176.564 17.7285C85.9888 17.7285 17.6919 88.445 17.6919 182.215C17.6919 272.199 71.144 317.822 176.565 317.822C281.987 317.822 335.438 272.199 335.438 182.215ZM167.739 53.0343H185.391C190.265 53.0343 194.218 56.9857 194.218 61.861C194.218 66.7362 190.266 70.6876 185.391 70.6876H167.739C162.864 70.6876 158.912 66.7362 158.912 61.861C158.912 56.9857 162.864 53.0343 167.739 53.0343ZM158.913 79.5123H194.218C199.092 79.5123 203.044 83.4637 203.044 88.339C203.044 93.2143 199.093 97.1657 194.218 97.1657H158.913C154.039 97.1657 150.086 93.2143 150.086 88.339C150.086 83.4637 154.038 79.5123 158.913 79.5123ZM35.3443 194.254C35.3983 145.531 74.8834 106.045 123.607 105.991H229.522C278.268 105.991 317.785 145.508 317.785 194.254C317.785 243.001 278.269 282.517 229.522 282.517H123.607C74.8834 282.463 35.3983 242.978 35.3443 194.254Z" fill="white"/>
<path d="M257.768 323.939C259.338 324.76 260.865 325.705 262.357 326.649H332.79C342.064 317.245 350.153 306.744 356.877 295.377C360.409 289.375 366.202 285.041 372.958 283.347C374.585 282.945 376.246 282.694 377.919 282.597L388.713 244.794C389.482 241.654 391.906 239.187 395.031 238.361C398.156 237.535 401.482 238.484 403.702 240.833C405.922 243.183 406.679 246.558 405.678 249.631L394.856 287.584C399.971 291.132 403.64 296.401 405.192 302.43C406.946 309.296 405.869 316.579 402.199 322.642C401.36 324.054 400.433 325.29 399.622 326.667H476.657V114.818H341.316C349.159 136.421 353.144 159.234 353.09 182.215C353.09 255.491 320.345 303.391 257.768 323.939Z" fill="white"/>
<path d="M300.133 194.254C300.089 155.275 268.502 123.688 229.523 123.644H123.608C84.6104 123.644 52.9971 155.257 52.9971 194.254C52.9971 233.252 84.6104 264.865 123.608 264.865H229.523C268.502 264.821 300.089 233.234 300.133 194.254ZM105.955 211.907C91.3314 211.907 79.4761 200.051 79.4761 185.428C79.4761 170.804 91.3314 158.949 105.955 158.949C120.579 158.949 132.434 170.804 132.434 185.428C132.434 200.051 120.579 211.907 105.955 211.907ZM209.285 226.973C200.236 234.817 188.53 238.901 176.566 238.386C164.602 238.901 152.895 234.817 143.847 226.973C140.692 223.509 140.794 218.184 144.079 214.843C147.363 211.503 152.685 211.31 156.203 214.404C162.013 218.884 169.239 221.129 176.565 220.732C183.873 221.119 191.076 218.871 196.865 214.395C200.386 211.084 205.91 211.197 209.292 214.651C212.669 218.067 212.665 223.564 209.285 226.973ZM220.697 185.428C220.697 170.804 232.552 158.949 247.176 158.949C261.8 158.949 273.655 170.804 273.655 185.428C273.655 200.051 261.8 211.907 247.176 211.907C232.551 211.907 220.697 200.051 220.697 185.428Z" fill="white"/>
<path d="M105.955 194.254C110.83 194.254 114.782 190.302 114.782 185.428C114.782 180.553 110.83 176.601 105.955 176.601C101.08 176.601 97.1284 180.553 97.1284 185.428C97.1284 190.302 101.08 194.254 105.955 194.254Z" fill="white"/>
<path d="M247.175 194.254C252.05 194.254 256.002 190.302 256.002 185.428C256.002 180.553 252.05 176.601 247.175 176.601C242.3 176.601 238.349 180.553 238.349 185.428C238.349 190.302 242.3 194.254 247.175 194.254Z" fill="white"/>
<path d="M158.913 353.128C158.913 362.877 166.816 370.78 176.565 370.78C186.315 370.78 194.218 362.877 194.218 353.128V335.475H158.913V353.128Z" fill="white"/>
<path d="M311.096 344.301H279.021C281.316 348.317 283.076 352.618 284.256 357.09C293.717 354.008 302.74 349.708 311.096 344.301Z" fill="white"/>
<path d="M158.913 512H194.218C203.967 512 211.87 504.097 211.87 494.348H141.26C141.26 504.097 149.164 512 158.913 512Z" fill="white"/>
<path d="M503.137 79.5122H324.097C327.685 85.2074 330.947 91.1005 333.867 97.1646H485.485C490.359 97.1646 494.311 101.116 494.311 105.991V335.474C494.311 340.348 490.36 344.301 485.485 344.301H387.46C382.721 350.472 377.632 356.366 372.218 361.953H503.138C508.012 361.953 511.965 358.002 511.965 353.127V88.3389C511.964 83.4646 508.012 79.5122 503.137 79.5122Z" fill="white"/>
<path d="M388.105 306.762C387.562 304.541 386.146 302.631 384.178 301.466C382.134 300.202 379.664 299.826 377.338 300.424C375.116 300.967 373.206 302.384 372.042 304.352C345.184 349.207 311.52 367.574 285.861 374.962C285.861 375.5 285.861 376.03 285.773 376.569L283.867 393.737C315.394 386.367 355.545 366.049 387.054 313.488C388.29 311.477 388.668 309.055 388.105 306.762Z" fill="white"/>
<path d="M233.177 335.474H211.871V353.126C211.871 372.625 196.064 388.431 176.566 388.431C157.068 388.431 141.261 372.625 141.261 353.126V335.474H119.954C109.911 335.473 100.342 339.749 93.6441 347.232C86.9461 354.716 83.7516 364.698 84.8614 374.68L91.2954 432.563H150.088C154.962 432.563 158.914 436.514 158.914 441.389C158.914 446.265 154.963 450.216 150.088 450.216H93.7311C97.7065 465.788 111.729 476.686 127.8 476.695H225.331C241.402 476.686 255.424 465.788 259.399 450.216H203.044C198.17 450.216 194.217 446.265 194.217 441.389C194.217 436.514 198.169 432.563 203.044 432.563H261.836L268.27 374.68C269.38 364.699 266.185 354.716 259.487 347.232C252.789 339.749 243.221 335.473 233.177 335.474Z" fill="white"/>
</g>
<defs>
<clipPath id="clip0_400_112">
<rect width="512" height="512" fill="white"/>
</clipPath>
</defs>
</svg>
